<?xml version="1.0" standalone="no"?>
<!DOCTYPE svg PUBLIC "-//W3C//DTD SVG 1.1//EN" "http://www.w3.org/Graphics/SVG/1.1/DTD/svg11.dtd" >
<svg xmlns="http://www.w3.org/2000/svg" xmlns:xlink="http://www.w3.org/1999/xlink" version="1.1">
<metadata>
Created by FontForge 20170731 at Wed Sep 30 19:57:51 2020
 By Aleksey,,,
Copyright (c) 2018 by Martin Va'cha. All rights reserved.
</metadata>
<defs>
<font id="RecklessNeue-Medium" horiz-adv-x="733" >
  <font-face 
    font-family="Reckless Neue Medium"
    font-weight="500"
    font-stretch="normal"
    units-per-em="2048"
    panose-1="0 0 6 0 0 0 0 0 0 0"
    ascent="1638"
    descent="-410"
    x-height="1030"
    cap-height="1368"
    bbox="-260 -457.348 2310 2157"
    underline-thickness="102"
    underline-position="-409"
    unicode-range="U+000D-F8FF"
  />
<missing-glyph horiz-adv-x="2205" 
d="M84 633q0 202 78 388.5t210 323.5t314.5 222t384.5 92v-2048q-202 7 -385 90.5t-315 220t-209.5 322.5t-77.5 389zM1145 1651q83 -28 153 -172t111 -368.5t41 -477.5t-41 -477t-111 -367t-153 -172v2034zM1808 633q0 -344 -142 -617t-366 -366q103 134 164.5 398.5
t61.5 584.5t-61 584.5t-165 402.5q146 -62 262 -207.5t181 -349.5t65 -430zM2132 633q0 -310 -171 -566t-452 -374q172 150 273.5 400t101.5 540q0 289 -101.5 541t-273.5 401q281 -119 452 -376t171 -566z" />
    <glyph glyph-name="f_f" unicode="ff" horiz-adv-x="1386" 
d="M1237 1425q-82 0 -123 -80t-41 -212v-103h285v-57h-285v-819q0 -63 41.5 -87.5t151.5 -37.5v-29h-543v29q73 14 107 39t34 86v819h-432v-819q0 -63 42.5 -87.5t152.5 -37.5v-29h-543v29q73 14 107 39t34 86v819h-172v57h172v45q0 130 62 224t164 139t231 45
q190 0 295 -105q108 105 287 105q210 0 272 -119l-162 -113q-13 75 -49.5 124.5t-87.5 49.5zM864 1030v43q0 65 17 135q-32 104 -93 160.5t-135 56.5q-110 0 -165.5 -83.5t-55.5 -206.5v-105h432z" />
    <glyph glyph-name="f_f_i" unicode="ffi" horiz-adv-x="1892" 
d="M1712 152q0 -61 30.5 -85t96.5 -38v-29h-463v29q66 14 96.5 38t30.5 85v821h-430v-819q0 -63 41.5 -87.5t151.5 -37.5v-29h-543v29q73 14 107 39t34 86v819h-432v-819q0 -63 42.5 -87.5t152.5 -37.5v-29h-543v29q73 14 107 39t34 86v819h-172v57h172v45q0 130 62 224
t164 139t231 45q198 0 305 -117q129 117 346 117q275 0 369 -154l-174 -112q-18 96 -81.5 152t-143.5 56q-107 0 -168.5 -83.5t-61.5 -211.5v-100h498l112 31h29v-909zM864 1030v45q0 65 19 127q-31 106 -94 164.5t-136 58.5q-110 0 -165.5 -83.5t-55.5 -206.5v-105h432z
" />
    <glyph glyph-name="f_f_l" unicode="ffl" horiz-adv-x="1894" 
d="M1712 152q0 -61 30.5 -85t96.5 -38v-29h-463v29q66 14 96.5 38t30.5 85v1140q-30 62 -84 97.5t-116 35.5q-107 0 -168.5 -85.5t-61.5 -219.5v-90h266v-57h-266v-819q0 -63 41.5 -87.5t151.5 -37.5v-29h-543v29q73 14 107 39t34 86v819h-432v-819q0 -63 42.5 -87.5
t152.5 -37.5v-29h-543v29q73 14 107 39t34 86v819h-172v57h172v45q0 130 62 224t164 139t231 45q198 0 305 -117q129 117 346 117q181 0 283 -66l67 35h29v-1300zM864 1030v49q0 63 19 125q-31 105 -94 163t-136 58q-110 0 -165.5 -83.5t-55.5 -206.5v-105h432z" />
    <glyph glyph-name="f_i" unicode="fi" horiz-adv-x="1251" 
d="M1073 152q0 -61 30.5 -85t96.5 -38v-29h-463v29q66 14 96.5 38t30.5 85v821h-432v-819q0 -63 42.5 -87.5t152.5 -37.5v-29h-543v29q73 14 107 39t34 86v819h-172v57h172v45q0 193 133 300.5t334 107.5q277 0 371 -154l-174 -112q-18 96 -81.5 152t-143.5 56
q-107 0 -169.5 -84t-62.5 -211v-100h500l112 31h29v-909z" />
    <glyph glyph-name="f_l" unicode="fl" horiz-adv-x="1255" 
d="M1073 152q0 -61 30.5 -85t96.5 -38v-29h-463v29q66 14 96.5 38t30.5 85v1140q-30 62 -84 97.5t-116 35.5q-108 0 -170 -85.5t-62 -219.5v-90h268v-57h-268v-819q0 -63 42.5 -87.5t152.5 -37.5v-29h-543v29q73 14 107 39t34 86v819h-172v57h172v49q0 128 64 221t168.5 138
t234.5 45q183 0 285 -66l67 35h29v-1300z" />
    <glyph glyph-name=".notdef" horiz-adv-x="2205" 
d="M84 633q0 202 78 388.5t210 323.5t314.5 222t384.5 92v-2048q-202 7 -385 90.5t-315 220t-209.5 322.5t-77.5 389zM1145 1651q83 -28 153 -172t111 -368.5t41 -477.5t-41 -477t-111 -367t-153 -172v2034zM1808 633q0 -344 -142 -617t-366 -366q103 134 164.5 398.5
t61.5 584.5t-61 584.5t-165 402.5q146 -62 262 -207.5t181 -349.5t65 -430zM2132 633q0 -310 -171 -566t-452 -374q172 150 273.5 400t101.5 540q0 289 -101.5 541t-273.5 401q281 -119 452 -376t171 -566z" />
    <glyph glyph-name=".null" horiz-adv-x="0" 
 />
    <glyph glyph-name="nonmarkingreturn" horiz-adv-x="682" 
 />
    <glyph glyph-name="CR" unicode="&#xd;" horiz-adv-x="1228" 
 />
    <glyph glyph-name="space" unicode=" " horiz-adv-x="475" 
 />
    <glyph glyph-name="exclam" unicode="!" horiz-adv-x="561" 
d="M266 393l-102 975h237l-106 -975h-29zM281 -25q-56 0 -97 40t-41 98q0 55 41 95t97 40q61 0 99 -39t38 -96q0 -58 -40 -98t-97 -40z" />
    <glyph glyph-name="quotedbl" unicode="&#x22;" horiz-adv-x="645" 
d="M170 850l-74 518h183l-80 -518h-29zM442 850l-73 518h182l-80 -518h-29z" />
    <glyph glyph-name="numbersign" unicode="#" horiz-adv-x="1282" 
d="M1208 887h-241l-103 -365h262v-80h-284l-146 -518h-88l146 518h-373l-145 -518h-89l146 518h-221v80h243l103 365h-264v80h286l148 524h88l-148 -524h373l148 524h88l-148 -524h219v-80zM776 522l103 365h-373l-103 -365h373z" />
    <glyph glyph-name="dollar" unicode="$" horiz-adv-x="1210" 
d="M1122 375q0 -179 -128 -287.5t-345 -116.5v-211h-67v211q-185 9 -318 95t-174 231l201 57q26 -126 105 -211.5t186 -107.5v563q-170 64 -230 97q-160 86 -200 218q-15 49 -15 107q0 163 121.5 266.5t323.5 110.5v190h67v-190q165 -9 292.5 -88.5t172.5 -212.5l-201 -58
q-29 115 -100.5 193t-163.5 100v-510q11 -4 34 -13q61 -23 92.5 -35.5t86 -38.5t84.5 -46.5t68.5 -55t58.5 -69.5t34.5 -83.5t14.5 -104.5zM332 1116q0 -50 18.5 -91.5t55.5 -73.5t77.5 -55t98.5 -48v491q-111 0 -180.5 -62t-69.5 -161zM649 29q118 1 190 69t72 176
q0 58 -19.5 105t-59 82t-81.5 59.5t-102 50.5v-542z" />
    <glyph glyph-name="percent" unicode="%" horiz-adv-x="1376" 
d="M338 752q-124 0 -199.5 88t-75.5 233q0 147 74.5 235.5t200.5 88.5q123 0 197.5 -89.5t74.5 -234.5q0 -143 -75 -232t-197 -89zM281 0l753 1368h62l-754 -1368h-61zM350 797q42 0 71.5 63.5t29.5 177.5q0 140 -37.5 227t-89.5 87q-44 0 -72.5 -64t-28.5 -180
q0 -140 36 -225.5t91 -85.5zM1040 -31q-124 0 -198 89t-74 235q0 145 74 233t198 88q123 0 198 -89t75 -232t-75.5 -233.5t-197.5 -90.5zM1053 14q43 0 71.5 63.5t28.5 180.5q0 138 -37.5 224.5t-89.5 86.5q-44 0 -72 -62.5t-28 -178.5q0 -142 36 -228t91 -86z" />
    <glyph glyph-name="ampersand" unicode="&#x26;" horiz-adv-x="1419" 
d="M1417 96l6 -28l-288 -99h-29l-172 191q-80 -91 -185.5 -141t-220.5 -50q-200 0 -323 104t-123 273q0 143 90 246.5t244 142.5q-80 87 -125 170t-45 176q0 141 102 229.5t275 88.5q168 0 269 -81.5t101 -203.5q0 -102 -84.5 -186.5t-251.5 -132.5l373 -416q88 152 88 409
l193 -18q-33 -120 -96.5 -234.5t-139.5 -205.5l148 -164q42 -50 86.5 -65.5t107.5 -4.5zM610 1341q-67 0 -110 -51t-43 -135q0 -49 12 -92t38.5 -85t51 -71.5t66.5 -75.5q168 100 168 277q0 99 -50 166t-133 67zM616 80q150 0 277 127l-440 487q-74 -47 -114 -121.5
t-40 -164.5q0 -143 84.5 -235.5t232.5 -92.5z" />
    <glyph glyph-name="quotesingle" unicode="'" horiz-adv-x="372" 
d="M170 850l-74 518h183l-80 -518h-29z" />
    <glyph glyph-name="parenleft" unicode="(" horiz-adv-x="698" 
d="M618 -436q-102 65 -195.5 162.5t-172 223.5t-125.5 286t-47 327t47 326.5t125.5 285.5t172 223.5t195.5 162.5l23 -19q-165 -160 -256.5 -409t-91.5 -570t92 -571t256 -408z" />
    <glyph glyph-name="parenright" unicode=")" horiz-adv-x="698" 
d="M80 -436l-23 20q164 158 256.5 408.5t92.5 570.5q0 321 -92 570t-257 409l23 19q102 -65 195.5 -162.5t172.5 -223.5t126 -285.5t47 -326.5q0 -135 -31 -266t-83.5 -239t-123 -204t-146.5 -167.5t-157 -122.5z" />
    <glyph glyph-name="asterisk" unicode="*" horiz-adv-x="845" 
d="M258 770l-131 102l262 234l-332 43l49 154l300 -164l-68 327h176l-74 -327l297 164l51 -154l-333 -43l264 -234l-131 -102l-164 313z" />
    <glyph glyph-name="plus" unicode="+" horiz-adv-x="991" 
d="M922 688v-70h-390v-391h-69v391h-393v70h393v391h69v-391h390z" />
    <glyph glyph-name="comma" unicode="," horiz-adv-x="491" 
d="M104 -242v29q79 17 136.5 73t60.5 142q-36 -22 -78 -22q-56 0 -89.5 35.5t-33.5 95.5q0 58 41.5 97.5t100.5 39.5q68 0 108.5 -46.5t40.5 -125.5q0 -129 -77.5 -217.5t-209.5 -100.5z" />
    <glyph glyph-name="hyphen" unicode="-" horiz-adv-x="626" 
d="M57 543v92h512v-92h-512z" />
    <glyph glyph-name="period" unicode="." horiz-adv-x="475" 
d="M238 -25q-57 0 -97.5 40t-40.5 98q0 56 40.5 95.5t97.5 39.5q60 0 98.5 -39t38.5 -96q0 -58 -40 -98t-97 -40z" />
    <glyph glyph-name="slash" unicode="/" horiz-adv-x="753" 
d="M49 -92l565 1497h91l-566 -1497h-90z" />
    <glyph glyph-name="zero" unicode="0" horiz-adv-x="1286" 
d="M645 -31q-133 0 -239.5 56.5t-173.5 154.5t-102.5 227t-35.5 277t35.5 277t102.5 227t173.5 154.5t239.5 56.5q131 0 236 -56.5t172.5 -154.5t103 -227t35.5 -277t-35.5 -277t-103 -227t-172.5 -154.5t-236 -56.5zM674 27q121 0 201.5 163.5t80.5 411.5q0 124 -19.5 248
t-59 237t-109 183.5t-158.5 70.5q-123 0 -201.5 -162.5t-78.5 -410.5q0 -104 11.5 -205.5t37.5 -199.5t64.5 -171.5t98 -119t132.5 -45.5z" />
    <glyph glyph-name="one" unicode="1" horiz-adv-x="833" 
d="M117 0v29q128 8 175.5 36.5t47.5 110.5v977h-223v29q143 36 240 81.5t178 116.5h26v-1204q0 -80 41.5 -109.5t140.5 -37.5v-29h-626z" />
    <glyph glyph-name="two" unicode="2" horiz-adv-x="1095" 
d="M49 0v29l361 403q54 59 90.5 102t80.5 104.5t70.5 114t45 117t18.5 127.5q0 117 -72 188.5t-190 71.5q-107 0 -197.5 -63t-128.5 -180l-23 10q12 72 46 137t88 118.5t135 85.5t178 32q180 0 288.5 -102.5t108.5 -274.5q0 -62 -15 -121t-41.5 -111t-69.5 -107.5
t-90.5 -104t-114.5 -107t-131.5 -110.5t-149.5 -120l-72 -57h445q69 0 111 8t73 33t49 63t37 105h29l-58 -391h-901z" />
    <glyph glyph-name="three" unicode="3" horiz-adv-x="1097" 
d="M512 717q150 -2 263 -38.5t183 -118t70 -202.5q0 -179 -135.5 -283t-366.5 -104q-120 0 -219.5 34t-170 110.5t-87.5 185.5l223 64q15 -153 91 -244.5t190 -91.5q109 0 176.5 85.5t67.5 231.5q0 156 -110 249.5t-314 92.5v31q172 21 265 103.5t93 193.5q0 105 -72.5 173
t-185.5 68q-107 0 -199 -61t-129 -170l-24 8q12 68 46 131t88.5 116t136.5 84.5t179 31.5q181 0 286.5 -94t105.5 -234q0 -81 -35.5 -143t-100.5 -102.5t-141.5 -65.5t-173.5 -41z" />
    <glyph glyph-name="four" unicode="4" horiz-adv-x="1179" 
d="M461 0v29q124 8 169.5 36.5t45.5 110.5v209h-631v39l678 944h176v-922h229v-61h-229v-209q0 -80 41.5 -109.5t140.5 -37.5v-29h-620zM137 446h539v752z" />
    <glyph glyph-name="five" unicode="5" horiz-adv-x="1114" 
d="M520 -29q-120 0 -220 34.5t-171 111t-88 184.5l223 64q12 -154 93.5 -245t197.5 -91q119 0 187.5 91.5t68.5 250.5q0 174 -91 277.5t-249 103.5t-305 -103l-16 10l118 709h699v-194h-674l-74 -439q68 70 161 108t198 38q203 0 332.5 -125.5t129.5 -319.5
q0 -214 -138 -339.5t-382 -125.5z" />
    <glyph glyph-name="six" unicode="6" horiz-adv-x="1204" 
d="M696 879q184 0 305 -121.5t121 -321.5q0 -206 -134 -336.5t-361 -130.5q-255 0 -394 180.5t-139 512.5q0 159 34 287t89.5 210.5t130.5 137.5t153 78.5t161 23.5q154 0 279 -69.5t165 -194.5l-232 -76q-18 127 -88.5 204.5t-160.5 77.5q-130 0 -211.5 -167.5
t-81.5 -473.5q66 88 164.5 133.5t199.5 45.5zM647 27q115 0 179.5 103.5t64.5 258.5q0 177 -88 278t-221 101q-63 0 -132 -31t-118 -92q5 -124 26.5 -233t59 -196.5t96.5 -138t133 -50.5z" />
    <glyph glyph-name="seven" unicode="7" horiz-adv-x="1091" 
d="M330 0q-3 109 13 214.5t43 193.5t72.5 179t90 162t108.5 152.5t115 139.5t121 133h-514q-113 0 -170.5 -55.5t-91.5 -190.5h-29l59 440h928v-29q-97 -125 -171 -237.5t-140.5 -244t-107.5 -261t-64 -282t-19 -314.5h-243z" />
    <glyph glyph-name="eight" unicode="8" horiz-adv-x="1181" 
d="M735 776q63 -30 105 -53t92.5 -61.5t80 -78t50 -97t20.5 -124.5q0 -170 -129.5 -281.5t-357.5 -111.5t-362 96t-134 259q0 255 332 346q-63 32 -107 61.5t-86 72t-63.5 98.5t-21.5 124q0 159 118 266t318 107q195 0 316.5 -93.5t121.5 -230.5q0 -110 -77 -186.5
t-216 -112.5zM590 1341q-98 0 -159.5 -61.5t-61.5 -159.5q0 -41 10.5 -76.5t35 -65.5t48 -52t66 -46.5t71.5 -39.5t80 -39q74 45 101.5 107t27.5 157q0 122 -62 199t-157 77zM596 27q113 0 186.5 73.5t73.5 188.5q0 66 -23.5 117t-82.5 94t-96.5 63.5t-126.5 61.5
q-25 12 -38 18q-99 -57 -130 -129t-31 -182q0 -131 77 -218t191 -87z" />
    <glyph glyph-name="nine" unicode="9" horiz-adv-x="1204" 
d="M578 1399q255 0 393.5 -180t138.5 -512q0 -133 -23.5 -245t-65 -191t-95.5 -138.5t-119 -94.5t-130.5 -52t-133.5 -17q-154 0 -279.5 69.5t-163.5 194.5l230 76q18 -127 89 -204.5t161 -77.5q129 0 210.5 167.5t81.5 473.5q-64 -88 -162.5 -133.5t-201.5 -45.5
q-184 0 -305 121.5t-121 321.5q0 206 134.5 336.5t361.5 130.5zM623 600q62 0 131 31t118 92q-5 124 -26.5 233t-59 196.5t-96.5 138t-133 50.5q-115 0 -179.5 -103t-64.5 -257q0 -178 88.5 -279.5t221.5 -101.5z" />
    <glyph glyph-name="colon" unicode=":" horiz-adv-x="475" 
d="M238 780q-57 0 -97.5 40.5t-40.5 97.5t40.5 96t97.5 39q61 0 99 -38.5t38 -96.5q0 -57 -40 -97.5t-97 -40.5zM238 -25q-57 0 -97.5 40t-40.5 98q0 56 40.5 95.5t97.5 39.5q60 0 98.5 -39t38.5 -96q0 -58 -40 -98t-97 -40z" />
    <glyph glyph-name="semicolon" unicode=";" horiz-adv-x="491" 
d="M244 780q-56 0 -97 40.5t-41 97.5t41 97t97 40q62 0 99.5 -39.5t37.5 -97.5q0 -57 -40 -97.5t-97 -40.5zM104 -242v29q79 17 136.5 73t60.5 142q-36 -22 -78 -22q-56 0 -89.5 35.5t-33.5 95.5q0 58 41.5 97.5t100.5 39.5q68 0 108.5 -46.5t40.5 -125.5
q0 -129 -77.5 -217.5t-209.5 -100.5z" />
    <glyph glyph-name="less" unicode="&#x3c;" horiz-adv-x="901" 
d="M829 219l-766 389v97l766 387l29 -62l-743 -375l743 -374z" />
    <glyph glyph-name="equal" unicode="=" horiz-adv-x="991" 
d="M70 809v70h852v-70h-852zM70 477v68h852v-68h-852z" />
    <glyph glyph-name="greater" unicode="&#x3e;" horiz-adv-x="901" 
d="M72 219l-29 62l743 374l-743 375l29 62l766 -387v-97z" />
    <glyph glyph-name="question" unicode="?" horiz-adv-x="927" 
d="M406 391q-20 72 -16.5 124.5t26 105t53.5 93t66.5 88t65 90.5t49.5 99.5t20 116.5q0 105 -56.5 168t-146.5 63q-96 0 -164 -93t-80 -232l-207 53q21 136 143.5 233t303.5 97q196 0 311 -86t115 -236q0 -67 -26 -127.5t-67 -107t-90.5 -89.5t-98.5 -83.5t-89 -81.5
t-63.5 -91t-20.5 -104h-28zM434 -25q-57 0 -97 40t-40 98q0 56 40 95.5t97 39.5q61 0 99 -39t38 -96q0 -58 -40 -98t-97 -40z" />
    <glyph glyph-name="at" unicode="@" horiz-adv-x="1888" 
d="M936 -299q-203 0 -367.5 58.5t-275.5 164t-170.5 254t-59.5 326.5q0 194 70 360.5t195 284t304.5 184t391.5 66.5q368 0 584.5 -189t216.5 -497q0 -130 -43 -240t-115.5 -183t-169 -114t-203.5 -41q-141 0 -211 71.5t-41 194.5q-57 -140 -144 -202t-177 -62
q-113 0 -181.5 86.5t-68.5 233.5q0 121 47 233t122 191t170.5 126.5t190.5 47.5q162 0 209 -131l74 102h113l-178 -573q-20 -68 -17.5 -123.5t37 -91t94.5 -35.5q135 0 224.5 138t89.5 347q0 293 -175.5 473t-463.5 180q-163 0 -305.5 -62t-243 -171t-158 -262.5
t-57.5 -329.5q0 -344 204.5 -546.5t544.5 -202.5q298 0 533 155l24 -37q-105 -87 -265 -135.5t-349 -48.5zM784 238q77 0 146 79t110 195q89 249 99 292q6 29 6 50q0 60 -35.5 93.5t-95.5 33.5q-89 0 -172.5 -77t-135 -200.5t-51.5 -252.5q0 -103 34 -158t95 -55z" />
    <glyph glyph-name="A" unicode="A" horiz-adv-x="1552" 
d="M1319 203q41 -92 86.5 -128.5t130.5 -45.5v-29h-573v29q103 9 125 45.5t-19 128.5l-106 241h-574l-104 -241q-40 -92 -16 -128.5t130 -45.5v-29h-383v29q79 9 123.5 46t83.5 128l522 1196h33zM414 502h524l-266 602z" />
    <glyph glyph-name="B" unicode="B" horiz-adv-x="1374" 
d="M74 0v29q99 8 140.5 37.5t41.5 109.5v1016q0 79 -41.5 109t-140.5 38v29h612q232 0 366 -88t134 -240q0 -126 -89 -210.5t-243 -106.5q197 -19 311.5 -113.5t114.5 -236.5q0 -172 -133.5 -272.5t-362.5 -100.5h-710zM479 739h195q129 0 201.5 78.5t72.5 218.5
q0 128 -83 201.5t-230 73.5h-156v-572zM639 57h98q137 0 221 89t84 227q0 137 -96.5 223t-269.5 86h-197v-498q0 -127 160 -127z" />
    <glyph glyph-name="C" unicode="C" horiz-adv-x="1376" 
d="M741 -31q-189 0 -339.5 90.5t-233.5 246t-84 345.5q0 215 80.5 384t235 266.5t360.5 97.5q195 0 333.5 -81.5t182.5 -225.5l-211 -64q-29 144 -117.5 229.5t-210.5 85.5q-186 0 -303 -166t-117 -432q1 -177 67.5 -314.5t185 -212.5t268.5 -75q158 0 275 81t165 218l27 -6
q-47 -216 -199 -341.5t-365 -125.5z" />
    <glyph glyph-name="D" unicode="D" horiz-adv-x="1495" 
d="M676 1368q154 0 279.5 -34t211 -93t143.5 -140.5t84.5 -174t26.5 -195.5q0 -169 -61 -310t-162.5 -231.5t-228.5 -140t-264 -49.5h-631v29q99 8 140.5 37.5t41.5 109.5v1016q0 79 -41.5 109t-140.5 38v29h602zM705 57q220 0 349.5 167t129.5 460q0 94 -22.5 184t-68 170
t-109 141t-152.5 96.5t-191 35.5h-162v-1139q0 -67 48.5 -91t177.5 -24z" />
    <glyph glyph-name="E" unicode="E" horiz-adv-x="1318" 
d="M1188 375h29l-54 -375h-1089v29q99 8 140.5 37.5t41.5 109.5v1016q0 79 -41.5 109t-140.5 38v29h1067l53 -373h-29q-78 316 -362 316h-324v-580h230q107 0 145 45.5t43 151.5h29v-453h-29q-5 106 -43.5 152.5t-144.5 46.5h-230v-498q0 -119 101 -119h247q283 0 361 318z
" />
    <glyph glyph-name="F" unicode="F" horiz-adv-x="1247" 
d="M1141 1368l51 -373h-29q-75 316 -360 316h-324v-580h230q55 0 91 11.5t56 38.5t28.5 60.5t10.5 86.5h29v-453h-29q-2 53 -10.5 87t-28.5 61t-56 39t-91 12h-230v-488q0 -90 49.5 -119.5t192.5 -37.5v-29h-647v29q99 8 140.5 37.5t41.5 109.5v1016q0 79 -41.5 109
t-140.5 38v29h1067z" />
    <glyph glyph-name="G" unicode="G" horiz-adv-x="1540" 
d="M766 -31q-149 0 -277 53t-216 145t-138 217t-51 267q0 219 85.5 388.5t246.5 264.5t375 95q199 0 345.5 -83.5t190.5 -223.5l-211 -64q-31 141 -128 228t-226 87q-195 0 -318 -177.5t-120 -456.5q1 -188 67.5 -343t184 -245t262.5 -90q72 0 141.5 22t116.5 66v364
q0 86 -43.5 129.5t-151.5 49.5v28h604v-28q-186 -11 -186 -179v-258q-78 -112 -226 -184t-327 -72z" />
    <glyph glyph-name="H" unicode="H" horiz-adv-x="1634" 
d="M1561 1339q-99 -8 -141 -38t-42 -109v-1016q0 -80 41.5 -108.5t141.5 -38.5v-29h-588v29q101 10 141.5 38.5t40.5 108.5v496h-676v-496q0 -80 40 -108.5t140 -38.5v-29h-585v29q100 10 141 38.5t41 108.5v1016q0 79 -41.5 109t-140.5 38v29h585v-29q-98 -8 -139 -38
t-41 -109v-463h676v463q0 79 -41 109t-141 38v29h588v-29z" />
    <glyph glyph-name="I" unicode="I" 
d="M74 0v29q100 10 141 38.5t41 108.5v1016q0 79 -41.5 109t-140.5 38v29h585v-29q-98 -8 -139 -38t-41 -109v-1016q0 -80 40 -108.5t140 -38.5v-29h-585z" />
    <glyph glyph-name="J" unicode="J" horiz-adv-x="1116" 
d="M1061 1368v-29q-100 -5 -140 -37.5t-40 -117.5v-801q0 -202 -113.5 -308t-318.5 -106q-179 0 -290.5 86t-135.5 228l235 63q7 -147 63.5 -233t143.5 -86q89 0 141.5 77t52.5 222v858q0 86 -40 118t-142 37v29h584z" />
    <glyph glyph-name="K" unicode="K" horiz-adv-x="1550" 
d="M1294 178q42 -62 106 -103.5t130 -45.5v-29h-414q-7 51 -67 139l-402 582l-168 -158v-387q0 -80 40 -108.5t140 -38.5v-29h-585v29q100 10 141 38.5t41 108.5v1016q0 79 -41.5 109t-140.5 38v29h585v-29q-98 -8 -139 -38t-41 -109v-551l615 578q66 61 43 90t-140 30v29
h433v-29q-129 -6 -263 -131l-358 -336z" />
    <glyph glyph-name="L" unicode="L" horiz-adv-x="1212" 
d="M1133 375h28l-51 -375h-1036v29q102 9 142 40.5t40 106.5v1016q0 75 -40 106.5t-142 40.5v29h585v-29q-100 -9 -140 -40.5t-40 -106.5v-1016q0 -119 101 -119h192q287 0 361 318z" />
    <glyph glyph-name="M" unicode="M" horiz-adv-x="1916" 
d="M1843 1368v-29q-105 -6 -144.5 -41t-39.5 -122v-1010q0 -66 40.5 -95.5t143.5 -41.5v-29h-590v29q102 11 142.5 41t40.5 96v948l-539 -1114h-53l-529 1137v-971q0 -65 41 -95t144 -42v-29h-426v29q102 11 143 41t41 96v1010q0 87 -39.5 122t-144.5 41v29h379l510 -1100
l532 1100h348z" />
    <glyph glyph-name="N" unicode="N" horiz-adv-x="1531" 
d="M1001 1368h459v-29q-105 -8 -143.5 -44t-38.5 -130v-1196h-57l-889 1190v-956q0 -94 46 -129.5t173 -44.5v-29h-459v29q104 9 143 45t39 129v1026q-47 54 -92 80t-108 30v29h381l766 -1032v829q0 93 -48 129.5t-172 44.5v29z" />
    <glyph glyph-name="O" unicode="O" horiz-adv-x="1558" 
d="M780 -31q-158 0 -290 53.5t-220.5 146.5t-137 218t-48.5 268q0 216 91 386t252 264t364 94q158 0 290 -53.5t219.5 -146.5t136 -218t48.5 -268q0 -216 -90.5 -386t-251 -264t-363.5 -94zM821 27q193 0 309.5 173t116.5 447q1 191 -60.5 349t-176.5 251.5t-260 93.5
q-194 1 -310 -171t-118 -449q0 -191 63 -349.5t178 -251.5t258 -93z" />
    <glyph glyph-name="P" unicode="P" horiz-adv-x="1277" 
d="M674 1368q253 0 399 -98t146 -287q0 -186 -146 -283.5t-399 -97.5h-195v-426q0 -80 40.5 -109.5t139.5 -37.5v-29h-585v29q99 8 140.5 37.5t41.5 109.5v1016q0 79 -41.5 109t-140.5 38v29h600zM643 659q162 0 250 88t88 236q0 149 -88.5 238.5t-249.5 89.5h-162l-2 -652
h164z" />
    <glyph glyph-name="Q" unicode="Q" horiz-adv-x="1558" 
d="M827 -29q28 -81 84 -135.5t118.5 -78t135 -31t129 -2t105.5 17.5l-39 -199q-70 -2 -135.5 7.5t-136 38.5t-127.5 75t-104.5 124.5t-72.5 180.5h-4q-158 0 -290 53.5t-220.5 146.5t-137 218t-48.5 268q0 216 91 386t252 264t364 94q158 0 290 -53.5t219.5 -146.5t136 -218
t48.5 -268q0 -156 -49 -290.5t-135.5 -230.5t-208.5 -154t-265 -67zM322 721q0 -191 63 -349.5t178 -251.5t258 -93q193 0 309.5 173t116.5 447q1 191 -60.5 349t-176.5 251.5t-260 93.5q-194 1 -310 -171t-118 -449z" />
    <glyph glyph-name="R" unicode="R" horiz-adv-x="1443" 
d="M1214 152q35 -50 94.5 -84t118.5 -39v-29h-395q-8 36 -57 109l-346 493h-150v-426q0 -80 40.5 -109.5t139.5 -37.5v-29h-585v29q99 8 140.5 37.5t41.5 109.5v1016q0 79 -41.5 109t-140.5 38v29h600q253 0 399 -98t146 -287q0 -146 -90.5 -236.5t-254.5 -125.5zM481 1311
l-2 -652h164q162 0 250 88t88 236q0 149 -88.5 238.5t-249.5 89.5h-162z" />
    <glyph glyph-name="S" unicode="S" horiz-adv-x="1210" 
d="M618 -29q-197 0 -341.5 86.5t-186.5 239.5l201 57q31 -146 128.5 -235.5t225.5 -89.5q120 0 193 68t73 177q0 66 -26.5 118t-71.5 87t-103 63.5t-122 52.5t-128 49.5t-122 58.5t-103 74.5t-71.5 103t-26.5 139.5q0 170 129.5 273.5t345.5 103.5q176 0 315 -80t187 -221
l-201 -58q-33 136 -125 218.5t-204 82.5q-113 0 -182.5 -61.5t-69.5 -161.5q0 -54 22 -98t60 -74.5t88.5 -58.5t107.5 -48.5t117 -45t117 -48.5t107.5 -59.5t88.5 -76.5t60 -100.5t22 -131.5q0 -186 -136.5 -295t-367.5 -109z" />
    <glyph glyph-name="T" unicode="T" horiz-adv-x="1357" 
d="M1253 1368l52 -373h-29q-75 316 -361 316h-124v-1135q0 -75 40 -106.5t142 -40.5v-29h-588v29q102 9 142 40.5t40 106.5v1135h-125q-285 0 -360 -316h-29l51 373h1149z" />
    <glyph glyph-name="U" unicode="U" horiz-adv-x="1515" 
d="M1047 1368h421v-29q-100 -8 -141 -38t-41 -109v-705q0 -235 -134.5 -375.5t-360.5 -140.5q-261 0 -411.5 138.5t-150.5 377.5v705q0 79 -41 109t-141 38v29h588v-29q-100 -8 -141 -38t-41 -109v-705q0 -192 109 -303.5t298 -111.5q169 0 269 113t100 302v705
q0 79 -41.5 109t-140.5 38v29z" />
    <glyph glyph-name="V" unicode="V" horiz-adv-x="1548" 
d="M772 -31l-541 1196q-41 93 -87 130t-130 44v29h574v-29q-104 -7 -126.5 -44.5t19.5 -129.5l396 -901l387 901q40 92 16 129.5t-129 44.5v29h383v-29q-80 -9 -123.5 -45.5t-83.5 -128.5l-524 -1196h-31z" />
    <glyph glyph-name="W" unicode="W" horiz-adv-x="2095" 
d="M1716 1368h363v-29q-78 -14 -116.5 -47.5t-72.5 -126.5l-442 -1196h-31l-368 977l-357 -977h-28l-451 1196q-15 42 -28 67t-35 50.5t-54.5 39t-79.5 17.5v29h498v-29q-87 -10 -101.5 -51.5t19.5 -122.5l320 -876l266 739l-51 137q-31 86 -72 126.5t-125 47.5v29h498v-29
q-86 -10 -100.5 -51.5t20.5 -122.5l319 -880l322 880q12 34 17 54t4 44t-14.5 37.5t-43 24t-76.5 14.5v29z" />
    <glyph glyph-name="X" unicode="X" horiz-adv-x="1462" 
d="M1210 203q61 -92 109 -128.5t117 -45.5v-29h-553v29q99 8 112 44t-51 130l-274 403l-299 -403q-70 -92 -59 -129.5t112 -44.5v-29h-397v29q88 9 145.5 45.5t126.5 128.5l338 450l-350 512q-61 92 -109 128.5t-119 45.5v29h555v-29q-100 -7 -113 -43.5t50 -130.5l240 -348
l258 348q69 94 58 130.5t-112 43.5v29h398v-29q-88 -9 -146.5 -45.5t-126.5 -128.5l-299 -395z" />
    <glyph glyph-name="Y" unicode="Y" horiz-adv-x="1335" 
d="M377 0v29q95 8 134.5 38t39.5 109v457l-334 532q-57 92 -100.5 128.5t-108.5 45.5v29h541v-29q-102 -7 -117.5 -43.5t41.5 -130.5l283 -452l280 452q57 94 35 130t-141 44v29h397v-29q-73 -9 -119.5 -45t-103.5 -129l-332 -532v-457q0 -79 40.5 -109t135.5 -38v-29h-571z
" />
    <glyph glyph-name="Z" unicode="Z" horiz-adv-x="1245" 
d="M1151 375h29l-54 -375h-1063v29l830 1282h-383q-285 0 -360 -316h-29l51 373h1004v-29l-832 -1282h447q282 0 360 318z" />
    <glyph glyph-name="bracketleft" unicode="[" horiz-adv-x="546" 
d="M135 -383v1933h381v-57h-201v-1819h201v-57h-381z" />
    <glyph glyph-name="backslash" unicode="\" horiz-adv-x="708" 
d="M672 -92h-90l-566 1497h90z" />
    <glyph glyph-name="bracketright" unicode="]" horiz-adv-x="546" 
d="M412 -383h-381v57h200v1819h-200v57h381v-1933z" />
    <glyph glyph-name="asciicircum" unicode="^" horiz-adv-x="860" 
d="M47 893l354 528h60l352 -528h-86l-297 455l-297 -455h-86z" />
    <glyph glyph-name="underscore" unicode="_" horiz-adv-x="804" 
d="M57 -86v70h691v-70h-691z" />
    <glyph glyph-name="grave" unicode="`" horiz-adv-x="565" 
d="M463 1163h-29l-332 338h226z" />
    <glyph glyph-name="a" unicode="a" horiz-adv-x="1083" 
d="M1030 94l43 -2v-29l-332 -94h-28v260q-41 -121 -133.5 -190.5t-212.5 -69.5q-122 0 -198.5 74.5t-76.5 192.5q0 151 109 231.5t368 128.5l144 29v73q0 142 -60 224t-164 82q-57 0 -101.5 -28.5t-65 -73.5t-23 -99.5t24.5 -106.5l-187 -61q-31 67 -30 129t35.5 116.5
t89.5 94.5t132.5 63t163.5 23q184 0 289 -100t105 -271v-487q0 -54 26 -79t82 -30zM713 289v276l-135 -28q-138 -27 -205.5 -85.5t-67.5 -158.5q0 -83 49 -137t125 -54q71 0 135.5 51.5t98.5 135.5z" />
    <glyph glyph-name="b" unicode="b" horiz-adv-x="1208" 
d="M707 1061q126 0 222.5 -70t145.5 -185.5t49 -256.5q0 -137 -38.5 -248.5t-105 -183t-154 -110t-187.5 -38.5q-175 0 -279 135l-151 -135h-29v1250q0 53 -25.5 78t-82.5 30l-43 2v29l331 94h29v-631q39 103 124 171.5t194 68.5zM643 43q74 0 134.5 57.5t94 156t33.5 216.5
q0 68 -10 133t-32 126t-54.5 107t-80 73.5t-105.5 27.5q-70 0 -138.5 -56t-95.5 -130v-392q0 -87 26 -157t85 -116t143 -46z" />
    <glyph glyph-name="c" unicode="c" horiz-adv-x="1046" 
d="M565 -29q-145 0 -255.5 72t-168 193.5t-57.5 271.5q0 155 58 279.5t173 199t269 74.5q106 0 191.5 -41t130 -96.5t55.5 -114.5l-191 -57q-10 66 -33.5 120t-70.5 93t-109 39q-118 0 -192 -115t-74 -287q0 -212 99.5 -337.5t266.5 -125.5q92 0 174 47.5t134 139.5l24 -7
q-37 -161 -149 -254.5t-275 -93.5z" />
    <glyph glyph-name="d" unicode="d" horiz-adv-x="1183" 
d="M502 -31q-189 0 -303.5 148t-114.5 364q0 137 38 249t103 183t149 109.5t177 38.5q86 0 156 -34t112 -93v285q0 53 -26.5 78t-81.5 30l-43 2v29l331 94h29v-1249q0 -54 26.5 -79t82.5 -30l43 -2v-29l-332 -94h-29v240q-40 -108 -127 -174t-190 -66zM584 100
q78 0 142.5 49.5t92.5 129.5v389q0 87 -26.5 158t-85.5 117t-142 46q-74 0 -134.5 -57.5t-94 -156t-33.5 -216.5q0 -86 16.5 -165t49 -146t88 -107.5t127.5 -40.5z" />
    <glyph glyph-name="e" unicode="e" horiz-adv-x="1073" 
d="M965 307l24 -10q-35 -142 -147.5 -234t-276.5 -92q-148 0 -259 71.5t-166.5 189t-55.5 262.5q0 254 137 410.5t361 156.5q195 0 300 -123t105 -328h-694q-2 -10 -2 -28q-7 -206 98 -325.5t281 -119.5q99 0 173.5 47t121.5 123zM551 1004q-101 0 -167.5 -93.5
t-86.5 -242.5h473q-2 84 -27 159t-75.5 126t-116.5 51z" />
    <glyph glyph-name="f" unicode="f" horiz-adv-x="745" 
d="M598 1425q-83 0 -124.5 -80.5t-41.5 -211.5v-103h285v-57h-285v-819q0 -63 42.5 -87.5t152.5 -37.5v-29h-543v29q73 14 107 39t34 86v819h-172v57h172v43q0 102 31.5 182t87 129t127 74t154.5 25q96 0 167.5 -29t102.5 -90l-162 -113q-11 74 -48 124t-87 50z" />
    <glyph glyph-name="g" unicode="g" horiz-adv-x="1097" 
d="M731 158q151 -11 237.5 -75.5t86.5 -184.5q0 -149 -155.5 -240.5t-399.5 -91.5q-207 0 -332 67t-125 172q0 94 60.5 153.5t148.5 82.5q-56 28 -83.5 70.5t-27.5 89.5q0 61 39 117t109 92q-82 47 -130 121t-48 171q0 156 117.5 257.5t308.5 101.5q99 0 184 -31h321v-57
h-215q136 -102 136 -271q0 -153 -118 -253.5t-308 -100.5q-123 0 -224 49q-55 -52 -55 -108q0 -36 40.5 -70.5t107.5 -38.5zM522 1001q-86 0 -140 -73.5t-54 -190.5q0 -146 62.5 -237.5t160.5 -91.5q86 0 140 73t54 191q0 144 -62 236.5t-161 92.5zM569 -381q149 0 250 55.5
t101 141.5q0 140 -222 161l-292 25q-58 5 -117 23q-76 -76 -76 -148q0 -119 100.5 -188.5t255.5 -69.5z" />
    <glyph glyph-name="h" unicode="h" horiz-adv-x="1218" 
d="M1061 154q0 -61 30.5 -86t96.5 -39v-29h-463v29q66 14 96.5 39t30.5 86v573q0 91 -46.5 143t-129.5 52q-69 0 -131 -33.5t-131 -108.5v-626q0 -61 31 -86t96 -39v-29h-463v29q66 14 97.5 39t31.5 86v1065q0 52 -26.5 77.5t-82.5 30.5l-45 2v29l332 94h29v-618
q87 111 171 169t185 58q140 0 215.5 -85t75.5 -237v-585z" />
    <glyph glyph-name="i" unicode="i" horiz-adv-x="606" 
d="M311 1188q-64 0 -106.5 40.5t-42.5 100.5q0 59 42.5 99t106.5 40q61 0 102.5 -40t41.5 -99q0 -60 -41.5 -100.5t-102.5 -40.5zM428 154q0 -61 30.5 -86t96.5 -39v-29h-463v29q66 14 96.5 39t30.5 86v675q0 52 -26 78.5t-82 32.5h-43v29l331 94h29v-909z" />
    <glyph glyph-name="j" unicode="j" horiz-adv-x="567" 
d="M301 1190q-63 0 -105 40.5t-42 100.5q0 59 42 99t105 40q61 0 102 -40t41 -99q0 -60 -41 -100.5t-102 -40.5zM57 969l330 94h29v-911q0 -110 -18 -193t-62 -158t-123.5 -132.5t-198.5 -102.5l-12 22q70 52 111.5 105t68.5 149t27 234v753q0 52 -26.5 78.5t-82.5 32.5h-43
v29z" />
    <glyph glyph-name="k" unicode="k" horiz-adv-x="1232" 
d="M1022 137q30 -51 72.5 -76.5t122.5 -31.5v-29h-367q-4 41 -47 113l-264 448l-125 -115v-292q0 -61 31 -86t96 -39v-29h-463v29q66 14 97.5 39t31.5 86v1065q0 52 -26.5 77.5t-82.5 30.5l-45 2v29l332 94h29v-926l405 369q56 51 41.5 78.5t-100.5 27.5v29h379v-29
q-69 0 -124 -28t-151 -115l-170 -156z" />
    <glyph glyph-name="l" unicode="l" horiz-adv-x="595" 
d="M414 154q0 -61 31 -86t96 -39v-29h-463v29q66 14 97.5 39t31.5 86v1065q0 52 -26.5 77.5t-82.5 30.5l-45 2v29l332 94h29v-1298z" />
    <glyph glyph-name="m" unicode="m" horiz-adv-x="1869" 
d="M1712 154q0 -61 31 -86t96 -39v-29h-461v29q65 14 96 39t31 86v573q0 91 -47 143t-129 52q-72 0 -135 -35t-135 -113q2 -10 2 -35v-585q0 -61 30.5 -86t96.5 -39v-29h-463v29q66 14 96.5 39t30.5 86v573q0 91 -46.5 143t-129.5 52q-66 0 -125 -30t-123 -97v-641
q0 -61 30.5 -86t96.5 -39v-29h-463v29q66 14 96.5 39t30.5 86v675q0 52 -26 78.5t-82 32.5h-43v29l331 94h29v-211q83 102 165 155.5t177 53.5q120 0 193 -62.5t92 -179.5q93 120 178 181t190 61q138 0 213.5 -85t75.5 -237v-585z" />
    <glyph glyph-name="n" unicode="n" horiz-adv-x="1234" 
d="M1079 154q0 -61 30.5 -86t96.5 -39v-29h-463v29q66 14 96.5 39t30.5 86v573q0 91 -46.5 143t-129.5 52q-72 0 -133.5 -34t-132.5 -112v-622q0 -61 30.5 -86t96.5 -39v-29h-463v29q66 14 96.5 39t30.5 86v675q0 100 -108 109l-43 2v29l331 92h29v-234q91 116 174.5 175
t185.5 59q140 0 215.5 -85t75.5 -237v-585z" />
    <glyph glyph-name="o" unicode="o" horiz-adv-x="1161" 
d="M571 -29q-217 0 -352 145.5t-135 377.5q0 252 141 409.5t365 157.5q217 0 352 -145.5t135 -378.5q0 -252 -141 -409t-365 -157zM608 29q117 0 184.5 115.5t67.5 304.5q0 99 -18.5 194.5t-54 177.5t-96 132.5t-136.5 50.5q-117 0 -184.5 -115.5t-67.5 -302.5
q0 -101 18.5 -196.5t54 -178t96 -132.5t136.5 -50z" />
    <glyph glyph-name="p" unicode="p" horiz-adv-x="1247" 
d="M743 1061q127 0 224 -70t146.5 -185.5t49.5 -256.5q0 -136 -38.5 -248t-103.5 -183.5t-149 -110t-178 -38.5q-85 0 -154.5 34t-111.5 93v-346q0 -63 41.5 -87.5t151.5 -37.5v-28h-543v28q73 14 107 39t34 86v1079q0 100 -108 109l-43 2v29l331 92h29v-238q41 108 127 173
t188 65zM680 43q113 0 188.5 125t75.5 305q0 85 -16.5 164t-49.5 146t-88.5 107t-127.5 40q-78 0 -142 -48t-92 -128v-392q0 -135 64.5 -227t187.5 -92z" />
    <glyph glyph-name="q" unicode="q" horiz-adv-x="1187" 
d="M1028 -250q0 -62 33.5 -88t107.5 -39v-29h-542v29q109 13 150.5 38t41.5 89v459q-41 -104 -126 -173t-195 -69q-124 0 -220 70.5t-145 187t-49 256.5q0 137 38.5 248.5t105 183t154 110t187.5 38.5q174 0 283 -131l147 131h29v-1311zM584 100q73 0 141.5 52.5t93.5 123.5
v426q0 116 -66 200.5t-188 84.5q-74 0 -134.5 -57.5t-94 -156t-33.5 -216.5q0 -85 16.5 -164t49 -146t88 -107t127.5 -40z" />
    <glyph glyph-name="r" unicode="r" horiz-adv-x="841" 
d="M729 1061q45 0 84 -19l-12 -194q-44 31 -119 31q-73 0 -141.5 -45t-112.5 -129v-551q0 -63 41.5 -87.5t151.5 -37.5v-29h-543v29q73 14 107 39t34 86v675q0 100 -108 109l-43 2v29l331 92h29v-291q54 140 131.5 215.5t169.5 75.5z" />
    <glyph glyph-name="s" unicode="s" horiz-adv-x="970" 
d="M504 -29q-147 0 -264 65.5t-164 168.5l168 84q25 -116 101 -188t173 -72q91 0 149 48.5t58 127.5q-1 62 -35 106.5t-87.5 70.5t-118 47.5t-129 46t-118 56.5t-87.5 88.5t-35 133.5q-2 136 102 221.5t275 85.5q135 0 239.5 -55t140.5 -150l-155 -76q-31 101 -98 162.5
t-148 61.5q-85 0 -137.5 -45t-52.5 -117q0 -55 33.5 -94.5t87 -64t118.5 -45.5t130 -46.5t119.5 -60t89 -93.5t36.5 -139q1 -145 -109 -236.5t-282 -91.5z" />
    <glyph glyph-name="t" unicode="t" horiz-adv-x="722" 
d="M670 129l16 -12q-33 -59 -95.5 -103.5t-162.5 -44.5q-119 0 -188.5 75.5t-69.5 209.5v719h-113v28l293 273h29v-244h301v-57h-301v-711q0 -85 42 -135.5t118 -50.5q32 0 58.5 9t40 18t32.5 26z" />
    <glyph glyph-name="u" unicode="u" horiz-adv-x="1214" 
d="M1147 94l43 -2v-29l-330 -94h-29v234q-91 -116 -174.5 -175t-185.5 -59q-140 0 -215.5 85t-75.5 237v538q0 52 -26 78.5t-82 32.5h-45v29l331 94h29v-760q0 -91 47 -142.5t129 -51.5q72 0 135 33.5t133 111.5v575q0 52 -26.5 78.5t-83.5 32.5h-43v29l332 94h28v-860
q0 -54 27 -79t82 -30z" />
    <glyph glyph-name="v" unicode="v" horiz-adv-x="1114" 
d="M549 -31l-399 918q-28 61 -59 86t-83 28v29h484v-29q-74 -2 -104 -32t-7 -82l264 -637l262 637q22 51 -4 81t-94 33v29h299v-29q-51 -3 -81 -28t-56 -86l-393 -918h-29z" />
    <glyph glyph-name="w" unicode="w" horiz-adv-x="1683" 
d="M1391 1030h284v-29q-47 -3 -75 -27.5t-54 -86.5l-377 -918h-26l-295 711l-295 -711h-29l-381 918q-26 58 -55 84t-80 30v29h467v-29q-68 -2 -96.5 -32t-7.5 -82l250 -623l194 496l-53 127q-24 58 -53 84t-84 30v29h469v-29q-70 -2 -98.5 -32t-6.5 -82l248 -623l246 623
q20 50 -4.5 80.5t-87.5 33.5v29z" />
    <glyph glyph-name="x" unicode="x" horiz-adv-x="1146" 
d="M965 145q42 -60 74.5 -84.5t84.5 -31.5v-29h-481v29q60 6 76 35.5t-17 80.5l-202 295l-232 -295q-39 -50 -20 -80t88 -36v-29h-313v29q49 8 88 32.5t86 83.5l270 342l-274 400q-38 56 -71 79.5t-87 34.5v29h475v-29q-59 -6 -74.5 -35t17.5 -79l170 -246l192 246
q37 50 19 79t-86 35v29h313v-29q-48 -6 -87 -31t-87 -83l-232 -295z" />
    <glyph glyph-name="y" unicode="y" horiz-adv-x="1103" 
d="M819 1030h299v-29q-52 -3 -82 -27.5t-57 -86.5l-412 -965q-77 -179 -171 -267.5t-228 -88.5q-82 0 -160 31l68 213q100 -74 194 -74q160 0 240 196l31 74l-381 881q-29 62 -59.5 86.5t-80.5 27.5v29h480v-29q-74 -3 -104 -32.5t-7 -81.5l262 -625l267 625q23 53 -3 82
t-96 32v29z" />
    <glyph glyph-name="z" unicode="z" horiz-adv-x="993" 
d="M932 1030v-29l-625 -944h342q182 0 252 291h29l-41 -348h-834v29l625 944h-313q-87 0 -148.5 -60.5t-103.5 -197.5h-29l27 315h819z" />
    <glyph glyph-name="braceleft" unicode="{" horiz-adv-x="651" 
d="M602 -397q-183 2 -289 81t-106 244v383q0 127 -37.5 182t-134.5 74v29q97 20 134.5 76.5t37.5 183.5v391q0 164 105.5 240t289.5 78v-29q-104 -15 -159.5 -79.5t-55.5 -201.5v-397q0 -122 -58 -188t-179 -86q121 -20 179 -86t58 -189v-389q0 -139 56 -207t159 -82v-28z
" />
    <glyph glyph-name="bar" unicode="|" horiz-adv-x="329" 
d="M129 -434v2048h72v-2048h-72z" />
    <glyph glyph-name="braceright" unicode="}" horiz-adv-x="651" 
d="M49 -397v28q103 14 158 82t55 207v389q0 123 59 188.5t181 86.5q-122 21 -181 87t-59 187v397q0 137 -54.5 202t-158.5 79v29q184 -2 289.5 -78t105.5 -240v-391q0 -127 37.5 -183.5t134.5 -76.5v-29q-97 -19 -134.5 -74t-37.5 -182v-383q0 -165 -106 -244t-289 -81z" />
    <glyph glyph-name="asciitilde" unicode="~" horiz-adv-x="778" 
d="M518 571q-48 0 -104 27.5t-109.5 54.5t-93.5 27q-82 0 -113 -107l-28 2q10 115 60 177.5t130 62.5q43 0 101.5 -27t114 -54t91.5 -27q83 0 113 104l29 -2q-9 -112 -60 -175t-131 -63z" />
    <glyph glyph-name="uni00A0" unicode="&#xa0;" horiz-adv-x="409" 
 />
    <glyph glyph-name="exclamdown" unicode="&#xa1;" horiz-adv-x="561" 
d="M281 1040q57 0 97 -39.5t40 -97.5q0 -57 -38 -96t-99 -39q-56 0 -97 40t-41 95q0 58 41 97.5t97 39.5zM266 623h29l106 -975h-237z" />
    <glyph glyph-name="cent" unicode="&#xa2;" horiz-adv-x="1046" 
d="M989 319q-36 -154 -139.5 -246.5t-257.5 -101.5v-211h-66v213q-201 13 -321.5 164t-120.5 371q0 146 50.5 264.5t152 195.5t239.5 91v201h66v-199q153 -3 252.5 -81t116.5 -171l-191 -57q-10 66 -33.5 120t-70.5 93t-109 39q-118 0 -192 -115t-74 -287
q0 -212 99.5 -337.5t266.5 -125.5q92 0 174 47.5t134 139.5z" />
    <glyph glyph-name="sterling" unicode="&#xa3;" horiz-adv-x="1173" 
d="M1106 307l24 -6q-21 -157 -111.5 -243.5t-223.5 -86.5q-60 0 -123.5 17.5t-109 38t-106.5 38t-116 17.5q-115 0 -260 -82l-21 27q141 153 200.5 271t59.5 224q0 71 -26 144h-240v67h213q-26 65 -36.5 91.5t-23.5 81.5t-13 102q0 177 122 283t318 106q148 0 270 -75
t172 -226l-211 -64q-29 144 -98.5 225.5t-157.5 81.5q-93 0 -157 -62t-64 -171q0 -57 19.5 -119t51 -135t44.5 -119h448v-67h-436q4 -32 4 -50q0 -118 -56.5 -222t-193.5 -226q137 70 242 70q59 0 121 -22t120 -44t109 -22q89 0 153 42.5t93 114.5z" />
    <glyph glyph-name="currency" unicode="&#xa4;" horiz-adv-x="1159" 
d="M1051 510q0 -177 -113 -313l182 -183l-47 -47l-180 180q-135 -122 -313 -122q-180 0 -318 122l-174 -176l-49 47l178 179q-113 136 -113 313q0 173 111 313l-178 178l49 48l178 -177q136 123 316 123q177 0 313 -123l182 183l47 -47l-182 -183q111 -136 111 -315zM580 92
q164 0 282.5 122t118.5 296q0 173 -118 295.5t-283 122.5q-166 0 -286 -122.5t-120 -295.5t120 -295.5t286 -122.5z" />
    <glyph glyph-name="yen" unicode="&#xa5;" horiz-adv-x="1335" 
d="M930 1368h397v-29q-73 -9 -119.5 -45t-103.5 -129l-328 -524h354v-68h-358v-397q0 -79 40.5 -109t135.5 -38v-29h-571v29q95 8 134.5 38t39.5 109v397h-356v68h350l-328 524q-57 92 -100.5 128.5t-108.5 45.5v29h541v-29q-102 -7 -117.5 -43.5t41.5 -130.5l283 -452
l280 452q57 94 35 130t-141 44v29z" />
    <glyph glyph-name="brokenbar" unicode="&#xa6;" horiz-adv-x="329" 
d="M129 815v799h72v-799h-72zM201 365v-799h-72v799h72z" />
    <glyph glyph-name="section" unicode="&#xa7;" horiz-adv-x="964" 
d="M332 1176q0 -74 31 -150t80.5 -144t109.5 -139t119.5 -149t109 -160t80.5 -185t31 -212q0 -210 -123 -340.5t-319 -130.5q-132 0 -216 72.5t-104 181.5l225 45q8 -103 50 -170.5t104 -67.5q53 0 86 38.5t33 101.5q0 71 -31 147t-80.5 147t-109.5 147t-120.5 158.5
t-110 167t-80.5 187.5t-31 207q0 98 29 182.5t84 148.5t140 101t191 37q139 0 223.5 -72.5t100.5 -179.5l-226 -47q-7 108 -49.5 172.5t-103.5 64.5q-52 0 -87.5 -40t-35.5 -119zM682 -303q145 132 145 340q0 103 -31 201.5t-80.5 178.5t-109.5 157t-119.5 149.5t-109 142
t-80.5 148t-31 155.5q0 72 29 121q-75 -62 -119.5 -154t-44.5 -206q0 -96 30.5 -194t79.5 -181t108 -165t119 -159t109.5 -149.5t81 -149t33.5 -145.5q3 -53 -10 -90z" />
    <glyph glyph-name="dieresis" unicode="&#xa8;" horiz-adv-x="858" 
d="M244 1188q-62 0 -102 38.5t-40 96.5q0 57 40.5 96t101.5 39q60 0 99.5 -39t39.5 -96q0 -58 -39.5 -96.5t-99.5 -38.5zM629 1188q-62 0 -103 38.5t-41 96.5q0 57 41.5 96t102.5 39q60 0 99.5 -39t39.5 -96q0 -58 -39.5 -96.5t-99.5 -38.5z" />
    <glyph glyph-name="copyright" unicode="&#xa9;" horiz-adv-x="1630" 
d="M813 -29q-144 0 -275.5 57t-227 152.5t-152 227.5t-56.5 276t56.5 276t152 227.5t227 152.5t275.5 57q145 0 277 -57t228 -152.5t153 -227.5t57 -276t-57 -276t-153 -227.5t-228 -152.5t-277 -57zM813 27q178 0 330 88.5t241 240t89 328.5t-89 328.5t-241 240t-330 88.5
q-133 0 -254 -52.5t-209 -140.5t-140 -209.5t-52 -254.5t52 -254.5t140 -209.5t209 -140.5t254 -52.5zM823 252q-178 0 -287.5 119t-109.5 313q0 195 110 314.5t287 119.5q131 0 218 -71t120 -193l-61 -16q-19 100 -95 161.5t-182 61.5q-155 0 -245.5 -101t-90.5 -276
q0 -173 90.5 -274t245.5 -101q101 0 178.5 60.5t102.5 160.5l57 -12q-31 -120 -123.5 -193t-214.5 -73z" />
    <glyph glyph-name="ordfeminine" unicode="&#xaa;" horiz-adv-x="696" 
d="M670 948l20 -2v-18l-244 -68h-18v150q-23 -70 -79 -110t-130 -40q-76 0 -124 44.5t-48 115.5q0 94 75.5 141.5t239.5 77.5l66 12v54q0 85 -31 133.5t-84 48.5q-44 0 -72 -31t-30 -73.5t16 -86.5l-149 -47q-33 78 -7 138.5t99 97.5t168 37q124 0 194 -61.5t70 -164.5v-280
q0 -59 68 -68zM428 1049v168l-61 -13q-144 -29 -144 -137q0 -46 26 -76t66 -30q35 0 66.5 24t46.5 64z" />
    <glyph glyph-name="guillemotleft" unicode="&#xab;" horiz-adv-x="768" 
d="M45 616v27l326 246l18 -19l-162 -239l162 -244l-18 -16zM385 616v27l326 246l18 -19l-162 -239l162 -244l-18 -16z" />
    <glyph glyph-name="logicalnot" unicode="&#xac;" horiz-adv-x="1024" 
d="M922 711v-602h-74v532h-778v70h852z" />
    <glyph glyph-name="registered" unicode="&#xae;" horiz-adv-x="1630" 
d="M813 -29q-144 0 -275.5 57t-227 152.5t-152 227.5t-56.5 276t56.5 276t152 227.5t227 152.5t275.5 57q145 0 277 -57t228 -152.5t153 -227.5t57 -276t-57 -276t-153 -227.5t-228 -152.5t-277 -57zM813 27q178 0 330 88.5t241 240t89 328.5t-89 328.5t-241 240t-330 88.5
q-133 0 -254 -52.5t-209 -140.5t-140 -209.5t-52 -254.5t52 -254.5t140 -209.5t209 -140.5t254 -52.5zM532 254v858h297q107 0 172.5 -62t65.5 -165q0 -77 -47.5 -135t-124.5 -78l256 -418h-74l-248 408h-235v-408h-62zM594 719h233q84 0 131.5 45t47.5 121
q0 77 -47.5 123.5t-129.5 46.5h-235v-336z" />
    <glyph glyph-name="macron" unicode="&#xaf;" horiz-adv-x="761" 
d="M102 1210v70h557v-70h-557z" />
    <glyph glyph-name="degree" unicode="&#xb0;" horiz-adv-x="610" 
d="M307 909q-101 -2 -173.5 69.5t-72.5 172.5q0 100 71 169t171 71q101 2 173.5 -68.5t72.5 -171.5q0 -100 -71 -169.5t-171 -72.5zM307 975q74 0 123 51t49 125q0 73 -51 123.5t-125 50.5t-122 -50t-48 -124t50.5 -125t123.5 -51z" />
    <glyph glyph-name="plusminus" unicode="&#xb1;" horiz-adv-x="991" 
d="M532 774h390v-69h-390v-392h-69v392h-393v69h393v391h69v-391zM70 -25v70h852v-70h-852z" />
    <glyph glyph-name="uni00B2" unicode="&#xb2;" horiz-adv-x="673" 
d="M23 752v16l239 274q71 78 109.5 147t38.5 148q0 69 -42 110.5t-110 41.5q-60 0 -110 -35t-74 -100l-15 4q5 39 24 78t52 74t87 57t120 22q115 0 184.5 -63.5t69.5 -169.5q0 -55 -22.5 -107t-46 -86.5t-90 -88.5t-100.5 -77.5t-132 -88.5q-17 -11 -25 -17h269
q75 0 109.5 26.5t55.5 104.5h19l-37 -270h-573z" />
    <glyph glyph-name="uni00B3" unicode="&#xb3;" horiz-adv-x="688" 
d="M326 735q-120 0 -204 52.5t-97 142.5l176 51q11 -98 50 -155.5t97 -57.5q54 0 86.5 52t32.5 136q0 91 -63 148t-179 57v17q99 17 150 62.5t51 107.5t-42 101.5t-108 39.5q-61 0 -112 -35.5t-72 -99.5l-16 4q5 39 23.5 78t51.5 74t87 57t120 22q121 0 187.5 -57t66.5 -143
q0 -166 -231 -209q126 -6 198 -60t72 -155q0 -107 -87.5 -168.5t-237.5 -61.5z" />
    <glyph glyph-name="acute" unicode="&#xb4;" horiz-adv-x="565" 
d="M102 1163l136 338h225l-332 -338h-29z" />
    <glyph glyph-name="uni00B5" unicode="&#xb5;" horiz-adv-x="1073" 
d="M115 -406v1438h71v-670q0 -84 35 -156.5t108 -119.5t169 -47q177 0 286 149.5t109 389.5v454h72v-1032h-72v264q-40 -128 -146.5 -210.5t-252.5 -82.5q-110 0 -186.5 46t-121.5 118v-541h-71z" />
    <glyph glyph-name="paragraph" unicode="&#xb6;" horiz-adv-x="1136" 
d="M406 -434v1169q-145 0 -246 93t-101 225t101 223.5t246 91.5h647v-65h-140v-1737h-73v1734h-361v-1734h-73z" />
    <glyph glyph-name="periodcentered" unicode="&#xb7;" horiz-adv-x="475" 
d="M238 588q-57 0 -97.5 39.5t-40.5 97.5q0 56 40.5 95.5t97.5 39.5q60 0 98.5 -39t38.5 -96q0 -58 -40 -97.5t-97 -39.5z" />
    <glyph glyph-name="cedilla" unicode="&#xb8;" horiz-adv-x="532" 
d="M102 -428l2 29q88 -9 139.5 19t53.5 83q1 47 -31.5 74.5t-89.5 38.5l98 184h41l-39 -111q65 -9 109.5 -48.5t44.5 -112.5q0 -96 -93.5 -139.5t-234.5 -16.5z" />
    <glyph glyph-name="uni00B9" unicode="&#xb9;" horiz-adv-x="524" 
d="M57 752v16q74 7 102.5 25t28.5 57v580h-131v16q202 55 299 133h17v-729q0 -38 25 -56t83 -26v-16h-424z" />
    <glyph glyph-name="ordmasculine" unicode="&#xba;" horiz-adv-x="729" 
d="M360 860q-140 0 -228.5 88.5t-88.5 229.5q0 151 91 247.5t237 96.5q139 0 228 -89t89 -229q0 -152 -91.5 -248t-236.5 -96zM385 895q59 0 91 65t32 175q0 146 -44.5 249t-117.5 103q-58 0 -90.5 -66.5t-32.5 -173.5q0 -148 45 -250t117 -102z" />
    <glyph glyph-name="guillemotright" unicode="&#xbb;" horiz-adv-x="768" 
d="M383 616l-328 -245l-18 16l164 244l-164 239l18 19l328 -246v-27zM723 616l-328 -245l-18 16l164 244l-164 239l18 19l328 -246v-27z" />
    <glyph glyph-name="onequarter" unicode="&#xbc;" horiz-adv-x="1454" 
d="M57 547v16q74 7 102.5 25t28.5 57v580h-131v16q202 55 299 133h17v-729q0 -38 25 -56t83 -26v-16h-424zM285 0l753 1368h62l-754 -1368h-61zM993 0v16q69 7 95 26t26 56v133h-371v25l404 565h149v-553h131v-37h-131v-133q0 -39 25 -56.5t84 -25.5v-16h-412zM797 268h317
v445z" />
    <glyph glyph-name="onehalf" unicode="&#xbd;" horiz-adv-x="1492" 
d="M57 547v16q74 7 102.5 25t28.5 57v580h-131v16q202 55 299 133h17v-729q0 -38 25 -56t83 -26v-16h-424zM264 0l754 1368h61l-753 -1368h-62zM842 0v16l239 275q71 78 109.5 147t38.5 148q0 69 -42 110t-110 41q-60 0 -110 -35t-74 -100l-14 4q5 39 23.5 78t51.5 74.5
t87 57.5t120 22q115 0 184.5 -64t69.5 -170q0 -55 -22.5 -107t-46 -86.5t-90 -88.5t-100.5 -77.5t-132 -88.5q-17 -11 -25 -17h269q75 0 110 26.5t56 104.5h18l-37 -270h-573z" />
    <glyph glyph-name="threequarters" unicode="&#xbe;" horiz-adv-x="1622" 
d="M326 530q-120 0 -204 52.5t-97 142.5l176 51q11 -98 50 -155.5t97 -57.5q54 0 86.5 52.5t32.5 136.5q0 91 -63 147.5t-179 56.5v17q99 17 150 62.5t51 107.5t-42 101.5t-108 39.5q-61 0 -112 -35.5t-72 -99.5l-16 4q5 39 23.5 78t51.5 74t87 57t120 22q121 0 187.5 -57
t66.5 -143q0 -166 -231 -209q126 -6 198 -60t72 -155q0 -107 -87.5 -168.5t-237.5 -61.5zM428 0l754 1368h61l-754 -1368h-61zM1163 0v16q68 7 93.5 26t25.5 56v133h-371v25l404 565h149v-553h131v-37h-131v-133q0 -38 26 -56t85 -26v-16h-412zM965 268h317v445z" />
    <glyph glyph-name="questiondown" unicode="&#xbf;" horiz-adv-x="888" 
d="M492 1040q57 0 97 -39.5t40 -97.5q0 -56 -40 -95.5t-97 -39.5q-60 0 -98 39t-38 96q0 58 40 97.5t96 39.5zM522 625q20 -72 16.5 -124.5t-26 -105t-53.5 -93t-66.5 -88t-65 -90.5t-49.5 -99.5t-20 -116.5q0 -105 56 -168.5t147 -63.5q96 0 164 93.5t80 232.5l206 -53
q-21 -136 -143 -233t-303 -97q-196 0 -311 86t-115 236q0 67 25.5 127.5t66.5 107t90.5 89.5t98 83.5t88.5 81.5t63.5 91t20.5 104h30z" />
    <glyph glyph-name="Agrave" unicode="&#xc0;" horiz-adv-x="1552" 
d="M823 1501h-28l-332 338h225zM1327 203q41 -92 87 -128.5t132 -45.5v-29h-573v29q102 9 124 45.5t-20 128.5l-106 241h-572l-104 -241q-40 -92 -16.5 -128.5t129.5 -45.5v-29h-383v29q80 9 123 45.5t83 128.5l525 1196h30zM424 502h522l-264 602z" />
    <glyph glyph-name="Aacute" unicode="&#xc1;" horiz-adv-x="1552" 
d="M1077 1839l-332 -338h-28l135 338h225zM1327 203q41 -92 87 -128.5t132 -45.5v-29h-573v29q102 9 124 45.5t-20 128.5l-106 241h-572l-104 -241q-40 -92 -16.5 -128.5t129.5 -45.5v-29h-383v29q80 9 123 45.5t83 128.5l525 1196h30zM424 502h522l-264 602z" />
    <glyph glyph-name="Acircumflex" unicode="&#xc2;" horiz-adv-x="1552" 
d="M764 1726l-262 -225h-29l197 338h188l201 -338h-29zM1327 203q41 -92 87 -128.5t132 -45.5v-29h-573v29q102 9 124 45.5t-20 128.5l-106 241h-572l-104 -241q-40 -92 -16.5 -128.5t129.5 -45.5v-29h-383v29q80 9 123 45.5t83 128.5l525 1196h30zM424 502h522l-264 602z
" />
    <glyph glyph-name="Atilde" unicode="&#xc3;" horiz-adv-x="1552" 
d="M596 1630q-83 0 -113 -104l-28 2q9 113 59 176t129 63q54 0 160 -54t147 -54q85 0 115 102l29 -2q-9 -112 -60 -174.5t-131 -62.5q-47 0 -103.5 27t-110 54t-93.5 27zM1327 203q41 -92 87 -128.5t132 -45.5v-29h-573v29q102 9 124 45.5t-20 128.5l-106 241h-572
l-104 -241q-40 -92 -16.5 -128.5t129.5 -45.5v-29h-383v29q80 9 123 45.5t83 128.5l525 1196h30zM424 502h522l-264 602z" />
    <glyph glyph-name="Adieresis" unicode="&#xc4;" horiz-adv-x="1552" 
d="M594 1524q-61 0 -102 39t-41 98q0 56 41 94.5t102 38.5q60 0 99.5 -38.5t39.5 -94.5q0 -59 -39.5 -98t-99.5 -39zM977 1524q-61 0 -101 39t-40 98q0 56 40 94.5t101 38.5q60 0 99.5 -38.5t39.5 -94.5q0 -59 -39.5 -98t-99.5 -39zM1327 203q41 -92 87 -128.5t132 -45.5
v-29h-573v29q102 9 124 45.5t-20 128.5l-106 241h-572l-104 -241q-40 -92 -16.5 -128.5t129.5 -45.5v-29h-383v29q80 9 123 45.5t83 128.5l525 1196h30zM424 502h522l-264 602z" />
    <glyph glyph-name="Aring" unicode="&#xc5;" horiz-adv-x="1552" 
d="M774 1477q-89 0 -146 55t-57 139t57 138.5t146 54.5t146 -54.5t57 -138.5t-57 -139t-146 -55zM774 1804q-56 0 -92.5 -37t-36.5 -94q0 -58 36.5 -96.5t92.5 -38.5t92.5 38.5t36.5 96.5q0 57 -36.5 94t-92.5 37zM1327 203q41 -92 87 -128.5t132 -45.5v-29h-573v29
q102 9 124 45.5t-20 128.5l-106 241h-572l-104 -241q-40 -92 -16.5 -128.5t129.5 -45.5v-29h-383v29q80 9 123 45.5t83 128.5l525 1196h30zM424 502h522l-264 602z" />
    <glyph glyph-name="AE" unicode="&#xc6;" horiz-adv-x="2062" 
d="M1931 375h29l-53 -375h-1090v29q99 8 140.5 37.5t41.5 109.5v318h-483l-180 -279q-56 -85 -36 -128t124 -58v-29h-408v29q77 17 137 61t113 125l629 965q46 72 14 108.5t-149 50.5v29h1124l51 -373h-28q-75 316 -361 316h-325v-580h258q88 0 122 46.5t39 150.5h29v-453
h-29q-5 105 -39 152t-122 47h-258v-498q0 -61 24.5 -90t77.5 -29h248q282 0 360 318zM555 551h444v684z" />
    <glyph glyph-name="Ccedilla" unicode="&#xc7;" horiz-adv-x="1376" 
d="M741 -31h-30l-29 -80q65 -9 109.5 -48.5t44.5 -112.5q0 -96 -93.5 -139.5t-234.5 -16.5l2 29q88 -9 139 19t53 83q1 47 -31 74.5t-89 38.5l84 157q-256 28 -418 218.5t-164 459.5q0 215 80.5 384t235 266.5t360.5 97.5q195 0 333.5 -81.5t182.5 -225.5l-211 -64
q-29 144 -117.5 229.5t-210.5 85.5q-186 0 -303 -166t-117 -432q1 -177 67.5 -314.5t185 -212.5t268.5 -75q158 0 275 81t165 218l27 -6q-47 -216 -199 -341.5t-365 -125.5z" />
    <glyph glyph-name="Egrave" unicode="&#xc8;" horiz-adv-x="1318" 
d="M725 1501h-29l-331 338h225zM1188 375h29l-54 -375h-1089v29q99 8 140.5 37.5t41.5 109.5v1016q0 79 -41.5 109t-140.5 38v29h1067l53 -373h-29q-78 316 -362 316h-324v-580h230q107 0 145 45.5t43 151.5h29v-453h-29q-5 106 -43.5 152.5t-144.5 46.5h-230v-498
q0 -119 101 -119h247q283 0 361 318z" />
    <glyph glyph-name="Eacute" unicode="&#xc9;" horiz-adv-x="1318" 
d="M979 1839l-332 -338h-29l136 338h225zM1188 375h29l-54 -375h-1089v29q99 8 140.5 37.5t41.5 109.5v1016q0 79 -41.5 109t-140.5 38v29h1067l53 -373h-29q-78 316 -362 316h-324v-580h230q107 0 145 45.5t43 151.5h29v-453h-29q-5 106 -43.5 152.5t-144.5 46.5h-230v-498
q0 -119 101 -119h247q283 0 361 318z" />
    <glyph glyph-name="Ecircumflex" unicode="&#xca;" horiz-adv-x="1318" 
d="M666 1726l-263 -225h-28l196 338h189l201 -338h-29zM1188 375h29l-54 -375h-1089v29q99 8 140.5 37.5t41.5 109.5v1016q0 79 -41.5 109t-140.5 38v29h1067l53 -373h-29q-78 316 -362 316h-324v-580h230q107 0 145 45.5t43 151.5h29v-453h-29q-5 106 -43.5 152.5
t-144.5 46.5h-230v-498q0 -119 101 -119h247q283 0 361 318z" />
    <glyph glyph-name="Edieresis" unicode="&#xcb;" horiz-adv-x="1318" 
d="M496 1526q-62 0 -102 38.5t-40 96.5q0 57 40.5 96t101.5 39q60 0 99.5 -39t39.5 -96q0 -58 -39.5 -96.5t-99.5 -38.5zM881 1526q-62 0 -103 38.5t-41 96.5q0 57 41.5 96t102.5 39q60 0 99.5 -39t39.5 -96q0 -58 -39.5 -96.5t-99.5 -38.5zM1188 375h29l-54 -375h-1089v29
q99 8 140.5 37.5t41.5 109.5v1016q0 79 -41.5 109t-140.5 38v29h1067l53 -373h-29q-78 316 -362 316h-324v-580h230q107 0 145 45.5t43 151.5h29v-453h-29q-5 106 -43.5 152.5t-144.5 46.5h-230v-498q0 -119 101 -119h247q283 0 361 318z" />
    <glyph glyph-name="Igrave" unicode="&#xcc;" 
d="M414 1501h-29l-332 338h226zM74 0v29q100 10 141 38.5t41 108.5v1016q0 79 -41.5 109t-140.5 38v29h585v-29q-98 -8 -139 -38t-41 -109v-1016q0 -80 40 -108.5t140 -38.5v-29h-585z" />
    <glyph glyph-name="Iacute" unicode="&#xcd;" 
d="M307 1501l135 338h226l-332 -338h-29zM74 0v29q100 10 141 38.5t41 108.5v1016q0 79 -41.5 109t-140.5 38v29h585v-29q-98 -8 -139 -38t-41 -109v-1016q0 -80 40 -108.5t140 -38.5v-29h-585z" />
    <glyph glyph-name="Icircumflex" unicode="&#xce;" 
d="M262 1839h189l200 -338h-28l-267 225l-262 -225h-28zM74 0v29q100 10 141 38.5t41 108.5v1016q0 79 -41.5 109t-140.5 38v29h585v-29q-98 -8 -139 -38t-41 -109v-1016q0 -80 40 -108.5t140 -38.5v-29h-585z" />
    <glyph glyph-name="Idieresis" unicode="&#xcf;" 
d="M184 1526q-61 0 -101 38t-40 97q0 57 40 96t101 39q60 0 100 -39t40 -96q0 -58 -40 -96.5t-100 -38.5zM569 1526q-62 0 -102.5 38.5t-40.5 96.5q0 57 41 96t102 39q60 0 100 -39t40 -96q0 -58 -40 -96.5t-100 -38.5zM74 0v29q100 10 141 38.5t41 108.5v1016
q0 79 -41.5 109t-140.5 38v29h585v-29q-98 -8 -139 -38t-41 -109v-1016q0 -80 40 -108.5t140 -38.5v-29h-585z" />
    <glyph glyph-name="Eth" unicode="&#xd0;" horiz-adv-x="1495" 
d="M676 1368q154 0 279.5 -34t211 -93t143.5 -140.5t84.5 -174t26.5 -195.5q0 -169 -61 -310t-162.5 -231.5t-228.5 -140t-264 -49.5h-631v29q99 8 140.5 37.5t41.5 109.5v477h-215v58h215v481q0 79 -41.5 109t-140.5 38v29h602zM705 57q220 0 349.5 167t129.5 460
q0 94 -22.5 184t-68 170t-109 141t-152.5 96.5t-191 35.5h-162v-600h240v-58h-240v-481q0 -67 48.5 -91t177.5 -24z" />
    <glyph glyph-name="Ntilde" unicode="&#xd1;" horiz-adv-x="1531" 
d="M592 1632q-36 0 -66.5 -25t-46.5 -81l-28 2q10 115 60 177t130 62q43 0 101.5 -27t114 -54t91.5 -27q83 0 113 104l29 -2q-9 -112 -60 -174.5t-131 -62.5q-47 0 -103 27t-109.5 54t-94.5 27zM1001 1368h459v-29q-105 -8 -143.5 -44t-38.5 -130v-1196h-57l-889 1190v-956
q0 -94 46 -129.5t173 -44.5v-29h-459v29q104 9 143 45t39 129v1026q-47 54 -92 80t-108 30v29h381l766 -1032v829q0 93 -48 129.5t-172 44.5v29z" />
    <glyph glyph-name="Ograve" unicode="&#xd2;" horiz-adv-x="1558" 
d="M834 1501h-29l-332 338h225zM780 -31q-158 0 -290 53.5t-220.5 146.5t-137 218t-48.5 268q0 216 91 386t252 264t364 94q158 0 290 -53.5t219.5 -146.5t136 -218t48.5 -268q0 -216 -90.5 -386t-251 -264t-363.5 -94zM821 27q193 0 309.5 173t116.5 447q1 191 -60.5 349
t-176.5 251.5t-260 93.5q-194 1 -310 -171t-118 -449q0 -191 63 -349.5t178 -251.5t258 -93z" />
    <glyph glyph-name="Oacute" unicode="&#xd3;" horiz-adv-x="1558" 
d="M727 1501l135 338h225l-331 -338h-29zM780 -31q-158 0 -290 53.5t-220.5 146.5t-137 218t-48.5 268q0 216 91 386t252 264t364 94q158 0 290 -53.5t219.5 -146.5t136 -218t48.5 -268q0 -216 -90.5 -386t-251 -264t-363.5 -94zM821 27q193 0 309.5 173t116.5 447
q1 191 -60.5 349t-176.5 251.5t-260 93.5q-194 1 -310 -171t-118 -449q0 -191 63 -349.5t178 -251.5t258 -93z" />
    <glyph glyph-name="Ocircumflex" unicode="&#xd4;" horiz-adv-x="1558" 
d="M680 1839h188l201 -338h-29l-266 225l-262 -225h-29zM780 -31q-158 0 -290 53.5t-220.5 146.5t-137 218t-48.5 268q0 216 91 386t252 264t364 94q158 0 290 -53.5t219.5 -146.5t136 -218t48.5 -268q0 -216 -90.5 -386t-251 -264t-363.5 -94zM821 27q193 0 309.5 173
t116.5 447q1 191 -60.5 349t-176.5 251.5t-260 93.5q-194 1 -310 -171t-118 -449q0 -191 63 -349.5t178 -251.5t258 -93z" />
    <glyph glyph-name="Otilde" unicode="&#xd5;" horiz-adv-x="1558" 
d="M913 1524q-47 0 -103 27t-109.5 54t-94.5 27q-82 0 -112 -106l-29 2q10 115 60 177t130 62q43 0 101.5 -27t114.5 -54t92 -27q82 0 112 104l29 -2q-9 -112 -60 -174.5t-131 -62.5zM780 -31q-158 0 -290 53.5t-220.5 146.5t-137 218t-48.5 268q0 216 91 386t252 264
t364 94q158 0 290 -53.5t219.5 -146.5t136 -218t48.5 -268q0 -216 -90.5 -386t-251 -264t-363.5 -94zM821 27q193 0 309.5 173t116.5 447q1 191 -60.5 349t-176.5 251.5t-260 93.5q-194 1 -310 -171t-118 -449q0 -191 63 -349.5t178 -251.5t258 -93z" />
    <glyph glyph-name="Odieresis" unicode="&#xd6;" horiz-adv-x="1558" 
d="M604 1526q-61 0 -101 38t-40 97q0 57 40 96t101 39q60 0 99.5 -39t39.5 -96q0 -58 -39.5 -96.5t-99.5 -38.5zM989 1526q-62 0 -102.5 38.5t-40.5 96.5q0 57 41 96t102 39q60 0 99.5 -39t39.5 -96q0 -58 -39.5 -96.5t-99.5 -38.5zM780 -31q-158 0 -290 53.5t-220.5 146.5
t-137 218t-48.5 268q0 216 91 386t252 264t364 94q158 0 290 -53.5t219.5 -146.5t136 -218t48.5 -268q0 -216 -90.5 -386t-251 -264t-363.5 -94zM821 27q193 0 309.5 173t116.5 447q1 191 -60.5 349t-176.5 251.5t-260 93.5q-194 1 -310 -171t-118 -449q0 -191 63 -349.5
t178 -251.5t258 -93z" />
    <glyph glyph-name="multiply" unicode="&#xd7;" horiz-adv-x="870" 
d="M801 264l-51 -51l-316 315l-313 -315l-51 51l315 316l-315 315l51 49l315 -313l314 313l49 -51l-314 -313z" />
    <glyph glyph-name="Oslash" unicode="&#xd8;" horiz-adv-x="1558" 
d="M1108 1333q179 -81 278 -246t99 -374q0 -216 -90.5 -386t-251 -264t-363.5 -94q-140 0 -258 41l-88 -196l-55 24l86 195q-180 81 -280.5 247t-100.5 375q0 216 91 386t252 264t364 94q144 0 260 -43l86 194l57 -22zM322 721q0 -172 52.5 -319.5t145.5 -243.5l484 1093
q-114 90 -254 90q-194 1 -310 -171t-118 -449zM1247 647q1 172 -50 318.5t-144 242.5l-486 -1091q117 -90 254 -90q193 0 309.5 173t116.5 447z" />
    <glyph glyph-name="Ugrave" unicode="&#xd9;" horiz-adv-x="1515" 
d="M860 1501h-29l-331 338h225zM1047 1368h421v-29q-100 -8 -141 -38t-41 -109v-705q0 -235 -134.5 -375.5t-360.5 -140.5q-261 0 -411.5 138.5t-150.5 377.5v705q0 79 -41 109t-141 38v29h588v-29q-100 -8 -141 -38t-41 -109v-705q0 -192 109 -303.5t298 -111.5
q169 0 269 113t100 302v705q0 79 -41.5 109t-140.5 38v29z" />
    <glyph glyph-name="Uacute" unicode="&#xda;" horiz-adv-x="1515" 
d="M1114 1839l-332 -338h-28l135 338h225zM1047 1368h421v-29q-100 -8 -141 -38t-41 -109v-705q0 -235 -134.5 -375.5t-360.5 -140.5q-261 0 -411.5 138.5t-150.5 377.5v705q0 79 -41 109t-141 38v29h588v-29q-100 -8 -141 -38t-41 -109v-705q0 -192 109 -303.5t298 -111.5
q169 0 269 113t100 302v705q0 79 -41.5 109t-140.5 38v29z" />
    <glyph glyph-name="Ucircumflex" unicode="&#xdb;" horiz-adv-x="1515" 
d="M801 1726l-262 -225h-29l197 338h188l201 -338h-29zM1047 1368h421v-29q-100 -8 -141 -38t-41 -109v-705q0 -235 -134.5 -375.5t-360.5 -140.5q-261 0 -411.5 138.5t-150.5 377.5v705q0 79 -41 109t-141 38v29h588v-29q-100 -8 -141 -38t-41 -109v-705q0 -192 109 -303.5
t298 -111.5q169 0 269 113t100 302v705q0 79 -41.5 109t-140.5 38v29z" />
    <glyph glyph-name="Udieresis" unicode="&#xdc;" horiz-adv-x="1515" 
d="M631 1526q-62 0 -102 38.5t-40 96.5q0 57 40.5 96t101.5 39q60 0 99.5 -39t39.5 -96q0 -58 -39.5 -96.5t-99.5 -38.5zM1016 1526q-62 0 -103 38.5t-41 96.5q0 57 41.5 96t102.5 39q60 0 99.5 -39t39.5 -96q0 -58 -39.5 -96.5t-99.5 -38.5zM1047 1368h421v-29
q-100 -8 -141 -38t-41 -109v-705q0 -235 -134.5 -375.5t-360.5 -140.5q-261 0 -411.5 138.5t-150.5 377.5v705q0 79 -41 109t-141 38v29h588v-29q-100 -8 -141 -38t-41 -109v-705q0 -192 109 -303.5t298 -111.5q169 0 269 113t100 302v705q0 79 -41.5 109t-140.5 38v29z" />
    <glyph glyph-name="Yacute" unicode="&#xdd;" horiz-adv-x="1335" 
d="M643 1501l135 338h226l-332 -338h-29zM377 0v29q95 8 134.5 38t39.5 109v457l-334 532q-57 92 -100.5 128.5t-108.5 45.5v29h541v-29q-102 -7 -117.5 -43.5t41.5 -130.5l283 -452l280 452q57 94 35 130t-141 44v29h397v-29q-73 -9 -119.5 -45t-103.5 -129l-332 -532v-457
q0 -79 40.5 -109t135.5 -38v-29h-571z" />
    <glyph glyph-name="Thorn" unicode="&#xde;" horiz-adv-x="1292" 
d="M674 1077q257 0 401 -97t144 -288t-144.5 -290t-400.5 -99h-195v-127q0 -80 40 -108.5t140 -38.5v-29h-585v29q100 10 141 38.5t41 108.5v1016q0 79 -41.5 109t-140.5 38v29h585v-29q-98 -8 -139 -38t-41 -109v-115h195zM655 373q155 0 240.5 88t85.5 231
q0 142 -84.5 228t-241.5 86h-176v-633h176z" />
    <glyph glyph-name="germandbls" unicode="&#xdf;" horiz-adv-x="1335" 
d="M760 817q0 -48 28.5 -85t74.5 -62.5t101 -49t110 -52t101 -63.5t74.5 -91t28.5 -127q0 -150 -100.5 -233t-253.5 -83q-126 0 -231.5 56.5t-162.5 160.5l166 109q27 -124 96 -196t150 -72q75 0 120.5 47.5t45.5 122.5q0 58 -29 102.5t-75 72.5t-102 52t-112 50t-102 57
t-75 81t-29 115q0 55 21.5 98t56.5 70t76.5 50t83.5 45.5t77 48t56.5 65t21.5 90.5q0 100 -74.5 164.5t-204.5 64.5q-61 0 -109 -18t-77 -46t-47.5 -66.5t-25.5 -75.5t-7 -76v-1143h-348v29q73 14 107 39t34 86v819h-172v57h172v53q0 199 132.5 299.5t381.5 100.5
q190 0 310 -69.5t120 -192.5q0 -62 -30.5 -108t-75.5 -70t-98.5 -47.5t-98.5 -42.5t-75.5 -54t-30.5 -82z" />
    <glyph glyph-name="agrave" unicode="&#xe0;" horiz-adv-x="1083" 
d="M578 1163h-29l-332 338h225zM1030 94l43 -2v-29l-332 -94h-28v260q-41 -121 -133.5 -190.5t-212.5 -69.5q-122 0 -198.5 74.5t-76.5 192.5q0 151 109 231.5t368 128.5l144 29v73q0 142 -60 224t-164 82q-57 0 -101.5 -28.5t-65 -73.5t-23 -99.5t24.5 -106.5l-187 -61
q-31 67 -30 129t35.5 116.5t89.5 94.5t132.5 63t163.5 23q184 0 289 -100t105 -271v-487q0 -54 26 -79t82 -30zM713 289v276l-135 -28q-138 -27 -205.5 -85.5t-67.5 -158.5q0 -83 49 -137t125 -54q71 0 135.5 51.5t98.5 135.5z" />
    <glyph glyph-name="aacute" unicode="&#xe1;" horiz-adv-x="1083" 
d="M831 1501l-331 -338h-29l135 338h225zM1030 94l43 -2v-29l-332 -94h-28v260q-41 -121 -133.5 -190.5t-212.5 -69.5q-122 0 -198.5 74.5t-76.5 192.5q0 151 109 231.5t368 128.5l144 29v73q0 142 -60 224t-164 82q-57 0 -101.5 -28.5t-65 -73.5t-23 -99.5t24.5 -106.5
l-187 -61q-31 67 -30 129t35.5 116.5t89.5 94.5t132.5 63t163.5 23q184 0 289 -100t105 -271v-487q0 -54 26 -79t82 -30zM713 289v276l-135 -28q-138 -27 -205.5 -85.5t-67.5 -158.5q0 -83 49 -137t125 -54q71 0 135.5 51.5t98.5 135.5z" />
    <glyph glyph-name="acircumflex" unicode="&#xe2;" horiz-adv-x="1083" 
d="M518 1389l-262 -226h-29l197 338h188l201 -338h-29zM1030 94l43 -2v-29l-332 -94h-28v260q-41 -121 -133.5 -190.5t-212.5 -69.5q-122 0 -198.5 74.5t-76.5 192.5q0 151 109 231.5t368 128.5l144 29v73q0 142 -60 224t-164 82q-57 0 -101.5 -28.5t-65 -73.5t-23 -99.5
t24.5 -106.5l-187 -61q-31 67 -30 129t35.5 116.5t89.5 94.5t132.5 63t163.5 23q184 0 289 -100t105 -271v-487q0 -54 26 -79t82 -30zM713 289v276l-135 -28q-138 -27 -205.5 -85.5t-67.5 -158.5q0 -83 49 -137t125 -54q71 0 135.5 51.5t98.5 135.5z" />
    <glyph glyph-name="atilde" unicode="&#xe3;" horiz-adv-x="1083" 
d="M348 1294q-82 0 -112 -106l-29 2q10 115 60 177.5t130 62.5q43 0 101.5 -27t114.5 -54.5t92 -27.5q82 0 112 104l29 -2q-9 -112 -60 -174.5t-131 -62.5q-47 0 -103 27t-109.5 54t-94.5 27zM1030 94l43 -2v-29l-332 -94h-28v260q-41 -121 -133.5 -190.5t-212.5 -69.5
q-122 0 -198.5 74.5t-76.5 192.5q0 151 109 231.5t368 128.5l144 29v73q0 142 -60 224t-164 82q-57 0 -101.5 -28.5t-65 -73.5t-23 -99.5t24.5 -106.5l-187 -61q-31 67 -30 129t35.5 116.5t89.5 94.5t132.5 63t163.5 23q184 0 289 -100t105 -271v-487q0 -54 26 -79t82 -30z
M713 289v276l-135 -28q-138 -27 -205.5 -85.5t-67.5 -158.5q0 -83 49 -137t125 -54q71 0 135.5 51.5t98.5 135.5z" />
    <glyph glyph-name="adieresis" unicode="&#xe4;" horiz-adv-x="1083" 
d="M346 1188q-61 0 -101 38t-40 97q0 57 40 96t101 39q60 0 99.5 -39t39.5 -96q0 -58 -39.5 -96.5t-99.5 -38.5zM731 1188q-62 0 -102.5 38.5t-40.5 96.5q0 57 41 96t102 39q60 0 99.5 -39t39.5 -96q0 -58 -39.5 -96.5t-99.5 -38.5zM1030 94l43 -2v-29l-332 -94h-28v260
q-41 -121 -133.5 -190.5t-212.5 -69.5q-122 0 -198.5 74.5t-76.5 192.5q0 151 109 231.5t368 128.5l144 29v73q0 142 -60 224t-164 82q-57 0 -101.5 -28.5t-65 -73.5t-23 -99.5t24.5 -106.5l-187 -61q-31 67 -30 129t35.5 116.5t89.5 94.5t132.5 63t163.5 23q184 0 289 -100
t105 -271v-487q0 -54 26 -79t82 -30zM713 289v276l-135 -28q-138 -27 -205.5 -85.5t-67.5 -158.5q0 -83 49 -137t125 -54q71 0 135.5 51.5t98.5 135.5z" />
    <glyph glyph-name="aring" unicode="&#xe5;" horiz-adv-x="1083" 
d="M526 1139q-89 0 -145.5 55t-56.5 139q0 85 56.5 140t145.5 55t146 -55t57 -140q0 -84 -57 -139t-146 -55zM526 1466q-54 0 -91.5 -37t-37.5 -94q0 -58 37.5 -96.5t91.5 -38.5q57 0 93 38t36 97q0 57 -36 94t-93 37zM1030 94l43 -2v-29l-332 -94h-28v260
q-41 -121 -133.5 -190.5t-212.5 -69.5q-122 0 -198.5 74.5t-76.5 192.5q0 151 109 231.5t368 128.5l144 29v73q0 142 -60 224t-164 82q-57 0 -101.5 -28.5t-65 -73.5t-23 -99.5t24.5 -106.5l-187 -61q-31 67 -30 129t35.5 116.5t89.5 94.5t132.5 63t163.5 23q184 0 289 -100
t105 -271v-487q0 -54 26 -79t82 -30zM713 289v276l-135 -28q-138 -27 -205.5 -85.5t-67.5 -158.5q0 -83 49 -137t125 -54q71 0 135.5 51.5t98.5 135.5z" />
    <glyph glyph-name="ae" unicode="&#xe6;" horiz-adv-x="1703" 
d="M1300 137q99 0 173.5 47t121.5 123l23 -10q-34 -142 -146 -234t-276 -92q-150 0 -259.5 69.5t-166.5 190.5q-57 -129 -155.5 -195.5t-229.5 -66.5q-132 0 -212.5 74t-80.5 193q0 148 108 226t369 132l144 29v75q0 142 -60 224t-164 82q-57 0 -101 -29t-65.5 -74
t-21.5 -102t25 -111l-187 -61q-44 86 -28 164.5t70.5 138.5t146.5 95.5t200 35.5q232 0 322 -158q136 158 362 158q193 0 298.5 -123t107.5 -328h-694q-2 -10 -2 -28q-7 -206 97.5 -325.5t280.5 -119.5zM1182 1004q-102 0 -168 -93.5t-86 -242.5h471q-2 84 -26.5 159
t-75 126t-115.5 51zM487 102q85 0 153.5 48.5t109.5 125.5q-37 98 -37 218v4v65l-135 -28q-138 -28 -205.5 -86t-67.5 -156q0 -84 50 -137.5t132 -53.5z" />
    <glyph glyph-name="ccedilla" unicode="&#xe7;" horiz-adv-x="1046" 
d="M565 -29h-24l-29 -82q65 -9 109.5 -48.5t44.5 -112.5q0 -96 -93.5 -139.5t-234.5 -16.5l2 29q88 -9 139 19t53 83q1 47 -31 74.5t-89 38.5l86 159q-190 26 -302 174.5t-112 358.5q0 155 58 279.5t173 199t269 74.5q106 0 191.5 -41t130 -96.5t55.5 -114.5l-191 -57
q-10 66 -33.5 120t-70.5 93t-109 39q-118 0 -192 -115t-74 -287q0 -212 99.5 -337.5t266.5 -125.5q92 0 174 47.5t134 139.5l24 -7q-37 -161 -149 -254.5t-275 -93.5z" />
    <glyph glyph-name="egrave" unicode="&#xe8;" horiz-adv-x="1073" 
d="M623 1163h-29l-332 338h225zM965 307l24 -10q-35 -142 -147.5 -234t-276.5 -92q-148 0 -259 71.5t-166.5 189t-55.5 262.5q0 254 137 410.5t361 156.5q195 0 300 -123t105 -328h-694q-2 -10 -2 -28q-7 -206 98 -325.5t281 -119.5q99 0 173.5 47t121.5 123zM551 1004
q-101 0 -167.5 -93.5t-86.5 -242.5h473q-2 84 -27 159t-75.5 126t-116.5 51z" />
    <glyph glyph-name="eacute" unicode="&#xe9;" horiz-adv-x="1073" 
d="M877 1501l-332 -338h-29l135 338h226zM965 307l24 -10q-35 -142 -147.5 -234t-276.5 -92q-148 0 -259 71.5t-166.5 189t-55.5 262.5q0 254 137 410.5t361 156.5q195 0 300 -123t105 -328h-694q-2 -10 -2 -28q-7 -206 98 -325.5t281 -119.5q99 0 173.5 47t121.5 123z
M551 1004q-101 0 -167.5 -93.5t-86.5 -242.5h473q-2 84 -27 159t-75.5 126t-116.5 51z" />
    <glyph glyph-name="ecircumflex" unicode="&#xea;" horiz-adv-x="1073" 
d="M563 1389l-262 -226h-29l197 338h188l201 -338h-29zM965 307l24 -10q-35 -142 -147.5 -234t-276.5 -92q-148 0 -259 71.5t-166.5 189t-55.5 262.5q0 254 137 410.5t361 156.5q195 0 300 -123t105 -328h-694q-2 -10 -2 -28q-7 -206 98 -325.5t281 -119.5q99 0 173.5 47
t121.5 123zM551 1004q-101 0 -167.5 -93.5t-86.5 -242.5h473q-2 84 -27 159t-75.5 126t-116.5 51z" />
    <glyph glyph-name="edieresis" unicode="&#xeb;" horiz-adv-x="1073" 
d="M393 1188q-61 0 -101 38t-40 97q0 57 40 96t101 39q60 0 99.5 -39t39.5 -96q0 -58 -39.5 -96.5t-99.5 -38.5zM778 1188q-62 0 -102.5 38.5t-40.5 96.5q0 57 41 96t102 39q60 0 100 -39t40 -96q0 -58 -40 -96.5t-100 -38.5zM965 307l24 -10q-35 -142 -147.5 -234
t-276.5 -92q-148 0 -259 71.5t-166.5 189t-55.5 262.5q0 254 137 410.5t361 156.5q195 0 300 -123t105 -328h-694q-2 -10 -2 -28q-7 -206 98 -325.5t281 -119.5q99 0 173.5 47t121.5 123zM551 1004q-101 0 -167.5 -93.5t-86.5 -242.5h473q-2 84 -27 159t-75.5 126t-116.5 51
z" />
    <glyph glyph-name="igrave" unicode="&#xec;" horiz-adv-x="632" 
d="M360 1163h-28l-332 338h225zM428 154q0 -61 30.5 -86t96.5 -39v-29h-463v29q66 14 96.5 39t30.5 86v675q0 52 -26 78.5t-82 32.5h-43v29l331 94h29v-909z" />
    <glyph glyph-name="iacute" unicode="&#xed;" horiz-adv-x="632" 
d="M614 1501l-331 -338h-29l135 338h225zM428 154q0 -61 30.5 -86t96.5 -39v-29h-463v29q66 14 96.5 39t30.5 86v675q0 52 -26 78.5t-82 32.5h-43v29l331 94h29v-909z" />
    <glyph glyph-name="icircumflex" unicode="&#xee;" horiz-adv-x="632" 
d="M395 1501l201 -338h-29l-266 226l-262 -226h-29l197 338h188zM428 154q0 -61 30.5 -86t96.5 -39v-29h-463v29q66 14 96.5 39t30.5 86v675q0 52 -26 78.5t-82 32.5h-43v29l331 94h29v-909z" />
    <glyph glyph-name="idieresis" unicode="&#xef;" horiz-adv-x="632" 
d="M270 1323q0 -58 -39.5 -96.5t-99.5 -38.5q-61 0 -101 38t-40 97q0 57 40 96t101 39q60 0 99.5 -39t39.5 -96zM516 1458q60 0 99.5 -39t39.5 -96q0 -58 -39.5 -96.5t-99.5 -38.5q-62 0 -102.5 38.5t-40.5 96.5q0 57 41 96t102 39zM428 154q0 -61 30.5 -86t96.5 -39v-29
h-463v29q66 14 96.5 39t30.5 86v675q0 52 -26 78.5t-82 32.5h-43v29l331 94h29v-909z" />
    <glyph glyph-name="eth" unicode="&#xf0;" horiz-adv-x="1159" 
d="M1077 545v-15q0 -248 -139.5 -404.5t-372.5 -156.5q-215 0 -348 135.5t-133 370.5q0 245 139.5 394t364.5 149q135 0 239 -55q-66 178 -196 297l-271 -148l-28 51l252 137q-127 98 -289 140l12 43q205 -35 363 -135l239 129l25 -52l-211 -114q169 -128 261.5 -324.5
t92.5 -441.5zM610 27q113 0 180.5 112.5t67.5 286.5q0 91 -18 182t-53.5 171.5t-96.5 131t-139 50.5q-113 0 -181.5 -116.5t-68.5 -295.5q0 -92 18.5 -181.5t54.5 -167t97.5 -125.5t138.5 -48z" />
    <glyph glyph-name="ntilde" unicode="&#xf1;" horiz-adv-x="1234" 
d="M471 1294q-36 0 -66.5 -25t-46.5 -81l-28 2q10 115 60 177.5t130 62.5q34 0 78.5 -17t80.5 -37.5t77.5 -37.5t70.5 -17q83 0 113 104l29 -2q-9 -112 -60 -174.5t-131 -62.5q-47 0 -103 27t-109.5 54t-94.5 27zM1079 154q0 -61 30.5 -86t96.5 -39v-29h-463v29
q66 14 96.5 39t30.5 86v573q0 91 -46.5 143t-129.5 52q-72 0 -133.5 -34t-132.5 -112v-622q0 -61 30.5 -86t96.5 -39v-29h-463v29q66 14 96.5 39t30.5 86v675q0 100 -108 109l-43 2v29l331 92h29v-234q91 116 174.5 175t185.5 59q140 0 215.5 -85t75.5 -237v-585z" />
    <glyph glyph-name="ograve" unicode="&#xf2;" horiz-adv-x="1161" 
d="M631 1163h-29l-332 338h226zM571 -29q-217 0 -352 145.5t-135 377.5q0 252 141 409.5t365 157.5q217 0 352 -145.5t135 -378.5q0 -252 -141 -409t-365 -157zM608 29q117 0 184.5 115.5t67.5 304.5q0 99 -18.5 194.5t-54 177.5t-96 132.5t-136.5 50.5
q-117 0 -184.5 -115.5t-67.5 -302.5q0 -101 18.5 -196.5t54 -178t96 -132.5t136.5 -50z" />
    <glyph glyph-name="oacute" unicode="&#xf3;" horiz-adv-x="1161" 
d="M524 1163l135 338h226l-332 -338h-29zM571 -29q-217 0 -352 145.5t-135 377.5q0 252 141 409.5t365 157.5q217 0 352 -145.5t135 -378.5q0 -252 -141 -409t-365 -157zM608 29q117 0 184.5 115.5t67.5 304.5q0 99 -18.5 194.5t-54 177.5t-96 132.5t-136.5 50.5
q-117 0 -184.5 -115.5t-67.5 -302.5q0 -101 18.5 -196.5t54 -178t96 -132.5t136.5 -50z" />
    <glyph glyph-name="ocircumflex" unicode="&#xf4;" horiz-adv-x="1161" 
d="M477 1501h189l200 -338h-28l-267 226l-262 -226h-28zM571 -29q-217 0 -352 145.5t-135 377.5q0 252 141 409.5t365 157.5q217 0 352 -145.5t135 -378.5q0 -252 -141 -409t-365 -157zM608 29q117 0 184.5 115.5t67.5 304.5q0 99 -18.5 194.5t-54 177.5t-96 132.5
t-136.5 50.5q-117 0 -184.5 -115.5t-67.5 -302.5q0 -101 18.5 -196.5t54 -178t96 -132.5t136.5 -50z" />
    <glyph glyph-name="otilde" unicode="&#xf5;" horiz-adv-x="1161" 
d="M709 1186q-47 0 -103.5 27t-110 54t-94.5 27q-82 0 -112 -106l-29 2q10 115 60.5 177.5t130.5 62.5q34 0 78.5 -17t80.5 -37.5t77.5 -37.5t70.5 -17q82 0 112 104l29 -2q-9 -112 -59.5 -174.5t-130.5 -62.5zM571 -29q-217 0 -352 145.5t-135 377.5q0 252 141 409.5
t365 157.5q217 0 352 -145.5t135 -378.5q0 -252 -141 -409t-365 -157zM608 29q117 0 184.5 115.5t67.5 304.5q0 99 -18.5 194.5t-54 177.5t-96 132.5t-136.5 50.5q-117 0 -184.5 -115.5t-67.5 -302.5q0 -101 18.5 -196.5t54 -178t96 -132.5t136.5 -50z" />
    <glyph glyph-name="odieresis" unicode="&#xf6;" horiz-adv-x="1161" 
d="M399 1188q-61 0 -101 38t-40 97q0 57 40 96t101 39q60 0 100 -39t40 -96q0 -58 -40 -96.5t-100 -38.5zM784 1188q-62 0 -102.5 38.5t-40.5 96.5q0 57 41 96t102 39q60 0 100 -39t40 -96q0 -58 -40 -96.5t-100 -38.5zM571 -29q-217 0 -352 145.5t-135 377.5
q0 252 141 409.5t365 157.5q217 0 352 -145.5t135 -378.5q0 -252 -141 -409t-365 -157zM608 29q117 0 184.5 115.5t67.5 304.5q0 99 -18.5 194.5t-54 177.5t-96 132.5t-136.5 50.5q-117 0 -184.5 -115.5t-67.5 -302.5q0 -101 18.5 -196.5t54 -178t96 -132.5t136.5 -50z" />
    <glyph glyph-name="divide" unicode="&#xf7;" horiz-adv-x="991" 
d="M496 844q-48 0 -81.5 32.5t-33.5 79.5t34 81t81 34q51 0 81.5 -33t30.5 -82q0 -47 -32.5 -79.5t-79.5 -32.5zM70 618v70h852v-70h-852zM496 236q-48 0 -81.5 32.5t-33.5 81.5q0 46 34 79.5t81 33.5q51 0 81.5 -32.5t30.5 -80.5q0 -49 -32 -81.5t-80 -32.5z" />
    <glyph glyph-name="oslash" unicode="&#xf8;" horiz-adv-x="1161" 
d="M813 1012q123 -61 193.5 -185.5t70.5 -289.5q0 -252 -141 -409t-365 -157q-82 0 -168 27l-61 -152l-51 21l61 151q-126 61 -197 185.5t-71 290.5q0 252 141 409.5t365 157.5q88 0 170 -29l61 152l51 -23zM303 586q0 -121 26 -236.5t77 -195.5l313 774q-73 76 -164 76
q-117 0 -184.5 -115.5t-67.5 -302.5zM608 29q117 0 184.5 115.5t67.5 304.5q0 118 -26 232.5t-76 195.5l-312 -775q70 -73 162 -73z" />
    <glyph glyph-name="ugrave" unicode="&#xf9;" horiz-adv-x="1214" 
d="M649 1163h-28l-332 338h225zM1147 94l43 -2v-29l-330 -94h-29v234q-91 -116 -174.5 -175t-185.5 -59q-140 0 -215.5 85t-75.5 237v538q0 52 -26 78.5t-82 32.5h-45v29l331 94h29v-760q0 -91 47 -142.5t129 -51.5q72 0 135 33.5t133 111.5v575q0 52 -26.5 78.5t-83.5 32.5
h-43v29l332 94h28v-860q0 -54 27 -79t82 -30z" />
    <glyph glyph-name="uacute" unicode="&#xfa;" horiz-adv-x="1214" 
d="M903 1501l-332 -338h-28l135 338h225zM1147 94l43 -2v-29l-330 -94h-29v234q-91 -116 -174.5 -175t-185.5 -59q-140 0 -215.5 85t-75.5 237v538q0 52 -26 78.5t-82 32.5h-45v29l331 94h29v-760q0 -91 47 -142.5t129 -51.5q72 0 135 33.5t133 111.5v575q0 52 -26.5 78.5
t-83.5 32.5h-43v29l332 94h28v-860q0 -54 27 -79t82 -30z" />
    <glyph glyph-name="ucircumflex" unicode="&#xfb;" horiz-adv-x="1214" 
d="M590 1389l-262 -226h-29l197 338h188l201 -338h-29zM1147 94l43 -2v-29l-330 -94h-29v234q-91 -116 -174.5 -175t-185.5 -59q-140 0 -215.5 85t-75.5 237v538q0 52 -26 78.5t-82 32.5h-45v29l331 94h29v-760q0 -91 47 -142.5t129 -51.5q72 0 135 33.5t133 111.5v575
q0 52 -26.5 78.5t-83.5 32.5h-43v29l332 94h28v-860q0 -54 27 -79t82 -30z" />
    <glyph glyph-name="udieresis" unicode="&#xfc;" horiz-adv-x="1214" 
d="M420 1188q-61 0 -101 38t-40 97q0 57 40 96t101 39q60 0 99.5 -39t39.5 -96q0 -58 -39.5 -96.5t-99.5 -38.5zM805 1188q-62 0 -102.5 38.5t-40.5 96.5q0 57 41 96t102 39q60 0 99.5 -39t39.5 -96q0 -58 -39.5 -96.5t-99.5 -38.5zM1147 94l43 -2v-29l-330 -94h-29v234
q-91 -116 -174.5 -175t-185.5 -59q-140 0 -215.5 85t-75.5 237v538q0 52 -26 78.5t-82 32.5h-45v29l331 94h29v-760q0 -91 47 -142.5t129 -51.5q72 0 135 33.5t133 111.5v575q0 52 -26.5 78.5t-83.5 32.5h-43v29l332 94h28v-860q0 -54 27 -79t82 -30z" />
    <glyph glyph-name="yacute" unicode="&#xfd;" horiz-adv-x="1103" 
d="M911 1501l-331 -338h-29l135 338h225zM819 1030h299v-29q-52 -3 -82 -27.5t-57 -86.5l-412 -965q-77 -179 -171 -267.5t-228 -88.5q-82 0 -160 31l68 213q100 -74 194 -74q160 0 240 196l31 74l-381 881q-29 62 -59.5 86.5t-80.5 27.5v29h480v-29q-74 -3 -104 -32.5
t-7 -81.5l262 -625l267 625q23 53 -3 82t-96 32v29z" />
    <glyph glyph-name="thorn" unicode="&#xfe;" horiz-adv-x="1232" 
d="M731 1061q189 0 303.5 -148t114.5 -364q0 -137 -38 -248.5t-102.5 -183t-148.5 -110t-178 -38.5q-86 0 -157 34.5t-111 94.5v-348q0 -63 41.5 -87.5t152.5 -37.5v-28h-545v28q75 14 109.5 39t34.5 86v1469q0 52 -26.5 77.5t-82.5 30.5l-45 2v29l332 94h29v-629
q41 108 128 173t189 65zM668 43q74 0 134.5 57.5t94 156t33.5 216.5q0 85 -16.5 164t-49 146t-88 107t-127.5 40q-78 0 -142.5 -48.5t-92.5 -127.5v-392q0 -134 65.5 -226.5t188.5 -92.5z" />
    <glyph glyph-name="ydieresis" unicode="&#xff;" horiz-adv-x="1103" 
d="M428 1188q-61 0 -101 38t-40 97q0 57 40 96t101 39q60 0 99.5 -39t39.5 -96q0 -58 -39.5 -96.5t-99.5 -38.5zM813 1188q-62 0 -102.5 38.5t-40.5 96.5q0 57 41 96t102 39q60 0 99.5 -39t39.5 -96q0 -58 -39.5 -96.5t-99.5 -38.5zM819 1030h299v-29q-52 -3 -82 -27.5
t-57 -86.5l-412 -965q-77 -179 -171 -267.5t-228 -88.5q-82 0 -160 31l68 213q100 -74 194 -74q160 0 240 196l31 74l-381 881q-29 62 -59.5 86.5t-80.5 27.5v29h480v-29q-74 -3 -104 -32.5t-7 -81.5l262 -625l267 625q23 53 -3 82t-96 32v29z" />
    <glyph glyph-name="Amacron" unicode="&#x100;" horiz-adv-x="1552" 
d="M1053 1618v-70h-557v70h557zM1327 203q41 -92 87 -128.5t132 -45.5v-29h-573v29q102 9 124 45.5t-20 128.5l-106 241h-572l-104 -241q-40 -92 -16.5 -128.5t129.5 -45.5v-29h-383v29q80 9 123 45.5t83 128.5l525 1196h30zM424 502h522l-264 602z" />
    <glyph glyph-name="amacron" unicode="&#x101;" horiz-adv-x="1083" 
d="M805 1280v-70h-557v70h557zM1030 94l43 -2v-29l-332 -94h-28v260q-41 -121 -133.5 -190.5t-212.5 -69.5q-122 0 -198.5 74.5t-76.5 192.5q0 151 109 231.5t368 128.5l144 29v73q0 142 -60 224t-164 82q-57 0 -101.5 -28.5t-65 -73.5t-23 -99.5t24.5 -106.5l-187 -61
q-31 67 -30 129t35.5 116.5t89.5 94.5t132.5 63t163.5 23q184 0 289 -100t105 -271v-487q0 -54 26 -79t82 -30zM713 289v276l-135 -28q-138 -27 -205.5 -85.5t-67.5 -158.5q0 -83 49 -137t125 -54q71 0 135.5 51.5t98.5 135.5z" />
    <glyph glyph-name="Abreve" unicode="&#x102;" horiz-adv-x="1552" 
d="M774 1497q-127 0 -195.5 84t-68.5 258h29q21 -194 235 -194q97 0 161.5 45t74.5 149h28q1 -174 -67.5 -258t-196.5 -84zM1327 203q41 -92 87 -128.5t132 -45.5v-29h-573v29q102 9 124 45.5t-20 128.5l-106 241h-572l-104 -241q-40 -92 -16.5 -128.5t129.5 -45.5v-29h-383
v29q80 9 123 45.5t83 128.5l525 1196h30zM424 502h522l-264 602z" />
    <glyph glyph-name="abreve" unicode="&#x103;" horiz-adv-x="1083" 
d="M528 1159q-128 0 -196.5 84t-67.5 258h29q18 -194 235 -194q215 0 236 194h29q0 -174 -69 -258t-196 -84zM1030 94l43 -2v-29l-332 -94h-28v260q-41 -121 -133.5 -190.5t-212.5 -69.5q-122 0 -198.5 74.5t-76.5 192.5q0 151 109 231.5t368 128.5l144 29v73q0 142 -60 224
t-164 82q-57 0 -101.5 -28.5t-65 -73.5t-23 -99.5t24.5 -106.5l-187 -61q-31 67 -30 129t35.5 116.5t89.5 94.5t132.5 63t163.5 23q184 0 289 -100t105 -271v-487q0 -54 26 -79t82 -30zM713 289v276l-135 -28q-138 -27 -205.5 -85.5t-67.5 -158.5q0 -83 49 -137t125 -54
q71 0 135.5 51.5t98.5 135.5z" />
    <glyph glyph-name="Aogonek" unicode="&#x104;" horiz-adv-x="1552" 
d="M1350 0q-76 -65 -104.5 -111.5t-28.5 -105.5q0 -81 58 -115.5t159 0.5l10 -20q-84 -78 -213 -78q-77 0 -129.5 43.5t-52.5 118.5q0 81 65 144t193 124h-344v29q103 9 125 45.5t-19 128.5l-106 241h-574l-104 -241q-40 -92 -16 -128.5t130 -45.5v-29h-383v29
q79 9 123.5 46t83.5 128l522 1196h33l541 -1196q41 -92 86.5 -128.5t130.5 -45.5v-29h-186zM414 502h524l-266 602z" />
    <glyph glyph-name="aogonek" unicode="&#x105;" horiz-adv-x="1083" 
d="M1112 -336l10 -20q-87 -78 -213 -78q-77 0 -129.5 43.5t-52.5 118.5q0 172 291 319l-277 -78h-28v260q-41 -121 -133.5 -190.5t-212.5 -69.5q-122 0 -198.5 74.5t-76.5 192.5q0 151 109 231.5t368 128.5l144 29v73q0 142 -60 224t-164 82q-57 0 -101.5 -28.5t-65 -73.5
t-23 -99.5t24.5 -106.5l-187 -61q-31 67 -30 129t35.5 116.5t89.5 94.5t132.5 63t163.5 23q184 0 289 -100t105 -271v-487q0 -54 26 -79t82 -30l43 -2v-29h-2l2 -2q-97 -82 -137.5 -145.5t-40.5 -136.5q0 -80 58.5 -115t158.5 0zM713 289v276l-135 -28
q-138 -27 -205.5 -85.5t-67.5 -158.5q0 -83 49 -137t125 -54q71 0 135.5 51.5t98.5 135.5z" />
    <glyph glyph-name="Cacute" unicode="&#x106;" horiz-adv-x="1376" 
d="M692 1501l135 338h226l-332 -338h-29zM741 -31q-189 0 -339.5 90.5t-233.5 246t-84 345.5q0 215 80.5 384t235 266.5t360.5 97.5q195 0 333.5 -81.5t182.5 -225.5l-211 -64q-29 144 -117.5 229.5t-210.5 85.5q-186 0 -303 -166t-117 -432q1 -177 67.5 -314.5t185 -212.5
t268.5 -75q158 0 275 81t165 218l27 -6q-47 -216 -199 -341.5t-365 -125.5z" />
    <glyph glyph-name="cacute" unicode="&#x107;" horiz-adv-x="1046" 
d="M520 1163l135 338h226l-332 -338h-29zM565 -29q-145 0 -255.5 72t-168 193.5t-57.5 271.5q0 155 58 279.5t173 199t269 74.5q106 0 191.5 -41t130 -96.5t55.5 -114.5l-191 -57q-10 66 -33.5 120t-70.5 93t-109 39q-118 0 -192 -115t-74 -287q0 -212 99.5 -337.5
t266.5 -125.5q92 0 174 47.5t134 139.5l24 -7q-37 -161 -149 -254.5t-275 -93.5z" />
    <glyph glyph-name="Ccircumflex" unicode="&#x108;" horiz-adv-x="1376" 
d="M645 1839h189l200 -338h-28l-267 225l-262 -225h-28zM741 -31q-189 0 -339.5 90.5t-233.5 246t-84 345.5q0 215 80.5 384t235 266.5t360.5 97.5q195 0 333.5 -81.5t182.5 -225.5l-211 -64q-29 144 -117.5 229.5t-210.5 85.5q-186 0 -303 -166t-117 -432
q1 -177 67.5 -314.5t185 -212.5t268.5 -75q158 0 275 81t165 218l27 -6q-47 -216 -199 -341.5t-365 -125.5z" />
    <glyph glyph-name="ccircumflex" unicode="&#x109;" horiz-adv-x="1046" 
d="M473 1501h189l200 -338h-28l-267 226l-262 -226h-29zM565 -29q-145 0 -255.5 72t-168 193.5t-57.5 271.5q0 155 58 279.5t173 199t269 74.5q106 0 191.5 -41t130 -96.5t55.5 -114.5l-191 -57q-10 66 -33.5 120t-70.5 93t-109 39q-118 0 -192 -115t-74 -287
q0 -212 99.5 -337.5t266.5 -125.5q92 0 174 47.5t134 139.5l24 -7q-37 -161 -149 -254.5t-275 -93.5z" />
    <glyph glyph-name="Cdotaccent" unicode="&#x10a;" horiz-adv-x="1376" 
d="M752 1526q-63 0 -105.5 40.5t-42.5 100.5q0 59 42.5 99t105.5 40q61 0 102 -40t41 -99q0 -60 -41 -100.5t-102 -40.5zM741 -31q-189 0 -339.5 90.5t-233.5 246t-84 345.5q0 215 80.5 384t235 266.5t360.5 97.5q195 0 333.5 -81.5t182.5 -225.5l-211 -64
q-29 144 -117.5 229.5t-210.5 85.5q-186 0 -303 -166t-117 -432q1 -177 67.5 -314.5t185 -212.5t268.5 -75q158 0 275 81t165 218l27 -6q-47 -216 -199 -341.5t-365 -125.5z" />
    <glyph glyph-name="cdotaccent" unicode="&#x10b;" horiz-adv-x="1046" 
d="M580 1188q-63 0 -105.5 40.5t-42.5 100.5q0 59 42.5 99t105.5 40q61 0 102 -40t41 -99q0 -60 -41 -100.5t-102 -40.5zM565 -29q-145 0 -255.5 72t-168 193.5t-57.5 271.5q0 155 58 279.5t173 199t269 74.5q106 0 191.5 -41t130 -96.5t55.5 -114.5l-191 -57
q-10 66 -33.5 120t-70.5 93t-109 39q-118 0 -192 -115t-74 -287q0 -212 99.5 -337.5t266.5 -125.5q92 0 174 47.5t134 139.5l24 -7q-37 -161 -149 -254.5t-275 -93.5z" />
    <glyph glyph-name="Ccaron" unicode="&#x10c;" horiz-adv-x="1376" 
d="M653 1501l-196 338h28l263 -225l266 225h28l-200 -338h-189zM741 -31q-189 0 -339.5 90.5t-233.5 246t-84 345.5q0 215 80.5 384t235 266.5t360.5 97.5q195 0 333.5 -81.5t182.5 -225.5l-211 -64q-29 144 -117.5 229.5t-210.5 85.5q-186 0 -303 -166t-117 -432
q1 -177 67.5 -314.5t185 -212.5t268.5 -75q158 0 275 81t165 218l27 -6q-47 -216 -199 -341.5t-365 -125.5z" />
    <glyph glyph-name="ccaron" unicode="&#x10d;" horiz-adv-x="1046" 
d="M481 1163l-196 338h28l262 -225l267 225h28l-200 -338h-189zM565 -29q-145 0 -255.5 72t-168 193.5t-57.5 271.5q0 155 58 279.5t173 199t269 74.5q106 0 191.5 -41t130 -96.5t55.5 -114.5l-191 -57q-10 66 -33.5 120t-70.5 93t-109 39q-118 0 -192 -115t-74 -287
q0 -212 99.5 -337.5t266.5 -125.5q92 0 174 47.5t134 139.5l24 -7q-37 -161 -149 -254.5t-275 -93.5z" />
    <glyph glyph-name="Dcaron" unicode="&#x10e;" horiz-adv-x="1495" 
d="M653 1501l-196 338h28l263 -225l266 225h28l-200 -338h-189zM676 1368q154 0 279.5 -34t211 -93t143.5 -140.5t84.5 -174t26.5 -195.5q0 -169 -61 -310t-162.5 -231.5t-228.5 -140t-264 -49.5h-631v29q99 8 140.5 37.5t41.5 109.5v1016q0 79 -41.5 109t-140.5 38v29h602z
M705 57q220 0 349.5 167t129.5 460q0 94 -22.5 184t-68 170t-109 141t-152.5 96.5t-191 35.5h-162v-1139q0 -67 48.5 -91t177.5 -24z" />
    <glyph glyph-name="dcaron" unicode="&#x10f;" horiz-adv-x="1314" 
d="M1122 1153l66 412h196l-233 -412h-29zM502 -31q-189 0 -303.5 148t-114.5 364q0 137 38 249t103 183t149 109.5t177 38.5q86 0 156 -34t112 -93v285q0 53 -26.5 78t-81.5 30l-43 2v29l331 94h29v-1249q0 -54 26.5 -79t82.5 -30l43 -2v-29l-332 -94h-29v240
q-40 -108 -127 -174t-190 -66zM584 100q78 0 142.5 49.5t92.5 129.5v389q0 87 -26.5 158t-85.5 117t-142 46q-74 0 -134.5 -57.5t-94 -156t-33.5 -216.5q0 -86 16.5 -165t49 -146t88 -107.5t127.5 -40.5z" />
    <glyph glyph-name="Dcroat" unicode="&#x110;" horiz-adv-x="1495" 
d="M676 1368q154 0 279.5 -34t211 -93t143.5 -140.5t84.5 -174t26.5 -195.5q0 -169 -61 -310t-162.5 -231.5t-228.5 -140t-264 -49.5h-631v29q99 8 140.5 37.5t41.5 109.5v477h-215v58h215v481q0 79 -41.5 109t-140.5 38v29h602zM705 57q220 0 349.5 167t129.5 460
q0 94 -22.5 184t-68 170t-109 141t-152.5 96.5t-191 35.5h-162v-600h240v-58h-240v-481q0 -67 48.5 -91t177.5 -24z" />
    <glyph glyph-name="dcroat" unicode="&#x111;" horiz-adv-x="1183" 
d="M1028 203q0 -54 26.5 -79t82.5 -30l43 -2v-29l-332 -94h-29v242q-38 -109 -125.5 -175.5t-191.5 -66.5q-189 0 -303.5 148t-114.5 364q0 137 38 249t103 183t149 109.5t177 38.5q86 0 157 -34.5t111 -94.5v215h-235v57h235v148l152 82h57v-230h232v-57h-232v-944z
M819 279v389q0 87 -26.5 158t-85.5 117t-142 46q-74 0 -134.5 -57.5t-94 -156t-33.5 -216.5q0 -86 16.5 -165t49 -146t88 -107.5t127.5 -40.5q78 0 142.5 49.5t92.5 129.5z" />
    <glyph glyph-name="Emacron" unicode="&#x112;" horiz-adv-x="1318" 
d="M954 1618v-70h-557v70h557zM1188 375h29l-54 -375h-1089v29q99 8 140.5 37.5t41.5 109.5v1016q0 79 -41.5 109t-140.5 38v29h1067l53 -373h-29q-78 316 -362 316h-324v-580h230q107 0 145 45.5t43 151.5h29v-453h-29q-5 106 -43.5 152.5t-144.5 46.5h-230v-498
q0 -119 101 -119h247q283 0 361 318z" />
    <glyph glyph-name="emacron" unicode="&#x113;" horiz-adv-x="1073" 
d="M852 1280v-70h-557v70h557zM965 307l24 -10q-35 -142 -147.5 -234t-276.5 -92q-148 0 -259 71.5t-166.5 189t-55.5 262.5q0 254 137 410.5t361 156.5q195 0 300 -123t105 -328h-694q-2 -10 -2 -28q-7 -206 98 -325.5t281 -119.5q99 0 173.5 47t121.5 123zM551 1004
q-101 0 -167.5 -93.5t-86.5 -242.5h473q-2 84 -27 159t-75.5 126t-116.5 51z" />
    <glyph glyph-name="Ebreve" unicode="&#x114;" horiz-adv-x="1318" 
d="M678 1497q-128 0 -196.5 84t-67.5 258h28q10 -104 74.5 -149t161.5 -45q214 0 235 194h29q0 -174 -68.5 -258t-195.5 -84zM1188 375h29l-54 -375h-1089v29q99 8 140.5 37.5t41.5 109.5v1016q0 79 -41.5 109t-140.5 38v29h1067l53 -373h-29q-78 316 -362 316h-324v-580
h230q107 0 145 45.5t43 151.5h29v-453h-29q-5 106 -43.5 152.5t-144.5 46.5h-230v-498q0 -119 101 -119h247q283 0 361 318z" />
    <glyph glyph-name="ebreve" unicode="&#x115;" horiz-adv-x="1073" 
d="M573 1159q-128 0 -196.5 84t-67.5 258h29q18 -194 235 -194q215 0 236 194h29q0 -174 -69 -258t-196 -84zM965 307l24 -10q-35 -142 -147.5 -234t-276.5 -92q-148 0 -259 71.5t-166.5 189t-55.5 262.5q0 254 137 410.5t361 156.5q195 0 300 -123t105 -328h-694
q-2 -10 -2 -28q-7 -206 98 -325.5t281 -119.5q99 0 173.5 47t121.5 123zM551 1004q-101 0 -167.5 -93.5t-86.5 -242.5h473q-2 84 -27 159t-75.5 126t-116.5 51z" />
    <glyph glyph-name="Edotaccent" unicode="&#x116;" horiz-adv-x="1318" 
d="M678 1526q-63 0 -105.5 40.5t-42.5 100.5q0 59 42.5 99t105.5 40q61 0 102 -40t41 -99q0 -60 -41 -100.5t-102 -40.5zM1188 375h29l-54 -375h-1089v29q99 8 140.5 37.5t41.5 109.5v1016q0 79 -41.5 109t-140.5 38v29h1067l53 -373h-29q-78 316 -362 316h-324v-580h230
q107 0 145 45.5t43 151.5h29v-453h-29q-5 106 -43.5 152.5t-144.5 46.5h-230v-498q0 -119 101 -119h247q283 0 361 318z" />
    <glyph glyph-name="edotaccent" unicode="&#x117;" horiz-adv-x="1073" 
d="M573 1188q-63 0 -105 40.5t-42 100.5q0 59 42 99t105 40q61 0 102.5 -40t41.5 -99q0 -60 -41.5 -100.5t-102.5 -40.5zM965 307l24 -10q-35 -142 -147.5 -234t-276.5 -92q-148 0 -259 71.5t-166.5 189t-55.5 262.5q0 254 137 410.5t361 156.5q195 0 300 -123t105 -328
h-694q-2 -10 -2 -28q-7 -206 98 -325.5t281 -119.5q99 0 173.5 47t121.5 123zM551 1004q-101 0 -167.5 -93.5t-86.5 -242.5h473q-2 84 -27 159t-75.5 126t-116.5 51z" />
    <glyph glyph-name="Eogonek" unicode="&#x118;" horiz-adv-x="1318" 
d="M1069 0q-76 -65 -104.5 -111.5t-28.5 -105.5q0 -81 58 -115.5t159 0.5l10 -20q-84 -78 -213 -78q-77 0 -129.5 43.5t-52.5 118.5q0 81 65 144t193 124h-952v29q99 8 140.5 37.5t41.5 109.5v1016q0 79 -41.5 109t-140.5 38v29h1067l53 -373h-29q-78 316 -362 316h-324
v-580h230q107 0 145 45.5t43 151.5h29v-453h-29q-5 106 -43.5 152.5t-144.5 46.5h-230v-498q0 -119 101 -119h247q283 0 361 318h29l-54 -375h-94z" />
    <glyph glyph-name="eogonek" unicode="&#x119;" horiz-adv-x="1073" 
d="M672 -221q0 -80 58.5 -115t158.5 0l10 -20q-87 -78 -213 -78q-77 0 -129.5 43t-52.5 117q0 23 5.5 45t12 38.5t23 36t27 31.5t36 32t38.5 29.5t46 32.5t47 33q-84 -33 -174 -33q-148 0 -259 71.5t-166.5 189t-55.5 262.5q0 254 137 410.5t361 156.5q195 0 300 -123
t105 -328h-694q-2 -10 -2 -28q-7 -206 98 -325.5t281 -119.5q99 0 173.5 47t121.5 123l24 -10q-40 -156 -162 -244q-87 -87 -121 -147.5t-34 -126.5zM551 1004q-101 0 -167.5 -93.5t-86.5 -242.5h473q-2 84 -27 159t-75.5 126t-116.5 51z" />
    <glyph glyph-name="Ecaron" unicode="&#x11a;" horiz-adv-x="1318" 
d="M768 1501h-188l-197 338h29l262 -225l266 225h29zM1188 375h29l-54 -375h-1089v29q99 8 140.5 37.5t41.5 109.5v1016q0 79 -41.5 109t-140.5 38v29h1067l53 -373h-29q-78 316 -362 316h-324v-580h230q107 0 145 45.5t43 151.5h29v-453h-29q-5 106 -43.5 152.5
t-144.5 46.5h-230v-498q0 -119 101 -119h247q283 0 361 318z" />
    <glyph glyph-name="ecaron" unicode="&#x11b;" horiz-adv-x="1073" 
d="M666 1163h-189l-196 338h28l262 -225l267 225h28zM965 307l24 -10q-35 -142 -147.5 -234t-276.5 -92q-148 0 -259 71.5t-166.5 189t-55.5 262.5q0 254 137 410.5t361 156.5q195 0 300 -123t105 -328h-694q-2 -10 -2 -28q-7 -206 98 -325.5t281 -119.5q99 0 173.5 47
t121.5 123zM551 1004q-101 0 -167.5 -93.5t-86.5 -242.5h473q-2 84 -27 159t-75.5 126t-116.5 51z" />
    <glyph glyph-name="Gcircumflex" unicode="&#x11c;" horiz-adv-x="1540" 
d="M678 1839h188l201 -338h-29l-266 225l-262 -225h-29zM766 -31q-149 0 -277 53t-216 145t-138 217t-51 267q0 219 85.5 388.5t246.5 264.5t375 95q199 0 345.5 -83.5t190.5 -223.5l-211 -64q-31 141 -128 228t-226 87q-195 0 -318 -177.5t-120 -456.5q1 -188 67.5 -343
t184 -245t262.5 -90q72 0 141.5 22t116.5 66v364q0 86 -43.5 129.5t-151.5 49.5v28h604v-28q-186 -11 -186 -179v-258q-78 -112 -226 -184t-327 -72z" />
    <glyph glyph-name="gcircumflex" unicode="&#x11d;" horiz-adv-x="1097" 
d="M532 1389l-262 -226h-28l196 338h189l200 -338h-28zM731 158q151 -11 237.5 -75.5t86.5 -184.5q0 -149 -155.5 -240.5t-399.5 -91.5q-207 0 -332 67t-125 172q0 94 60.5 153.5t148.5 82.5q-56 28 -83.5 70.5t-27.5 89.5q0 61 39 117t109 92q-82 47 -130 121t-48 171
q0 156 117.5 257.5t308.5 101.5q99 0 184 -31h321v-57h-215q136 -102 136 -271q0 -153 -118 -253.5t-308 -100.5q-123 0 -224 49q-55 -52 -55 -108q0 -36 40.5 -70.5t107.5 -38.5zM522 1001q-86 0 -140 -73.5t-54 -190.5q0 -146 62.5 -237.5t160.5 -91.5q86 0 140 73t54 191
q0 144 -62 236.5t-161 92.5zM569 -381q149 0 250 55.5t101 141.5q0 140 -222 161l-292 25q-58 5 -117 23q-76 -76 -76 -148q0 -119 100.5 -188.5t255.5 -69.5z" />
    <glyph glyph-name="Gbreve" unicode="&#x11e;" horiz-adv-x="1540" 
d="M782 1497q-128 0 -196.5 84t-67.5 258h29q18 -194 235 -194q215 0 236 194h29q0 -174 -69 -258t-196 -84zM766 -31q-149 0 -277 53t-216 145t-138 217t-51 267q0 219 85.5 388.5t246.5 264.5t375 95q199 0 345.5 -83.5t190.5 -223.5l-211 -64q-31 141 -128 228t-226 87
q-195 0 -318 -177.5t-120 -456.5q1 -188 67.5 -343t184 -245t262.5 -90q72 0 141.5 22t116.5 66v364q0 86 -43.5 129.5t-151.5 49.5v28h604v-28q-186 -11 -186 -179v-258q-78 -112 -226 -184t-327 -72z" />
    <glyph glyph-name="gbreve" unicode="&#x11f;" horiz-adv-x="1097" 
d="M545 1159q-128 0 -196.5 84t-67.5 258h28q10 -104 74.5 -149t161.5 -45q214 0 235 194h29q0 -174 -68.5 -258t-195.5 -84zM731 158q151 -11 237.5 -75.5t86.5 -184.5q0 -149 -155.5 -240.5t-399.5 -91.5q-207 0 -332 67t-125 172q0 94 60.5 153.5t148.5 82.5
q-56 28 -83.5 70.5t-27.5 89.5q0 61 39 117t109 92q-82 47 -130 121t-48 171q0 156 117.5 257.5t308.5 101.5q99 0 184 -31h321v-57h-215q136 -102 136 -271q0 -153 -118 -253.5t-308 -100.5q-123 0 -224 49q-55 -52 -55 -108q0 -36 40.5 -70.5t107.5 -38.5zM522 1001
q-86 0 -140 -73.5t-54 -190.5q0 -146 62.5 -237.5t160.5 -91.5q86 0 140 73t54 191q0 144 -62 236.5t-161 92.5zM569 -381q149 0 250 55.5t101 141.5q0 140 -222 161l-292 25q-58 5 -117 23q-76 -76 -76 -148q0 -119 100.5 -188.5t255.5 -69.5z" />
    <glyph glyph-name="Gdotaccent" unicode="&#x120;" horiz-adv-x="1540" 
d="M782 1526q-63 0 -105 40.5t-42 100.5q0 59 42 99t105 40q61 0 102.5 -40t41.5 -99q0 -60 -41.5 -100.5t-102.5 -40.5zM766 -31q-149 0 -277 53t-216 145t-138 217t-51 267q0 219 85.5 388.5t246.5 264.5t375 95q199 0 345.5 -83.5t190.5 -223.5l-211 -64
q-31 141 -128 228t-226 87q-195 0 -318 -177.5t-120 -456.5q1 -188 67.5 -343t184 -245t262.5 -90q72 0 141.5 22t116.5 66v364q0 86 -43.5 129.5t-151.5 49.5v28h604v-28q-186 -11 -186 -179v-258q-78 -112 -226 -184t-327 -72z" />
    <glyph glyph-name="gdotaccent" unicode="&#x121;" horiz-adv-x="1097" 
d="M545 1188q-63 0 -105.5 40.5t-42.5 100.5q0 59 42.5 99t105.5 40q61 0 102 -40t41 -99q0 -60 -41 -100.5t-102 -40.5zM731 158q151 -11 237.5 -75.5t86.5 -184.5q0 -149 -155.5 -240.5t-399.5 -91.5q-207 0 -332 67t-125 172q0 94 60.5 153.5t148.5 82.5
q-56 28 -83.5 70.5t-27.5 89.5q0 61 39 117t109 92q-82 47 -130 121t-48 171q0 156 117.5 257.5t308.5 101.5q99 0 184 -31h321v-57h-215q136 -102 136 -271q0 -153 -118 -253.5t-308 -100.5q-123 0 -224 49q-55 -52 -55 -108q0 -36 40.5 -70.5t107.5 -38.5zM522 1001
q-86 0 -140 -73.5t-54 -190.5q0 -146 62.5 -237.5t160.5 -91.5q86 0 140 73t54 191q0 144 -62 236.5t-161 92.5zM569 -381q149 0 250 55.5t101 141.5q0 140 -222 161l-292 25q-58 5 -117 23q-76 -76 -76 -148q0 -119 100.5 -188.5t255.5 -69.5z" />
    <glyph glyph-name="uni0122" unicode="&#x122;" horiz-adv-x="1540" 
d="M766 -31q-149 0 -277 53t-216 145t-138 217t-51 267q0 219 85.5 388.5t246.5 264.5t375 95q199 0 345.5 -83.5t190.5 -223.5l-211 -64q-31 141 -128 228t-226 87q-195 0 -318 -177.5t-120 -456.5q1 -188 67.5 -343t184 -245t262.5 -90q72 0 141.5 22t116.5 66v364
q0 86 -43.5 129.5t-151.5 49.5v28h604v-28q-186 -11 -186 -179v-258q-78 -112 -226 -184t-327 -72zM690 -453l-18 17q41 63 47.5 166.5t-25.5 173.5l191 14q44 -220 -195 -371z" />
    <glyph glyph-name="uni0123" unicode="&#x123;" horiz-adv-x="1097" 
d="M672 1161l-191 -16q-46 219 195 371l18 -15q-42 -65 -48.5 -168t26.5 -172zM731 158q151 -11 237.5 -75.5t86.5 -184.5q0 -149 -155.5 -240.5t-399.5 -91.5q-207 0 -332 67t-125 172q0 94 60.5 153.5t148.5 82.5q-56 28 -83.5 70.5t-27.5 89.5q0 61 39 117t109 92
q-82 47 -130 121t-48 171q0 156 117.5 257.5t308.5 101.5q99 0 184 -31h321v-57h-215q136 -102 136 -271q0 -153 -118 -253.5t-308 -100.5q-123 0 -224 49q-55 -52 -55 -108q0 -36 40.5 -70.5t107.5 -38.5zM522 1001q-86 0 -140 -73.5t-54 -190.5q0 -146 62.5 -237.5
t160.5 -91.5q86 0 140 73t54 191q0 144 -62 236.5t-161 92.5zM569 -381q149 0 250 55.5t101 141.5q0 140 -222 161l-292 25q-58 5 -117 23q-76 -76 -76 -148q0 -119 100.5 -188.5t255.5 -69.5z" />
    <glyph glyph-name="Hcircumflex" unicode="&#x124;" horiz-adv-x="1634" 
d="M807 1726l-262 -225h-29l197 338h188l201 -338h-29zM1561 1339q-99 -8 -141 -38t-42 -109v-1016q0 -80 41.5 -108.5t141.5 -38.5v-29h-588v29q101 10 141.5 38.5t40.5 108.5v496h-676v-496q0 -80 40 -108.5t140 -38.5v-29h-585v29q100 10 141 38.5t41 108.5v1016
q0 79 -41.5 109t-140.5 38v29h585v-29q-98 -8 -139 -38t-41 -109v-463h676v463q0 79 -41 109t-141 38v29h588v-29z" />
    <glyph glyph-name="hcircumflex" unicode="&#x125;" horiz-adv-x="1259" 
d="M594 1499l-264 225l-264 -225h-29l196 338h191l199 -338h-29zM1102 154q0 -61 31 -86t96 -39v-29h-463v29q66 14 97.5 39t31.5 86v573q0 91 -47 143t-129 52q-70 0 -132.5 -33.5t-131.5 -108.5v-626q0 -61 31.5 -86t97.5 -39v-29h-463v29q65 14 96 39t31 86v1065
q0 52 -26.5 77.5t-82.5 30.5l-43 2v29l330 94h29v-618q87 111 171 169t185 58q140 0 215.5 -85t75.5 -237v-585z" />
    <glyph glyph-name="Hbar" unicode="&#x126;" horiz-adv-x="1634" 
d="M1561 1339q-99 -8 -141 -38t-42 -109v-150h176v-53h-176v-813q0 -80 41.5 -108.5t141.5 -38.5v-29h-588v29q101 10 141.5 38.5t40.5 108.5v496h-676v-496q0 -80 40 -108.5t140 -38.5v-29h-585v29q100 10 141 38.5t41 108.5v813h-180v53h180v150q0 79 -41.5 109t-140.5 38
v29h585v-29q-98 -8 -139 -38t-41 -109v-150h676v150q0 79 -41 109t-141 38v29h588v-29zM1155 729v260h-676v-260h676z" />
    <glyph glyph-name="hbar" unicode="&#x127;" horiz-adv-x="1208" 
d="M1051 154q0 -61 31.5 -86t97.5 -39v-29h-463v29q65 14 96 39t31 86v573q0 91 -47 143t-129 52q-70 0 -131.5 -33.5t-130.5 -108.5v-626q0 -61 30.5 -86t95.5 -39v-29h-462v29q66 14 96.5 39t30.5 86v993h-205v57h205v15q0 52 -26.5 77.5t-82.5 30.5l-43 2v29l332 94h29
v-248h262v-57h-262v-313q85 110 170 168.5t186 58.5q140 0 214.5 -85t74.5 -237v-585z" />
    <glyph glyph-name="Itilde" unicode="&#x128;" 
d="M494 1524q-47 0 -103.5 27t-110 54t-94.5 27q-82 0 -112 -106l-29 2q10 115 60.5 177t130.5 62q43 0 101.5 -27t114 -54t91.5 -27q82 0 112 104l29 -2q-9 -112 -59.5 -174.5t-130.5 -62.5zM74 0v29q100 10 141 38.5t41 108.5v1016q0 79 -41.5 109t-140.5 38v29h585v-29
q-98 -8 -139 -38t-41 -109v-1016q0 -80 40 -108.5t140 -38.5v-29h-585z" />
    <glyph glyph-name="itilde" unicode="&#x129;" horiz-adv-x="632" 
d="M602 1425l29 -2q-9 -112 -60 -174.5t-131 -62.5q-47 0 -103 27t-109.5 54t-94.5 27q-36 0 -66.5 -25t-46.5 -81l-28 2q10 115 60 177.5t130 62.5q34 0 78.5 -17t80.5 -37.5t77.5 -37.5t70.5 -17q83 0 113 104zM428 154q0 -61 30.5 -86t96.5 -39v-29h-463v29
q66 14 96.5 39t30.5 86v675q0 52 -26 78.5t-82 32.5h-43v29l331 94h29v-909z" />
    <glyph glyph-name="Imacron" unicode="&#x12a;" 
d="M86 1548v70h557v-70h-557zM74 0v29q100 10 141 38.5t41 108.5v1016q0 79 -41.5 109t-140.5 38v29h585v-29q-98 -8 -139 -38t-41 -109v-1016q0 -80 40 -108.5t140 -38.5v-29h-585z" />
    <glyph glyph-name="imacron" unicode="&#x12b;" horiz-adv-x="632" 
d="M33 1280h557v-70h-557v70zM428 154q0 -61 30.5 -86t96.5 -39v-29h-463v29q66 14 96.5 39t30.5 86v675q0 52 -26 78.5t-82 32.5h-43v29l331 94h29v-909z" />
    <glyph glyph-name="Ibreve" unicode="&#x12c;" 
d="M367 1497q-128 0 -197 84t-68 258h29q10 -104 74.5 -149t161.5 -45q214 0 235 194h29q0 -174 -68.5 -258t-195.5 -84zM74 0v29q100 10 141 38.5t41 108.5v1016q0 79 -41.5 109t-140.5 38v29h585v-29q-98 -8 -139 -38t-41 -109v-1016q0 -80 40 -108.5t140 -38.5v-29h-585z
" />
    <glyph glyph-name="ibreve" unicode="&#x12d;" horiz-adv-x="632" 
d="M313 1159q-128 0 -196.5 84t-67.5 258h29q18 -194 235 -194q215 0 236 194h29q0 -174 -69 -258t-196 -84zM428 154q0 -61 30.5 -86t96.5 -39v-29h-463v29q66 14 96.5 39t30.5 86v675q0 52 -26 78.5t-82 32.5h-43v29l331 94h29v-909z" />
    <glyph glyph-name="Iogonek" unicode="&#x12e;" 
d="M659 1339q-98 -8 -139 -38t-41 -109v-1016q0 -80 40 -108.5t140 -38.5v-29h-198q-76 -65 -104.5 -111.5t-28.5 -105.5q0 -81 58 -115.5t159 0.5l10 -20q-84 -78 -213 -78q-77 0 -129.5 43.5t-52.5 118.5q0 81 65 144t193 124h-344v29q100 10 141 38.5t41 108.5v1016
q0 79 -41.5 109t-140.5 38v29h585v-29z" />
    <glyph glyph-name="iogonek" unicode="&#x12f;" horiz-adv-x="632" 
d="M313 1188q-63 0 -105 40.5t-42 100.5q0 59 42 99t105 40q61 0 102.5 -40t41.5 -99q0 -60 -41.5 -100.5t-102.5 -40.5zM418 0q-76 -65 -104.5 -111.5t-28.5 -105.5q0 -81 58 -115.5t159 0.5l10 -20q-84 -78 -213 -78q-77 0 -129.5 43.5t-52.5 118.5q0 81 65 144t193 124
h-283v29q66 14 96.5 39t30.5 86v675q0 52 -26 78.5t-82 32.5h-43v29l331 94h29v-909q0 -61 30.5 -86t96.5 -39v-29h-137z" />
    <glyph glyph-name="Idotaccent" unicode="&#x130;" 
d="M367 1526q-63 0 -105.5 40.5t-42.5 100.5q0 59 42.5 99t105.5 40q61 0 102 -40t41 -99q0 -60 -41 -100.5t-102 -40.5zM74 0v29q100 10 141 38.5t41 108.5v1016q0 79 -41.5 109t-140.5 38v29h585v-29q-98 -8 -139 -38t-41 -109v-1016q0 -80 40 -108.5t140 -38.5v-29h-585z
" />
    <glyph glyph-name="IJ" unicode="&#x132;" horiz-adv-x="1835" 
d="M74 0v29q100 10 141 38.5t41 108.5v1016q0 79 -41.5 109t-140.5 38v29h585v-29q-98 -8 -139 -38t-41 -109v-1016q0 -80 40 -108.5t140 -38.5v-29h-585zM1780 1368v-29q-100 -5 -140.5 -37.5t-40.5 -117.5v-801q0 -202 -113.5 -308t-318.5 -106q-179 0 -290.5 86
t-135.5 228l236 63q7 -147 63.5 -233t143.5 -86q89 0 141.5 77t52.5 222v858q0 86 -40 118t-142 37v29h584z" />
    <glyph glyph-name="ij" unicode="&#x133;" horiz-adv-x="1146" 
d="M918 1190q-64 0 -106 40.5t-42 100.5q0 59 42 99t106 40q61 0 102 -40t41 -99q0 -60 -41 -100.5t-102 -40.5zM311 1188q-64 0 -106.5 40.5t-42.5 100.5q0 59 42.5 99t106.5 40q61 0 102.5 -40t41.5 -99q0 -60 -41.5 -100.5t-102.5 -40.5zM428 154q0 -61 30.5 -86
t96.5 -39v-29h-463v29q66 14 96.5 39t30.5 86v675q0 52 -26 78.5t-82 32.5h-43v29l331 94h29v-909zM672 969l332 94h28v-911q0 -110 -18 -193t-62.5 -158t-124 -132.5t-198.5 -102.5l-13 22q71 52 112.5 105.5t68 148.5t26.5 234v753q0 53 -25.5 79t-82.5 32h-43v29z" />
    <glyph glyph-name="Jcircumflex" unicode="&#x134;" horiz-adv-x="1116" 
d="M662 1839h188l201 -338h-29l-266 225l-262 -225h-29zM1061 1368v-29q-100 -5 -140 -37.5t-40 -117.5v-801q0 -202 -113.5 -308t-318.5 -106q-179 0 -290.5 86t-135.5 228l235 63q7 -147 63.5 -233t143.5 -86q89 0 141.5 77t52.5 222v858q0 86 -40 118t-142 37v29h584z
" />
    <glyph glyph-name="jcircumflex" unicode="&#x135;" horiz-adv-x="567" 
d="M385 1503l201 -338h-29l-266 226l-262 -226h-29l197 338h188zM57 969l330 94h29v-911q0 -110 -18 -193t-62 -158t-123.5 -132.5t-198.5 -102.5l-12 22q70 52 111.5 105t68.5 149t27 234v753q0 52 -26.5 78.5t-82.5 32.5h-43v29z" />
    <glyph glyph-name="uni0136" unicode="&#x136;" horiz-adv-x="1550" 
d="M1294 178q42 -62 106 -103.5t130 -45.5v-29h-414q-7 51 -67 139l-402 582l-168 -158v-387q0 -80 40 -108.5t140 -38.5v-29h-585v29q100 10 141 38.5t41 108.5v1016q0 79 -41.5 109t-140.5 38v29h585v-29q-98 -8 -139 -38t-41 -109v-551l615 578q66 61 43 90t-140 30v29
h433v-29q-129 -6 -263 -131l-358 -336zM655 -96l191 14q44 -220 -195 -371l-18 17q41 63 47.5 166.5t-25.5 173.5z" />
    <glyph glyph-name="uni0137" unicode="&#x137;" horiz-adv-x="1232" 
d="M1022 137q30 -51 72.5 -76.5t122.5 -31.5v-29h-367q-4 41 -47 113l-264 448l-125 -115v-292q0 -61 31 -86t96 -39v-29h-463v29q66 14 97.5 39t31.5 86v1065q0 52 -26.5 77.5t-82.5 30.5l-45 2v29l332 94h29v-926l405 369q56 51 41.5 78.5t-100.5 27.5v29h379v-29
q-69 0 -124 -28t-151 -115l-170 -156zM549 -96l190 14q44 -220 -194 -371l-19 17q41 63 48 166t-25 174z" />
    <glyph glyph-name="kgreenlandic" unicode="&#x138;" horiz-adv-x="1261" 
d="M1047 137q30 -51 71.5 -76.5t120.5 -31.5v-29h-365q-4 41 -47 113l-264 448l-125 -115v-294q0 -61 30.5 -85t96.5 -38v-29h-463v29q66 14 96.5 38t30.5 85v677q0 52 -26 78.5t-82 30.5l-43 2v29l332 92h28v-535l406 369q56 51 41 78.5t-101 27.5v29h377v-29
q-69 0 -122 -27.5t-150 -115.5l-170 -156z" />
    <glyph glyph-name="Lacute" unicode="&#x139;" horiz-adv-x="1212" 
d="M670 1839l-332 -338h-29l135 338h226zM1133 375h28l-51 -375h-1036v29q102 9 142 40.5t40 106.5v1016q0 75 -40 106.5t-142 40.5v29h585v-29q-100 -9 -140 -40.5t-40 -106.5v-1016q0 -119 101 -119h192q287 0 361 318z" />
    <glyph glyph-name="lacute" unicode="&#x13a;" horiz-adv-x="595" 
d="M616 1884l-331 -338h-29l135 338h225zM414 154q0 -61 31 -86t96 -39v-29h-463v29q66 14 97.5 39t31.5 86v1065q0 52 -26.5 77.5t-82.5 30.5l-45 2v29l332 94h29v-1298z" />
    <glyph glyph-name="uni013B" unicode="&#x13b;" horiz-adv-x="1212" 
d="M1133 375h28l-51 -375h-1036v29q102 9 142 40.5t40 106.5v1016q0 75 -40 106.5t-142 40.5v29h585v-29q-100 -9 -140 -40.5t-40 -106.5v-1016q0 -119 101 -119h192q287 0 361 318zM512 -96l190 14q44 -220 -194 -371l-19 17q41 63 48 166t-25 174z" />
    <glyph glyph-name="uni013C" unicode="&#x13c;" horiz-adv-x="595" 
d="M414 154q0 -61 31 -86t96 -39v-29h-463v29q66 14 97.5 39t31.5 86v1065q0 52 -26.5 77.5t-82.5 30.5l-45 2v29l332 94h29v-1298zM223 -96l191 14q44 -220 -195 -371l-18 17q41 63 47.5 166.5t-25.5 173.5z" />
    <glyph glyph-name="Lcaron" unicode="&#x13d;" horiz-adv-x="1212" 
d="M995 1565l-231 -412h-29l66 412h194zM1133 375h28l-51 -375h-1036v29q102 9 142 40.5t40 106.5v1016q0 75 -40 106.5t-142 40.5v29h585v-29q-100 -9 -140 -40.5t-40 -106.5v-1016q0 -119 101 -119h192q287 0 361 318z" />
    <glyph glyph-name="lcaron" unicode="&#x13e;" horiz-adv-x="702" 
d="M770 1565l-231 -412h-29l65 412h195zM414 154q0 -61 31 -86t96 -39v-29h-463v29q66 14 97.5 39t31.5 86v1065q0 52 -26.5 77.5t-82.5 30.5l-45 2v29l332 94h29v-1298z" />
    <glyph glyph-name="Ldot" unicode="&#x13f;" horiz-adv-x="1212" 
d="M1133 375h28l-51 -375h-1036v29q102 9 142 40.5t40 106.5v1016q0 75 -40 106.5t-142 40.5v29h585v-29q-100 -9 -140 -40.5t-40 -106.5v-1016q0 -119 101 -119h192q287 0 361 318zM862 588q-57 0 -97 39.5t-40 97.5q0 56 40 95.5t97 39.5q60 0 97.5 -39t37.5 -96
q0 -58 -39 -97.5t-96 -39.5z" />
    <glyph glyph-name="ldot" unicode="&#x140;" horiz-adv-x="839" 
d="M414 154q0 -61 31 -86t96 -39v-29h-463v29q66 14 97.5 39t31.5 86v1065q0 52 -26.5 77.5t-82.5 30.5l-45 2v29l332 94h29v-1298zM657 860q60 0 99 -39t39 -96q0 -58 -40.5 -97.5t-97.5 -39.5t-97 39.5t-40 97.5q0 56 40 95.5t97 39.5z" />
    <glyph glyph-name="Lslash" unicode="&#x141;" horiz-adv-x="1212" 
d="M1133 375h28l-51 -375h-1036v29q102 9 142 40.5t40 106.5v412l-180 -88v65l180 88v539q0 75 -40 106.5t-142 40.5v29h585v-29q-100 -9 -140 -40.5t-40 -106.5v-430l367 178v-63l-367 -181v-520q0 -119 101 -119h192q287 0 361 318z" />
    <glyph glyph-name="lslash" unicode="&#x142;" horiz-adv-x="598" 
d="M414 154q0 -61 31 -86t96 -39v-29h-463v29q66 14 97.5 39t31.5 86v499l-141 -69v65l141 70v500q0 52 -26.5 77.5t-82.5 30.5l-45 2v29l332 94h29v-631l143 72v-66l-143 -71v-602z" />
    <glyph glyph-name="Nacute" unicode="&#x143;" horiz-adv-x="1531" 
d="M1073 1839l-332 -338h-28l135 338h225zM1001 1368h459v-29q-105 -8 -143.5 -44t-38.5 -130v-1196h-57l-889 1190v-956q0 -94 46 -129.5t173 -44.5v-29h-459v29q104 9 143 45t39 129v1026q-47 54 -92 80t-108 30v29h381l766 -1032v829q0 93 -48 129.5t-172 44.5v29z" />
    <glyph glyph-name="nacute" unicode="&#x144;" horiz-adv-x="1234" 
d="M952 1501l-331 -338h-29l135 338h225zM1079 154q0 -61 30.5 -86t96.5 -39v-29h-463v29q66 14 96.5 39t30.5 86v573q0 91 -46.5 143t-129.5 52q-72 0 -133.5 -34t-132.5 -112v-622q0 -61 30.5 -86t96.5 -39v-29h-463v29q66 14 96.5 39t30.5 86v675q0 100 -108 109l-43 2
v29l331 92h29v-234q91 116 174.5 175t185.5 59q140 0 215.5 -85t75.5 -237v-585z" />
    <glyph glyph-name="uni0145" unicode="&#x145;" horiz-adv-x="1531" 
d="M1001 1368h459v-29q-105 -8 -143.5 -44t-38.5 -130v-1196h-57l-889 1190v-956q0 -94 46 -129.5t173 -44.5v-29h-459v29q104 9 143 45t39 129v1026q-47 54 -92 80t-108 30v29h381l766 -1032v829q0 93 -48 129.5t-172 44.5v29zM682 -96l190 14q44 -220 -194 -371l-19 17
q41 63 48 166t-25 174z" />
    <glyph glyph-name="uni0146" unicode="&#x146;" horiz-adv-x="1234" 
d="M1079 154q0 -61 30.5 -86t96.5 -39v-29h-463v29q66 14 96.5 39t30.5 86v573q0 91 -46.5 143t-129.5 52q-72 0 -133.5 -34t-132.5 -112v-622q0 -61 30.5 -86t96.5 -39v-29h-463v29q66 14 96.5 39t30.5 86v675q0 100 -108 109l-43 2v29l331 92h29v-234q91 116 174.5 175
t185.5 59q140 0 215.5 -85t75.5 -237v-585zM561 -96l191 14q44 -220 -195 -371l-18 17q41 63 47.5 166.5t-25.5 173.5z" />
    <glyph glyph-name="Ncaron" unicode="&#x147;" horiz-adv-x="1531" 
d="M862 1501h-188l-197 338h29l262 -225l266 225h29zM1001 1368h459v-29q-105 -8 -143.5 -44t-38.5 -130v-1196h-57l-889 1190v-956q0 -94 46 -129.5t173 -44.5v-29h-459v29q104 9 143 45t39 129v1026q-47 54 -92 80t-108 30v29h381l766 -1032v829q0 93 -48 129.5t-172 44.5
v29z" />
    <glyph glyph-name="ncaron" unicode="&#x148;" horiz-adv-x="1234" 
d="M741 1163h-188l-197 338h29l262 -225l266 225h29zM1079 154q0 -61 30.5 -86t96.5 -39v-29h-463v29q66 14 96.5 39t30.5 86v573q0 91 -46.5 143t-129.5 52q-72 0 -133.5 -34t-132.5 -112v-622q0 -61 30.5 -86t96.5 -39v-29h-463v29q66 14 96.5 39t30.5 86v675
q0 100 -108 109l-43 2v29l331 92h29v-234q91 116 174.5 175t185.5 59q140 0 215.5 -85t75.5 -237v-585z" />
    <glyph glyph-name="napostrophe" unicode="&#x149;" horiz-adv-x="1234" 
d="M254 1323q-55 0 -88 32.5t-33 86.5q0 52 40 87.5t99 35.5q67 0 107.5 -41.5t40.5 -112.5q0 -116 -76.5 -195.5t-206.5 -91.5v25q79 17 135.5 67t57.5 127q-38 -20 -76 -20zM1079 154q0 -61 30.5 -86t96.5 -39v-29h-463v29q66 14 96.5 39t30.5 86v573q0 91 -46.5 143
t-129.5 52q-72 0 -133.5 -34t-132.5 -112v-622q0 -61 30.5 -86t96.5 -39v-29h-463v29q66 14 96.5 39t30.5 86v675q0 100 -108 109l-43 2v29l331 92h29v-234q91 116 174.5 175t185.5 59q140 0 215.5 -85t75.5 -237v-585z" />
    <glyph glyph-name="Eng" unicode="&#x14a;" horiz-adv-x="1531" 
d="M918 -434q-143 0 -242.5 67.5t-134.5 188.5l200 41q14 -106 75.5 -171t160.5 -65q109 0 177.5 71.5t68.5 192.5q0 72 -66 164l-825 1102v-981q0 -67 49 -102.5t170 -44.5v-29h-459v29q101 10 141.5 45.5t40.5 101.5v1057q-45 53 -90 77.5t-110 28.5v29h381l766 -1036v860
q0 75 -50.5 108.5t-169.5 38.5v29h459v-29q-98 -5 -140 -38.5t-42 -108.5v-1247q0 -184 -96 -281.5t-264 -97.5z" />
    <glyph glyph-name="eng" unicode="&#x14b;" horiz-adv-x="1228" 
d="M788 1061q139 0 215 -85t76 -237v-587q0 -110 -18 -193t-62.5 -158t-124 -132.5t-198.5 -102.5l-12 22q71 52 112.5 105.5t67.5 148.5t26 234v651q0 91 -46.5 143t-129.5 52q-72 0 -133.5 -34t-132.5 -112v-624q0 -61 30.5 -85t96.5 -38v-29h-463v29q66 14 96.5 38
t30.5 85v677q0 53 -26.5 78.5t-81.5 30.5l-43 2v29l331 92h29v-234q91 116 174.5 175t185.5 59z" />
    <glyph glyph-name="Omacron" unicode="&#x14c;" horiz-adv-x="1558" 
d="M506 1548v70h557v-70h-557zM780 -31q-158 0 -290 53.5t-220.5 146.5t-137 218t-48.5 268q0 216 91 386t252 264t364 94q158 0 290 -53.5t219.5 -146.5t136 -218t48.5 -268q0 -216 -90.5 -386t-251 -264t-363.5 -94zM821 27q193 0 309.5 173t116.5 447q1 191 -60.5 349
t-176.5 251.5t-260 93.5q-194 1 -310 -171t-118 -449q0 -191 63 -349.5t178 -251.5t258 -93z" />
    <glyph glyph-name="omacron" unicode="&#x14d;" horiz-adv-x="1161" 
d="M301 1210v70h557v-70h-557zM571 -29q-217 0 -352 145.5t-135 377.5q0 252 141 409.5t365 157.5q217 0 352 -145.5t135 -378.5q0 -252 -141 -409t-365 -157zM608 29q117 0 184.5 115.5t67.5 304.5q0 99 -18.5 194.5t-54 177.5t-96 132.5t-136.5 50.5q-117 0 -184.5 -115.5
t-67.5 -302.5q0 -101 18.5 -196.5t54 -178t96 -132.5t136.5 -50z" />
    <glyph glyph-name="Obreve" unicode="&#x14e;" horiz-adv-x="1558" 
d="M786 1497q-128 0 -196.5 84t-67.5 258h29q18 -194 235 -194q215 0 236 194h29q0 -174 -69 -258t-196 -84zM780 -31q-158 0 -290 53.5t-220.5 146.5t-137 218t-48.5 268q0 216 91 386t252 264t364 94q158 0 290 -53.5t219.5 -146.5t136 -218t48.5 -268q0 -216 -90.5 -386
t-251 -264t-363.5 -94zM821 27q193 0 309.5 173t116.5 447q1 191 -60.5 349t-176.5 251.5t-260 93.5q-194 1 -310 -171t-118 -449q0 -191 63 -349.5t178 -251.5t258 -93z" />
    <glyph glyph-name="obreve" unicode="&#x14f;" horiz-adv-x="1161" 
d="M582 1159q-128 0 -197 84t-68 258h29q10 -104 74.5 -149t161.5 -45q214 0 235 194h29q0 -174 -68.5 -258t-195.5 -84zM571 -29q-217 0 -352 145.5t-135 377.5q0 252 141 409.5t365 157.5q217 0 352 -145.5t135 -378.5q0 -252 -141 -409t-365 -157zM608 29
q117 0 184.5 115.5t67.5 304.5q0 99 -18.5 194.5t-54 177.5t-96 132.5t-136.5 50.5q-117 0 -184.5 -115.5t-67.5 -302.5q0 -101 18.5 -196.5t54 -178t96 -132.5t136.5 -50z" />
    <glyph glyph-name="Ohungarumlaut" unicode="&#x150;" horiz-adv-x="1558" 
d="M633 1501l135 338h225l-331 -338h-29zM907 1501l135 338h226l-332 -338h-29zM780 -31q-158 0 -290 53.5t-220.5 146.5t-137 218t-48.5 268q0 216 91 386t252 264t364 94q158 0 290 -53.5t219.5 -146.5t136 -218t48.5 -268q0 -216 -90.5 -386t-251 -264t-363.5 -94z
M821 27q193 0 309.5 173t116.5 447q1 191 -60.5 349t-176.5 251.5t-260 93.5q-194 1 -310 -171t-118 -449q0 -191 63 -349.5t178 -251.5t258 -93z" />
    <glyph glyph-name="ohungarumlaut" unicode="&#x151;" horiz-adv-x="1161" 
d="M428 1163l135 338h225l-331 -338h-29zM702 1163l136 338h225l-332 -338h-29zM571 -29q-217 0 -352 145.5t-135 377.5q0 252 141 409.5t365 157.5q217 0 352 -145.5t135 -378.5q0 -252 -141 -409t-365 -157zM608 29q117 0 184.5 115.5t67.5 304.5q0 99 -18.5 194.5
t-54 177.5t-96 132.5t-136.5 50.5q-117 0 -184.5 -115.5t-67.5 -302.5q0 -101 18.5 -196.5t54 -178t96 -132.5t136.5 -50z" />
    <glyph glyph-name="OE" unicode="&#x152;" horiz-adv-x="2119" 
d="M793 -29q-154 0 -287.5 53.5t-225.5 145.5t-144 217.5t-52 267.5q0 161 56.5 300t153.5 235.5t229 151.5t280 55q142 0 252 -29h889l51 -367h-29q-76 312 -360 312h-326v-584h258q88 0 122.5 47.5t39.5 151.5h29v-453h-29q-5 105 -39.5 153t-122.5 48h-258v-500
q0 -121 102 -121h248q283 0 359 312h28l-51 -367h-930q-106 -29 -243 -29zM819 31q104 0 172 42.5t68 129.5v932q0 202 -260 202q-215 1 -345 -169.5t-132 -446.5q0 -143 39.5 -271.5t106 -220t158.5 -145t193 -53.5z" />
    <glyph glyph-name="oe" unicode="&#x153;" horiz-adv-x="1863" 
d="M1460 137q99 0 173.5 47t121.5 123l23 -10q-34 -142 -146 -234t-276 -92q-128 0 -226.5 52t-160.5 145q-68 -95 -170.5 -146t-227.5 -51q-217 0 -352 145.5t-135 377.5q0 252 141 409.5t365 157.5q125 0 225.5 -51t165.5 -144q67 94 167 144.5t224 50.5q193 0 298.5 -123
t107.5 -328h-695q-2 -10 -2 -28q-7 -206 98 -325.5t281 -119.5zM608 29q117 0 184.5 115.5t67.5 304.5q0 99 -18.5 194.5t-54 177.5t-96 132.5t-136.5 50.5q-117 0 -184.5 -115.5t-67.5 -302.5q0 -101 18.5 -196.5t54 -178t96 -132.5t136.5 -50zM1341 1004
q-102 0 -168 -93.5t-86 -242.5h472q-2 84 -26.5 159t-75 126t-116.5 51z" />
    <glyph glyph-name="Racute" unicode="&#x154;" horiz-adv-x="1443" 
d="M989 1839l-332 -338h-28l135 338h225zM1214 152q35 -50 94.5 -84t118.5 -39v-29h-395q-8 36 -57 109l-346 493h-150v-426q0 -80 40.5 -109.5t139.5 -37.5v-29h-585v29q99 8 140.5 37.5t41.5 109.5v1016q0 79 -41.5 109t-140.5 38v29h600q253 0 399 -98t146 -287
q0 -146 -90.5 -236.5t-254.5 -125.5zM481 1311l-2 -652h164q162 0 250 88t88 236q0 149 -88.5 238.5t-249.5 89.5h-162z" />
    <glyph glyph-name="racute" unicode="&#x155;" horiz-adv-x="841" 
d="M793 1503l-332 -338h-29l135 338h226zM729 1061q45 0 84 -19l-12 -194q-44 31 -119 31q-73 0 -141.5 -45t-112.5 -129v-551q0 -63 41.5 -87.5t151.5 -37.5v-29h-543v29q73 14 107 39t34 86v675q0 100 -108 109l-43 2v29l331 92h29v-291q54 140 131.5 215.5t169.5 75.5z
" />
    <glyph glyph-name="uni0156" unicode="&#x156;" horiz-adv-x="1443" 
d="M1214 152q35 -50 94.5 -84t118.5 -39v-29h-395q-8 36 -57 109l-346 493h-150v-426q0 -80 40.5 -109.5t139.5 -37.5v-29h-585v29q99 8 140.5 37.5t41.5 109.5v1016q0 79 -41.5 109t-140.5 38v29h600q253 0 399 -98t146 -287q0 -146 -90.5 -236.5t-254.5 -125.5zM481 1311
l-2 -652h164q162 0 250 88t88 236q0 149 -88.5 238.5t-249.5 89.5h-162zM635 -96l190 14q44 -220 -194 -371l-19 17q41 63 48 166t-25 174z" />
    <glyph glyph-name="uni0157" unicode="&#x157;" horiz-adv-x="841" 
d="M729 1061q45 0 84 -19l-12 -194q-44 31 -119 31q-73 0 -141.5 -45t-112.5 -129v-551q0 -63 41.5 -87.5t151.5 -37.5v-29h-543v29q73 14 107 39t34 86v675q0 100 -108 109l-43 2v29l331 92h29v-291q54 140 131.5 215.5t169.5 75.5zM236 -96l190 14q44 -220 -195 -371
l-18 17q41 63 48 166t-25 174z" />
    <glyph glyph-name="Rcaron" unicode="&#x158;" horiz-adv-x="1443" 
d="M778 1501h-188l-197 338h29l262 -225l266 225h29zM1214 152q35 -50 94.5 -84t118.5 -39v-29h-395q-8 36 -57 109l-346 493h-150v-426q0 -80 40.5 -109.5t139.5 -37.5v-29h-585v29q99 8 140.5 37.5t41.5 109.5v1016q0 79 -41.5 109t-140.5 38v29h600q253 0 399 -98
t146 -287q0 -146 -90.5 -236.5t-254.5 -125.5zM481 1311l-2 -652h164q162 0 250 88t88 236q0 149 -88.5 238.5t-249.5 89.5h-162z" />
    <glyph glyph-name="rcaron" unicode="&#x159;" horiz-adv-x="841" 
d="M582 1165h-189l-196 338h28l262 -225l267 225h28zM729 1061q45 0 84 -19l-12 -194q-44 31 -119 31q-73 0 -141.5 -45t-112.5 -129v-551q0 -63 41.5 -87.5t151.5 -37.5v-29h-543v29q73 14 107 39t34 86v675q0 100 -108 109l-43 2v29l331 92h29v-291q54 140 131.5 215.5
t169.5 75.5z" />
    <glyph glyph-name="Sacute" unicode="&#x15a;" horiz-adv-x="1210" 
d="M553 1501l135 338h225l-331 -338h-29zM618 -29q-197 0 -341.5 86.5t-186.5 239.5l201 57q31 -146 128.5 -235.5t225.5 -89.5q120 0 193 68t73 177q0 66 -26.5 118t-71.5 87t-103 63.5t-122 52.5t-128 49.5t-122 58.5t-103 74.5t-71.5 103t-26.5 139.5q0 170 129.5 273.5
t345.5 103.5q176 0 315 -80t187 -221l-201 -58q-33 136 -125 218.5t-204 82.5q-113 0 -182.5 -61.5t-69.5 -161.5q0 -54 22 -98t60 -74.5t88.5 -58.5t107.5 -48.5t117 -45t117 -48.5t107.5 -59.5t88.5 -76.5t60 -100.5t22 -131.5q0 -186 -136.5 -295t-367.5 -109z" />
    <glyph glyph-name="sacute" unicode="&#x15b;" horiz-adv-x="970" 
d="M436 1163l135 338h226l-332 -338h-29zM504 -29q-147 0 -264 65.5t-164 168.5l168 84q25 -116 101 -188t173 -72q91 0 149 48.5t58 127.5q-1 62 -35 106.5t-87.5 70.5t-118 47.5t-129 46t-118 56.5t-87.5 88.5t-35 133.5q-2 136 102 221.5t275 85.5q135 0 239.5 -55
t140.5 -150l-155 -76q-31 101 -98 162.5t-148 61.5q-85 0 -137.5 -45t-52.5 -117q0 -55 33.5 -94.5t87 -64t118.5 -45.5t130 -46.5t119.5 -60t89 -93.5t36.5 -139q1 -145 -109 -236.5t-282 -91.5z" />
    <glyph glyph-name="Scircumflex" unicode="&#x15c;" horiz-adv-x="1210" 
d="M506 1839h188l201 -338h-29l-266 225l-262 -225h-29zM618 -29q-197 0 -341.5 86.5t-186.5 239.5l201 57q31 -146 128.5 -235.5t225.5 -89.5q120 0 193 68t73 177q0 66 -26.5 118t-71.5 87t-103 63.5t-122 52.5t-128 49.5t-122 58.5t-103 74.5t-71.5 103t-26.5 139.5
q0 170 129.5 273.5t345.5 103.5q176 0 315 -80t187 -221l-201 -58q-33 136 -125 218.5t-204 82.5q-113 0 -182.5 -61.5t-69.5 -161.5q0 -54 22 -98t60 -74.5t88.5 -58.5t107.5 -48.5t117 -45t117 -48.5t107.5 -59.5t88.5 -76.5t60 -100.5t22 -131.5q0 -186 -136.5 -295
t-367.5 -109z" />
    <glyph glyph-name="scircumflex" unicode="&#x15d;" horiz-adv-x="970" 
d="M389 1501h189l200 -338h-28l-267 226l-262 -226h-28zM504 -29q-147 0 -264 65.5t-164 168.5l168 84q25 -116 101 -188t173 -72q91 0 149 48.5t58 127.5q-1 62 -35 106.5t-87.5 70.5t-118 47.5t-129 46t-118 56.5t-87.5 88.5t-35 133.5q-2 136 102 221.5t275 85.5
q135 0 239.5 -55t140.5 -150l-155 -76q-31 101 -98 162.5t-148 61.5q-85 0 -137.5 -45t-52.5 -117q0 -55 33.5 -94.5t87 -64t118.5 -45.5t130 -46.5t119.5 -60t89 -93.5t36.5 -139q1 -145 -109 -236.5t-282 -91.5z" />
    <glyph glyph-name="Scedilla" unicode="&#x15e;" horiz-adv-x="1210" 
d="M1122 375q0 -184 -133.5 -292.5t-359.5 -111.5l-29 -82q65 -9 109.5 -48.5t44.5 -112.5q0 -96 -93.5 -139.5t-234.5 -16.5l2 29q88 -9 139.5 19t53.5 83q1 47 -31.5 74.5t-89.5 38.5l84 155q-185 8 -319 94.5t-175 231.5l201 57q31 -146 128.5 -235.5t225.5 -89.5
q120 0 193 68t73 177q0 66 -26.5 118t-71.5 87t-103 63.5t-122 52.5t-128 49.5t-122 58.5t-103 74.5t-71.5 103t-26.5 139.5q0 170 129.5 273.5t345.5 103.5q176 0 315 -80t187 -221l-201 -58q-33 136 -125 218.5t-204 82.5q-113 0 -182.5 -61.5t-69.5 -161.5q0 -54 22 -98
t60 -74.5t88.5 -58.5t107.5 -48.5t117 -45t117 -48.5t107.5 -59.5t88.5 -76.5t60 -100.5t22 -131.5z" />
    <glyph glyph-name="scedilla" unicode="&#x15f;" horiz-adv-x="970" 
d="M504 -29h-10l-29 -82q65 -9 109 -48t44 -113q0 -96 -93 -139.5t-234 -16.5l2 29q88 -9 139 19t53 83q1 47 -31 74.5t-89 38.5l84 157q-129 12 -230 75.5t-143 156.5l168 84q25 -116 101 -188t173 -72q91 0 149 48.5t58 127.5q-1 62 -35 106.5t-87.5 70.5t-118 47.5
t-129 46t-118 56.5t-87.5 88.5t-35 133.5q-2 136 102 221.5t275 85.5q135 0 239.5 -55t140.5 -150l-155 -76q-31 101 -98 162.5t-148 61.5q-85 0 -137.5 -45t-52.5 -117q0 -55 33.5 -94.5t87 -64t118.5 -45.5t130 -46.5t119.5 -60t89 -93.5t36.5 -139q1 -145 -109 -236.5
t-282 -91.5z" />
    <glyph glyph-name="Scaron" unicode="&#x160;" horiz-adv-x="1210" 
d="M514 1501l-197 338h29l262 -225l266 225h29l-201 -338h-188zM618 -29q-197 0 -341.5 86.5t-186.5 239.5l201 57q31 -146 128.5 -235.5t225.5 -89.5q120 0 193 68t73 177q0 66 -26.5 118t-71.5 87t-103 63.5t-122 52.5t-128 49.5t-122 58.5t-103 74.5t-71.5 103
t-26.5 139.5q0 170 129.5 273.5t345.5 103.5q176 0 315 -80t187 -221l-201 -58q-33 136 -125 218.5t-204 82.5q-113 0 -182.5 -61.5t-69.5 -161.5q0 -54 22 -98t60 -74.5t88.5 -58.5t107.5 -48.5t117 -45t117 -48.5t107.5 -59.5t88.5 -76.5t60 -100.5t22 -131.5
q0 -186 -136.5 -295t-367.5 -109z" />
    <glyph glyph-name="scaron" unicode="&#x161;" horiz-adv-x="970" 
d="M397 1163l-196 338h28l263 -225l266 225h28l-200 -338h-189zM504 -29q-147 0 -264 65.5t-164 168.5l168 84q25 -116 101 -188t173 -72q91 0 149 48.5t58 127.5q-1 62 -35 106.5t-87.5 70.5t-118 47.5t-129 46t-118 56.5t-87.5 88.5t-35 133.5q-2 136 102 221.5t275 85.5
q135 0 239.5 -55t140.5 -150l-155 -76q-31 101 -98 162.5t-148 61.5q-85 0 -137.5 -45t-52.5 -117q0 -55 33.5 -94.5t87 -64t118.5 -45.5t130 -46.5t119.5 -60t89 -93.5t36.5 -139q1 -145 -109 -236.5t-282 -91.5z" />
    <glyph glyph-name="uni0162" unicode="&#x162;" horiz-adv-x="1357" 
d="M1253 1368l52 -373h-29q-75 316 -361 316h-124v-1135q0 -75 40 -106.5t142 -40.5v-29h-281l-39 -111q65 -9 109.5 -48.5t44.5 -112.5q0 -96 -93.5 -139.5t-234.5 -16.5l2 29q88 -9 139.5 19t53.5 83q1 47 -31.5 74.5t-89.5 38.5l98 184h-266v29q102 9 142 40.5t40 106.5
v1135h-125q-285 0 -360 -316h-29l51 373h1149z" />
    <glyph glyph-name="uni0163" unicode="&#x163;" horiz-adv-x="722" 
d="M428 -31h-10l-29 -80q65 -9 109.5 -48.5t44.5 -112.5q0 -96 -93.5 -139.5t-234.5 -16.5l2 29q88 -9 139.5 19t53.5 83q1 47 -31.5 74.5t-89.5 38.5l84 157q-95 17 -149 90.5t-54 190.5v719h-113v28l293 273h29v-244h301v-57h-301v-711q0 -85 42 -135.5t118 -50.5
q32 0 58.5 9t40 18t32.5 26l16 -12q-33 -59 -95.5 -103.5t-162.5 -44.5z" />
    <glyph glyph-name="Tcaron" unicode="&#x164;" horiz-adv-x="1357" 
d="M772 1501h-188l-197 338h29l262 -225l266 225h29zM1253 1368l52 -373h-29q-75 316 -361 316h-124v-1135q0 -75 40 -106.5t142 -40.5v-29h-588v29q102 9 142 40.5t40 106.5v1135h-125q-285 0 -360 -316h-29l51 373h1149z" />
    <glyph glyph-name="tcaron" unicode="&#x165;" horiz-adv-x="724" 
d="M735 1565l-233 -412h-29l66 412h196zM539 76q32 0 58.5 9t40 18t32.5 26l16 -12q-33 -59 -95.5 -103.5t-162.5 -44.5q-119 0 -188.5 75.5t-69.5 209.5v719h-113v28l293 273h29v-244h301v-57h-301v-711q0 -85 42 -135.5t118 -50.5z" />
    <glyph glyph-name="Tbar" unicode="&#x166;" horiz-adv-x="1357" 
d="M1253 1368l52 -373h-29q-75 316 -361 316h-124v-600h225v-58h-225v-477q0 -75 40 -106.5t142 -40.5v-29h-588v29q102 9 142 40.5t40 106.5v477h-229v58h229v600h-125q-285 0 -360 -316h-29l51 373h1149z" />
    <glyph glyph-name="tbar" unicode="&#x167;" horiz-adv-x="722" 
d="M670 129l16 -12q-33 -59 -95.5 -103.5t-162.5 -44.5q-119 0 -188.5 75.5t-69.5 209.5v321h-180v58h180v340h-113v28l293 273h29v-244h301v-57h-301v-340h254v-58h-254v-313q0 -85 42 -135.5t118 -50.5q32 0 58.5 9t40 18t32.5 26z" />
    <glyph glyph-name="Utilde" unicode="&#x168;" horiz-adv-x="1515" 
d="M633 1632q-36 0 -66.5 -25t-46.5 -81l-28 2q10 115 60 177t130 62q43 0 101.5 -27t114 -54t91.5 -27q83 0 113 104l28 -2q-9 -112 -59.5 -174.5t-130.5 -62.5q-47 0 -103 27t-109.5 54t-94.5 27zM1047 1368h421v-29q-100 -8 -141 -38t-41 -109v-705q0 -235 -134.5 -375.5
t-360.5 -140.5q-261 0 -411.5 138.5t-150.5 377.5v705q0 79 -41 109t-141 38v29h588v-29q-100 -8 -141 -38t-41 -109v-705q0 -192 109 -303.5t298 -111.5q169 0 269 113t100 302v705q0 79 -41.5 109t-140.5 38v29z" />
    <glyph glyph-name="utilde" unicode="&#x169;" horiz-adv-x="1214" 
d="M422 1294q-36 0 -66.5 -25t-46.5 -81l-28 2q10 115 60 177.5t130 62.5q34 0 78.5 -17t80.5 -37.5t77.5 -37.5t70.5 -17q83 0 113 104l29 -2q-9 -112 -60 -174.5t-131 -62.5q-47 0 -103 27t-109.5 54t-94.5 27zM1147 94l43 -2v-29l-330 -94h-29v234q-91 -116 -174.5 -175
t-185.5 -59q-140 0 -215.5 85t-75.5 237v538q0 52 -26 78.5t-82 32.5h-45v29l331 94h29v-760q0 -91 47 -142.5t129 -51.5q72 0 135 33.5t133 111.5v575q0 52 -26.5 78.5t-83.5 32.5h-43v29l332 94h28v-860q0 -54 27 -79t82 -30z" />
    <glyph glyph-name="Umacron" unicode="&#x16a;" horiz-adv-x="1515" 
d="M1090 1618v-70h-558v70h558zM1047 1368h421v-29q-100 -8 -141 -38t-41 -109v-705q0 -235 -134.5 -375.5t-360.5 -140.5q-261 0 -411.5 138.5t-150.5 377.5v705q0 79 -41 109t-141 38v29h588v-29q-100 -8 -141 -38t-41 -109v-705q0 -192 109 -303.5t298 -111.5
q169 0 269 113t100 302v705q0 79 -41.5 109t-140.5 38v29z" />
    <glyph glyph-name="umacron" unicode="&#x16b;" horiz-adv-x="1214" 
d="M879 1280v-70h-557v70h557zM1147 94l43 -2v-29l-330 -94h-29v234q-91 -116 -174.5 -175t-185.5 -59q-140 0 -215.5 85t-75.5 237v538q0 52 -26 78.5t-82 32.5h-45v29l331 94h29v-760q0 -91 47 -142.5t129 -51.5q72 0 135 33.5t133 111.5v575q0 52 -26.5 78.5t-83.5 32.5
h-43v29l332 94h28v-860q0 -54 27 -79t82 -30z" />
    <glyph glyph-name="Ubreve" unicode="&#x16c;" horiz-adv-x="1515" 
d="M811 1497q-128 0 -196.5 84t-67.5 258h28q10 -104 74.5 -149t161.5 -45q215 0 236 194h28q0 -174 -68.5 -258t-195.5 -84zM1047 1368h421v-29q-100 -8 -141 -38t-41 -109v-705q0 -235 -134.5 -375.5t-360.5 -140.5q-261 0 -411.5 138.5t-150.5 377.5v705q0 79 -41 109
t-141 38v29h588v-29q-100 -8 -141 -38t-41 -109v-705q0 -192 109 -303.5t298 -111.5q169 0 269 113t100 302v705q0 79 -41.5 109t-140.5 38v29z" />
    <glyph glyph-name="ubreve" unicode="&#x16d;" horiz-adv-x="1214" 
d="M602 1159q-128 0 -196.5 84t-67.5 258h29q18 -194 235 -194q215 0 236 194h28q0 -174 -68.5 -258t-195.5 -84zM1147 94l43 -2v-29l-330 -94h-29v234q-91 -116 -174.5 -175t-185.5 -59q-140 0 -215.5 85t-75.5 237v538q0 52 -26 78.5t-82 32.5h-45v29l331 94h29v-760
q0 -91 47 -142.5t129 -51.5q72 0 135 33.5t133 111.5v575q0 52 -26.5 78.5t-83.5 32.5h-43v29l332 94h28v-860q0 -54 27 -79t82 -30z" />
    <glyph glyph-name="Uring" unicode="&#x16e;" horiz-adv-x="1515" 
d="M811 1477q-89 0 -146 55t-57 139q0 85 57 140t146 55t146 -55t57 -140q0 -84 -57 -139t-146 -55zM811 1804q-55 0 -92 -37t-37 -94q0 -58 37.5 -96.5t91.5 -38.5q57 0 93 38t36 97q0 57 -36 94t-93 37zM1047 1368h421v-29q-100 -8 -141 -38t-41 -109v-705
q0 -235 -134.5 -375.5t-360.5 -140.5q-261 0 -411.5 138.5t-150.5 377.5v705q0 79 -41 109t-141 38v29h588v-29q-100 -8 -141 -38t-41 -109v-705q0 -192 109 -303.5t298 -111.5q169 0 269 113t100 302v705q0 79 -41.5 109t-140.5 38v29z" />
    <glyph glyph-name="uring" unicode="&#x16f;" horiz-adv-x="1214" 
d="M600 1139q-89 0 -146 55t-57 139q0 85 57 140t146 55t146 -55t57 -140q0 -84 -57 -139t-146 -55zM600 1466q-54 0 -91.5 -37t-37.5 -94q0 -58 37.5 -96.5t91.5 -38.5q57 0 93 38t36 97q0 57 -36 94t-93 37zM1147 94l43 -2v-29l-330 -94h-29v234q-91 -116 -174.5 -175
t-185.5 -59q-140 0 -215.5 85t-75.5 237v538q0 52 -26 78.5t-82 32.5h-45v29l331 94h29v-760q0 -91 47 -142.5t129 -51.5q72 0 135 33.5t133 111.5v575q0 52 -26.5 78.5t-83.5 32.5h-43v29l332 94h28v-860q0 -54 27 -79t82 -30z" />
    <glyph glyph-name="Uhungarumlaut" unicode="&#x170;" horiz-adv-x="1515" 
d="M1020 1839l-332 -338h-29l136 338h225zM963 1501h-29l135 338h225zM1047 1368h421v-29q-100 -8 -141 -38t-41 -109v-705q0 -235 -134.5 -375.5t-360.5 -140.5q-261 0 -411.5 138.5t-150.5 377.5v705q0 79 -41 109t-141 38v29h588v-29q-100 -8 -141 -38t-41 -109v-705
q0 -192 109 -303.5t298 -111.5q169 0 269 113t100 302v705q0 79 -41.5 109t-140.5 38v29z" />
    <glyph glyph-name="uhungarumlaut" unicode="&#x171;" horiz-adv-x="1224" 
d="M801 1501l-332 -338h-29l135 338h226zM743 1163h-28l135 338h225zM1147 94l43 -2v-29l-330 -94h-29v234q-91 -116 -174.5 -175t-185.5 -59q-140 0 -215.5 85t-75.5 237v538q0 52 -26 78.5t-82 32.5h-45v29l331 94h29v-760q0 -91 47 -142.5t129 -51.5q72 0 135 33.5
t133 111.5v575q0 52 -26.5 78.5t-83.5 32.5h-43v29l332 94h28v-860q0 -54 27 -79t82 -30z" />
    <glyph glyph-name="Uogonek" unicode="&#x172;" horiz-adv-x="1515" 
d="M1047 1368h421v-29q-100 -8 -141 -38t-41 -109v-705q0 -191 -91.5 -321.5t-250.5 -173.5q-70 -62 -96.5 -106.5t-26.5 -102.5q0 -81 58 -115.5t159 0.5l11 -20q-84 -78 -213 -78q-77 0 -130 43.5t-53 118.5q0 72 52.5 129.5t156.5 113.5q-50 -4 -71 -4
q-261 0 -411.5 138.5t-150.5 377.5v705q0 79 -41 109t-141 38v29h588v-29q-100 -8 -141 -38t-41 -109v-705q0 -192 109 -303.5t298 -111.5q169 0 269 113t100 302v705q0 79 -41.5 109t-140.5 38v29z" />
    <glyph glyph-name="uogonek" unicode="&#x173;" horiz-adv-x="1214" 
d="M1229 -336l10 -20q-87 -78 -213 -78q-77 0 -129.5 43.5t-52.5 118.5q0 172 291 319l-275 -78h-29v234q-91 -116 -174.5 -175t-185.5 -59q-140 0 -215.5 85t-75.5 237v538q0 52 -26 78.5t-82 32.5h-45v29l331 94h29v-760q0 -91 47 -142.5t129 -51.5q72 0 135 33.5
t133 111.5v575q0 52 -26.5 78.5t-83.5 32.5h-43v29l332 94h28v-860q0 -54 27 -79t82 -30l43 -2v-29h-2l2 -2q-97 -82 -137.5 -145.5t-40.5 -136.5q0 -80 58.5 -115t158.5 0z" />
    <glyph glyph-name="Wcircumflex" unicode="&#x174;" horiz-adv-x="2095" 
d="M973 1726l-262 -225h-29l197 338h188l201 -338h-29zM1716 1368h363v-29q-78 -14 -116.5 -47.5t-72.5 -126.5l-442 -1196h-31l-368 977l-357 -977h-28l-451 1196q-15 42 -28 67t-35 50.5t-54.5 39t-79.5 17.5v29h498v-29q-87 -10 -101.5 -51.5t19.5 -122.5l320 -876
l266 739l-51 137q-31 86 -72 126.5t-125 47.5v29h498v-29q-86 -10 -100.5 -51.5t20.5 -122.5l319 -880l322 880q12 34 17 54t4 44t-14.5 37.5t-43 24t-76.5 14.5v29z" />
    <glyph glyph-name="wcircumflex" unicode="&#x175;" horiz-adv-x="1683" 
d="M831 1389l-262 -226h-28l196 338h189l200 -338h-28zM1391 1030h284v-29q-47 -3 -75 -27.5t-54 -86.5l-377 -918h-26l-295 711l-295 -711h-29l-381 918q-26 58 -55 84t-80 30v29h467v-29q-68 -2 -96.5 -32t-7.5 -82l250 -623l194 496l-53 127q-24 58 -53 84t-84 30v29h469
v-29q-70 -2 -98.5 -32t-6.5 -82l248 -623l246 623q20 50 -4.5 80.5t-87.5 33.5v29z" />
    <glyph glyph-name="Ycircumflex" unicode="&#x176;" horiz-adv-x="1335" 
d="M598 1839h188l201 -338h-29l-266 225l-262 -225h-29zM377 0v29q95 8 134.5 38t39.5 109v457l-334 532q-57 92 -100.5 128.5t-108.5 45.5v29h541v-29q-102 -7 -117.5 -43.5t41.5 -130.5l283 -452l280 452q57 94 35 130t-141 44v29h397v-29q-73 -9 -119.5 -45t-103.5 -129
l-332 -532v-457q0 -79 40.5 -109t135.5 -38v-29h-571z" />
    <glyph glyph-name="ycircumflex" unicode="&#x177;" horiz-adv-x="1103" 
d="M598 1389l-262 -226h-29l197 338h188l201 -338h-29zM819 1030h299v-29q-52 -3 -82 -27.5t-57 -86.5l-412 -965q-77 -179 -171 -267.5t-228 -88.5q-82 0 -160 31l68 213q100 -74 194 -74q160 0 240 196l31 74l-381 881q-29 62 -59.5 86.5t-80.5 27.5v29h480v-29
q-74 -3 -104 -32.5t-7 -81.5l262 -625l267 625q23 53 -3 82t-96 32v29z" />
    <glyph glyph-name="Ydieresis" unicode="&#x178;" horiz-adv-x="1335" 
d="M520 1526q-61 0 -101 38t-40 97q0 57 40 96t101 39q60 0 99.5 -39t39.5 -96q0 -58 -39.5 -96.5t-99.5 -38.5zM905 1526q-62 0 -102.5 38.5t-40.5 96.5q0 57 41 96t102 39q60 0 99.5 -39t39.5 -96q0 -58 -39.5 -96.5t-99.5 -38.5zM377 0v29q95 8 134.5 38t39.5 109v457
l-334 532q-57 92 -100.5 128.5t-108.5 45.5v29h541v-29q-102 -7 -117.5 -43.5t41.5 -130.5l283 -452l280 452q57 94 35 130t-141 44v29h397v-29q-73 -9 -119.5 -45t-103.5 -129l-332 -532v-457q0 -79 40.5 -109t135.5 -38v-29h-571z" />
    <glyph glyph-name="Zacute" unicode="&#x179;" horiz-adv-x="1245" 
d="M981 1839l-332 -338h-28l135 338h225zM1151 375h29l-54 -375h-1063v29l830 1282h-383q-285 0 -360 -316h-29l51 373h1004v-29l-832 -1282h447q282 0 360 318z" />
    <glyph glyph-name="zacute" unicode="&#x17a;" horiz-adv-x="993" 
d="M449 1163l135 338h225l-332 -338h-28zM932 1030v-29l-625 -944h342q182 0 252 291h29l-41 -348h-834v29l625 944h-313q-87 0 -148.5 -60.5t-103.5 -197.5h-29l27 315h819z" />
    <glyph glyph-name="Zdotaccent" unicode="&#x17b;" horiz-adv-x="1245" 
d="M678 1526q-63 0 -105.5 40.5t-42.5 100.5q0 59 42.5 99t105.5 40q61 0 102 -40t41 -99q0 -60 -41 -100.5t-102 -40.5zM1151 375h29l-54 -375h-1063v29l830 1282h-383q-285 0 -360 -316h-29l51 373h1004v-29l-832 -1282h447q282 0 360 318z" />
    <glyph glyph-name="zdotaccent" unicode="&#x17c;" horiz-adv-x="993" 
d="M508 1188q-63 0 -105.5 40.5t-42.5 100.5q0 59 42.5 99t105.5 40q61 0 102 -40t41 -99q0 -60 -41 -100.5t-102 -40.5zM932 1030v-29l-625 -944h342q182 0 252 291h29l-41 -348h-834v29l625 944h-313q-87 0 -148.5 -60.5t-103.5 -197.5h-29l27 315h819z" />
    <glyph glyph-name="Zcaron" unicode="&#x17d;" horiz-adv-x="1245" 
d="M770 1501h-188l-197 338h29l262 -225l266 225h29zM1151 375h29l-54 -375h-1063v29l830 1282h-383q-285 0 -360 -316h-29l51 373h1004v-29l-832 -1282h447q282 0 360 318z" />
    <glyph glyph-name="zcaron" unicode="&#x17e;" horiz-adv-x="993" 
d="M412 1163l-197 338h29l262 -225l266 225h29l-201 -338h-188zM932 1030v-29l-625 -944h342q182 0 252 291h29l-41 -348h-834v29l625 944h-313q-87 0 -148.5 -60.5t-103.5 -197.5h-29l27 315h819z" />
    <glyph glyph-name="longs" unicode="&#x17f;" horiz-adv-x="745" 
d="M625 1481q211 0 270 -117l-162 -113q-11 73 -48.5 122.5t-86.5 49.5q-82 0 -124 -78t-42 -198v-993q0 -63 42.5 -87.5t152.5 -37.5v-29h-543v29q73 14 107 39t34 86v804h-172v58h172v71q0 128 55.5 219t144 133t200.5 42z" />
    <glyph glyph-name="florin" unicode="&#x192;" horiz-adv-x="985" 
d="M641 1171v-364h266v-68h-266v-362q0 -102 -31.5 -182t-85.5 -129t-122 -74t-146 -25q-113 0 -188.5 44.5t-96.5 129.5l164 92q12 -91 47.5 -149.5t98.5 -58.5q74 0 113.5 81.5t39.5 210.5v422h-264v68h264v305q0 103 31.5 183t85.5 128.5t122 73.5t146 25
q113 0 188.5 -44t96.5 -128l-164 -93q-12 90 -47 148.5t-98 58.5q-74 0 -114 -81.5t-40 -211.5z" />
    <glyph glyph-name="Aringacute" unicode="&#x1fa;" horiz-adv-x="1552" 
d="M774 1477q-89 0 -146 55t-57 139q0 73 45 125t117 64l117 297h227l-289 -293q83 -4 136 -58.5t53 -134.5q0 -84 -57 -139t-146 -55zM774 1804q-56 0 -92.5 -37t-36.5 -94q0 -58 36.5 -96.5t92.5 -38.5t92.5 38.5t36.5 96.5q0 57 -36.5 94t-92.5 37zM1327 203
q41 -92 87 -128.5t132 -45.5v-29h-573v29q102 9 124 45.5t-20 128.5l-106 241h-572l-104 -241q-40 -92 -16.5 -128.5t129.5 -45.5v-29h-383v29q80 9 123 45.5t83 128.5l525 1196h30zM424 502h522l-264 602z" />
    <glyph glyph-name="aringacute" unicode="&#x1fb;" horiz-adv-x="1083" 
d="M526 1139q-89 0 -145.5 55t-56.5 139q0 75 45 128t118 63l117 295h225l-286 -291q83 -6 134.5 -60.5t51.5 -134.5q0 -84 -57 -139t-146 -55zM526 1466q-54 0 -91.5 -37t-37.5 -94q0 -58 37.5 -96.5t91.5 -38.5q57 0 93 38t36 97q0 57 -36 94t-93 37zM1030 94l43 -2v-29
l-332 -94h-28v260q-41 -121 -133.5 -190.5t-212.5 -69.5q-122 0 -198.5 74.5t-76.5 192.5q0 151 109 231.5t368 128.5l144 29v73q0 142 -60 224t-164 82q-57 0 -101.5 -28.5t-65 -73.5t-23 -99.5t24.5 -106.5l-187 -61q-31 67 -30 129t35.5 116.5t89.5 94.5t132.5 63
t163.5 23q184 0 289 -100t105 -271v-487q0 -54 26 -79t82 -30zM713 289v276l-135 -28q-138 -27 -205.5 -85.5t-67.5 -158.5q0 -83 49 -137t125 -54q71 0 135.5 51.5t98.5 135.5z" />
    <glyph glyph-name="AEacute" unicode="&#x1fc;" horiz-adv-x="2062" 
d="M1610 1839l-332 -338h-29l135 338h226zM1931 375h29l-53 -375h-1090v29q99 8 140.5 37.5t41.5 109.5v318h-483l-180 -279q-56 -85 -36 -128t124 -58v-29h-408v29q77 17 137 61t113 125l629 965q46 72 14 108.5t-149 50.5v29h1124l51 -373h-28q-75 316 -361 316h-325v-580
h258q88 0 122 46.5t39 150.5h29v-453h-29q-5 105 -39 152t-122 47h-258v-498q0 -61 24.5 -90t77.5 -29h248q282 0 360 318zM555 551h444v684z" />
    <glyph glyph-name="aeacute" unicode="&#x1fd;" horiz-adv-x="1703" 
d="M1149 1501l-332 -338h-29l136 338h225zM1300 137q99 0 173.5 47t121.5 123l23 -10q-34 -142 -146 -234t-276 -92q-150 0 -259.5 69.5t-166.5 190.5q-57 -129 -155.5 -195.5t-229.5 -66.5q-132 0 -212.5 74t-80.5 193q0 148 108 226t369 132l144 29v75q0 142 -60 224
t-164 82q-57 0 -101 -29t-65.5 -74t-21.5 -102t25 -111l-187 -61q-44 86 -28 164.5t70.5 138.5t146.5 95.5t200 35.5q232 0 322 -158q136 158 362 158q193 0 298.5 -123t107.5 -328h-694q-2 -10 -2 -28q-7 -206 97.5 -325.5t280.5 -119.5zM1182 1004q-102 0 -168 -93.5
t-86 -242.5h471q-2 84 -26.5 159t-75 126t-115.5 51zM487 102q85 0 153.5 48.5t109.5 125.5q-37 98 -37 218v4v65l-135 -28q-138 -28 -205.5 -86t-67.5 -156q0 -84 50 -137.5t132 -53.5z" />
    <glyph glyph-name="Oslashacute" unicode="&#x1fe;" horiz-adv-x="1558" 
d="M1087 1839l-331 -338h-29l135 338h225zM1108 1333q179 -81 278 -246t99 -374q0 -216 -90.5 -386t-251 -264t-363.5 -94q-140 0 -258 41l-88 -196l-55 24l86 195q-180 81 -280.5 247t-100.5 375q0 216 91 386t252 264t364 94q144 0 260 -43l86 194l57 -22zM322 721
q0 -172 52.5 -319.5t145.5 -243.5l484 1093q-114 90 -254 90q-194 1 -310 -171t-118 -449zM1247 647q1 172 -50 318.5t-144 242.5l-486 -1091q117 -90 254 -90q193 0 309.5 173t116.5 447z" />
    <glyph glyph-name="oslashacute" unicode="&#x1ff;" horiz-adv-x="1161" 
d="M885 1501l-332 -338h-29l135 338h226zM813 1012q123 -61 193.5 -185.5t70.5 -289.5q0 -252 -141 -409t-365 -157q-82 0 -168 27l-61 -152l-51 21l61 151q-126 61 -197 185.5t-71 290.5q0 252 141 409.5t365 157.5q88 0 170 -29l61 152l51 -23zM303 586q0 -121 26 -236.5
t77 -195.5l313 774q-73 76 -164 76q-117 0 -184.5 -115.5t-67.5 -302.5zM608 29q117 0 184.5 115.5t67.5 304.5q0 118 -26 232.5t-76 195.5l-312 -775q70 -73 162 -73z" />
    <glyph glyph-name="uni0218" unicode="&#x218;" horiz-adv-x="1210" 
d="M618 -29q-197 0 -341.5 86.5t-186.5 239.5l201 57q31 -146 128.5 -235.5t225.5 -89.5q120 0 193 68t73 177q0 66 -26.5 118t-71.5 87t-103 63.5t-122 52.5t-128 49.5t-122 58.5t-103 74.5t-71.5 103t-26.5 139.5q0 170 129.5 273.5t345.5 103.5q176 0 315 -80t187 -221
l-201 -58q-33 136 -125 218.5t-204 82.5q-113 0 -182.5 -61.5t-69.5 -161.5q0 -54 22 -98t60 -74.5t88.5 -58.5t107.5 -48.5t117 -45t117 -48.5t107.5 -59.5t88.5 -76.5t60 -100.5t22 -131.5q0 -186 -136.5 -295t-367.5 -109zM526 -453l-18 17q41 63 47.5 166.5t-25.5 173.5
l191 14q44 -220 -195 -371z" />
    <glyph glyph-name="uni0219" unicode="&#x219;" horiz-adv-x="970" 
d="M504 -29q-147 0 -264 65.5t-164 168.5l168 84q25 -116 101 -188t173 -72q91 0 149 48.5t58 127.5q-1 62 -35 106.5t-87.5 70.5t-118 47.5t-129 46t-118 56.5t-87.5 88.5t-35 133.5q-2 136 102 221.5t275 85.5q135 0 239.5 -55t140.5 -150l-155 -76q-31 101 -98 162.5
t-148 61.5q-85 0 -137.5 -45t-52.5 -117q0 -55 33.5 -94.5t87 -64t118.5 -45.5t130 -46.5t119.5 -60t89 -93.5t36.5 -139q1 -145 -109 -236.5t-282 -91.5zM389 -453l-18 17q41 63 47.5 166.5t-25.5 173.5l191 14q44 -220 -195 -371z" />
    <glyph glyph-name="uni021A" unicode="&#x21a;" horiz-adv-x="1357" 
d="M1253 1368l52 -373h-29q-75 316 -361 316h-124v-1135q0 -75 40 -106.5t142 -40.5v-29h-588v29q102 9 142 40.5t40 106.5v1135h-125q-285 0 -360 -316h-29l51 373h1149zM584 -96l190 14q44 -220 -194 -371l-19 17q41 63 48 166t-25 174z" />
    <glyph glyph-name="uni021B" unicode="&#x21b;" horiz-adv-x="722" 
d="M670 129l16 -12q-33 -59 -95.5 -103.5t-162.5 -44.5q-119 0 -188.5 75.5t-69.5 209.5v719h-113v28l293 273h29v-244h301v-57h-301v-711q0 -85 42 -135.5t118 -50.5q32 0 58.5 9t40 18t32.5 26zM319 -96l191 14q44 -220 -195 -371l-18 17q41 63 47.5 166.5t-25.5 173.5z
" />
    <glyph glyph-name="circumflex" unicode="&#x2c6;" horiz-adv-x="790" 
d="M299 1501h188l201 -338h-29l-266 228l-262 -228h-29z" />
    <glyph glyph-name="caron" unicode="&#x2c7;" horiz-adv-x="790" 
d="M299 1163l-197 338h29l262 -225l266 225h29l-201 -338h-188z" />
    <glyph glyph-name="breve" unicode="&#x2d8;" 
d="M367 1159q-128 0 -197 84t-68 258h29q10 -104 74.5 -149t161.5 -45q214 0 235 194h29q0 -174 -68.5 -258t-195.5 -84z" />
    <glyph glyph-name="dotaccent" unicode="&#x2d9;" horiz-adv-x="495" 
d="M250 1188q-63 0 -105.5 40.5t-42.5 100.5q0 59 42.5 99t105.5 40q61 0 102 -40t41 -99q0 -60 -41 -100.5t-102 -40.5z" />
    <glyph glyph-name="ring" unicode="&#x2da;" horiz-adv-x="610" 
d="M305 1139q-89 0 -146 55t-57 139q0 85 57 140t146 55t146 -55t57 -140q0 -84 -57 -139t-146 -55zM305 1200q57 0 93 38t36 97q0 57 -36 94t-93 37q-55 0 -92 -37t-37 -94q0 -58 37.5 -96.5t91.5 -38.5z" />
    <glyph glyph-name="ogonek" unicode="&#x2db;" horiz-adv-x="600" 
d="M285 -434q-77 0 -130 43.5t-53 118.5q0 186 340 344l7 -11q-98 -83 -138.5 -146t-40.5 -136q0 -80 58.5 -115t158.5 0l11 -20q-87 -78 -213 -78z" />
    <glyph glyph-name="tilde" unicode="&#x2dc;" horiz-adv-x="843" 
d="M551 1186q-47 0 -103 27t-109.5 54t-94.5 27q-36 0 -66.5 -25t-46.5 -81l-29 2q10 115 60.5 177.5t130.5 62.5q34 0 78.5 -17t80.5 -37.5t77.5 -37.5t70.5 -17q83 0 113 104l28 -2q-9 -112 -59.5 -174.5t-130.5 -62.5z" />
    <glyph glyph-name="hungarumlaut" unicode="&#x2dd;" horiz-adv-x="839" 
d="M102 1163l136 338h225l-332 -338h-29zM377 1163l135 338h225l-331 -338h-29z" />
    <glyph glyph-name="pi" unicode="&#x3c0;" horiz-adv-x="1114" 
d="M995 -16q-227 3 -227 256v723h-444v-963h-74v963h-203v67h997v-67h-200v-721q0 -193 162 -193z" />
    <glyph glyph-name="Wgrave" unicode="&#x1e80;" horiz-adv-x="2095" 
d="M1032 1501h-28l-332 338h225zM1716 1368h363v-29q-78 -14 -116.5 -47.5t-72.5 -126.5l-442 -1196h-31l-368 977l-357 -977h-28l-451 1196q-15 42 -28 67t-35 50.5t-54.5 39t-79.5 17.5v29h498v-29q-87 -10 -101.5 -51.5t19.5 -122.5l320 -876l266 739l-51 137
q-31 86 -72 126.5t-125 47.5v29h498v-29q-86 -10 -100.5 -51.5t20.5 -122.5l319 -880l322 880q12 34 17 54t4 44t-14.5 37.5t-43 24t-76.5 14.5v29z" />
    <glyph glyph-name="wgrave" unicode="&#x1e81;" horiz-adv-x="1683" 
d="M891 1163h-29l-332 338h226zM1391 1030h284v-29q-47 -3 -75 -27.5t-54 -86.5l-377 -918h-26l-295 711l-295 -711h-29l-381 918q-26 58 -55 84t-80 30v29h467v-29q-68 -2 -96.5 -32t-7.5 -82l250 -623l194 496l-53 127q-24 58 -53 84t-84 30v29h469v-29q-70 -2 -98.5 -32
t-6.5 -82l248 -623l246 623q20 50 -4.5 80.5t-87.5 33.5v29z" />
    <glyph glyph-name="Wacute" unicode="&#x1e82;" horiz-adv-x="2095" 
d="M1286 1839l-332 -338h-28l135 338h225zM1716 1368h363v-29q-78 -14 -116.5 -47.5t-72.5 -126.5l-442 -1196h-31l-368 977l-357 -977h-28l-451 1196q-15 42 -28 67t-35 50.5t-54.5 39t-79.5 17.5v29h498v-29q-87 -10 -101.5 -51.5t19.5 -122.5l320 -876l266 739l-51 137
q-31 86 -72 126.5t-125 47.5v29h498v-29q-86 -10 -100.5 -51.5t20.5 -122.5l319 -880l322 880q12 34 17 54t4 44t-14.5 37.5t-43 24t-76.5 14.5v29z" />
    <glyph glyph-name="wacute" unicode="&#x1e83;" horiz-adv-x="1683" 
d="M1145 1501l-332 -338h-29l136 338h225zM1391 1030h284v-29q-47 -3 -75 -27.5t-54 -86.5l-377 -918h-26l-295 711l-295 -711h-29l-381 918q-26 58 -55 84t-80 30v29h467v-29q-68 -2 -96.5 -32t-7.5 -82l250 -623l194 496l-53 127q-24 58 -53 84t-84 30v29h469v-29
q-70 -2 -98.5 -32t-6.5 -82l248 -623l246 623q20 50 -4.5 80.5t-87.5 33.5v29z" />
    <glyph glyph-name="Wdieresis" unicode="&#x1e84;" horiz-adv-x="2095" 
d="M803 1526q-61 0 -101 38t-40 97q0 57 40 96t101 39q60 0 99.5 -39t39.5 -96q0 -58 -39.5 -96.5t-99.5 -38.5zM1188 1526q-62 0 -103 38.5t-41 96.5q0 57 41.5 96t102.5 39q60 0 99.5 -39t39.5 -96q0 -58 -39.5 -96.5t-99.5 -38.5zM1716 1368h363v-29
q-78 -14 -116.5 -47.5t-72.5 -126.5l-442 -1196h-31l-368 977l-357 -977h-28l-451 1196q-15 42 -28 67t-35 50.5t-54.5 39t-79.5 17.5v29h498v-29q-87 -10 -101.5 -51.5t19.5 -122.5l320 -876l266 739l-51 137q-31 86 -72 126.5t-125 47.5v29h498v-29q-86 -10 -100.5 -51.5
t20.5 -122.5l319 -880l322 880q12 34 17 54t4 44t-14.5 37.5t-43 24t-76.5 14.5v29z" />
    <glyph glyph-name="wdieresis" unicode="&#x1e85;" horiz-adv-x="1683" 
d="M659 1188q-61 0 -101 38t-40 97q0 57 40 96t101 39q60 0 100 -39t40 -96q0 -58 -40 -96.5t-100 -38.5zM1044 1188q-62 0 -102.5 38.5t-40.5 96.5q0 57 41 96t102 39q60 0 100 -39t40 -96q0 -58 -40 -96.5t-100 -38.5zM1391 1030h284v-29q-47 -3 -75 -27.5t-54 -86.5
l-377 -918h-26l-295 711l-295 -711h-29l-381 918q-26 58 -55 84t-80 30v29h467v-29q-68 -2 -96.5 -32t-7.5 -82l250 -623l194 496l-53 127q-24 58 -53 84t-84 30v29h469v-29q-70 -2 -98.5 -32t-6.5 -82l248 -623l246 623q20 50 -4.5 80.5t-87.5 33.5v29z" />
    <glyph glyph-name="uni1E9E" unicode="&#x1e9e;" horiz-adv-x="1462" 
d="M918 -29q-200 0 -322 125l22 27q93 -78 242 -78q135 0 218 91.5t83 242.5q0 183 -137.5 266t-355.5 35l-15 35l410 571q-137 55 -277 55t-223.5 -97.5t-83.5 -256.5v-987h-405v29q99 8 140.5 37.5t41.5 109.5v774q0 93 34 174t99 142.5t168 97t231 35.5q210 0 502 -62
l17 -47l-377 -483q195 15 316.5 -95.5t121.5 -303.5t-125 -315t-325 -122z" />
    <glyph glyph-name="Ygrave" unicode="&#x1ef2;" horiz-adv-x="1335" 
d="M750 1501h-29l-332 338h225zM377 0v29q95 8 134.5 38t39.5 109v457l-334 532q-57 92 -100.5 128.5t-108.5 45.5v29h541v-29q-102 -7 -117.5 -43.5t41.5 -130.5l283 -452l280 452q57 94 35 130t-141 44v29h397v-29q-73 -9 -119.5 -45t-103.5 -129l-332 -532v-457
q0 -79 40.5 -109t135.5 -38v-29h-571z" />
    <glyph glyph-name="ygrave" unicode="&#x1ef3;" horiz-adv-x="1103" 
d="M657 1163h-28l-332 338h225zM819 1030h299v-29q-52 -3 -82 -27.5t-57 -86.5l-412 -965q-77 -179 -171 -267.5t-228 -88.5q-82 0 -160 31l68 213q100 -74 194 -74q160 0 240 196l31 74l-381 881q-29 62 -59.5 86.5t-80.5 27.5v29h480v-29q-74 -3 -104 -32.5t-7 -81.5
l262 -625l267 625q23 53 -3 82t-96 32v29z" />
    <glyph glyph-name="endash" unicode="&#x2013;" horiz-adv-x="804" 
d="M57 551v67h691v-67h-691z" />
    <glyph glyph-name="emdash" unicode="&#x2014;" horiz-adv-x="1611" 
d="M88 551v67h1434v-67h-1434z" />
    <glyph glyph-name="quoteleft" unicode="&#x2018;" horiz-adv-x="491" 
d="M387 1530v-29q-79 -17 -136.5 -73t-60.5 -142q38 23 78 23q56 0 89.5 -35.5t33.5 -95.5q0 -58 -41 -98t-100 -40q-68 0 -109 46.5t-41 125.5q0 129 77.5 217.5t209.5 100.5z" />
    <glyph glyph-name="quoteright" unicode="&#x2019;" horiz-adv-x="491" 
d="M104 1042v29q81 19 137.5 74.5t59.5 142.5q-39 -24 -78 -24q-55 0 -89 36.5t-34 96.5q0 57 41.5 97t100.5 40q68 0 108.5 -46.5t40.5 -125.5q0 -129 -77.5 -218t-209.5 -102z" />
    <glyph glyph-name="quotesinglbase" unicode="&#x201a;" horiz-adv-x="491" 
d="M104 -242v29q79 17 136.5 73t60.5 142q-36 -22 -78 -22q-56 0 -89.5 35.5t-33.5 95.5q0 58 41.5 97.5t100.5 39.5q68 0 108.5 -46.5t40.5 -125.5q0 -129 -77.5 -217.5t-209.5 -100.5z" />
    <glyph glyph-name="quotedblleft" unicode="&#x201c;" horiz-adv-x="878" 
d="M387 1530v-29q-79 -17 -136.5 -73t-60.5 -142q38 23 78 23q56 0 89.5 -35.5t33.5 -95.5q0 -58 -41 -98t-100 -40q-68 0 -109 46.5t-41 125.5q0 129 77.5 217.5t209.5 100.5zM774 1530v-29q-79 -17 -136 -73t-60 -142q38 23 77 23q56 0 89.5 -35.5t33.5 -95.5
q0 -58 -41 -98t-100 -40q-68 0 -109 46.5t-41 125.5q0 129 77.5 217.5t209.5 100.5z" />
    <glyph glyph-name="quotedblright" unicode="&#x201d;" horiz-adv-x="776" 
d="M41 1042v29q82 19 139 74.5t58 142.5q-39 -24 -78 -24q-55 0 -88 36.5t-33 96.5q0 57 40.5 97t100.5 40q68 0 109 -46.5t41 -125.5q0 -128 -78 -217.5t-211 -102.5zM428 1042v29q82 19 139 74.5t58 142.5q-39 -24 -78 -24q-55 0 -88 36.5t-33 96.5q0 57 40.5 97t100.5 40
q68 0 109 -46.5t41 -125.5q0 -128 -78 -217.5t-211 -102.5z" />
    <glyph glyph-name="quotedblbase" unicode="&#x201e;" horiz-adv-x="878" 
d="M104 -242v29q79 17 136.5 73t60.5 142q-36 -22 -78 -22q-56 0 -89.5 35.5t-33.5 95.5q0 58 41.5 97.5t100.5 39.5q68 0 108.5 -46.5t40.5 -125.5q0 -129 -77.5 -217.5t-209.5 -100.5zM492 -242v29q79 17 136 73t60 142q-36 -22 -78 -22q-56 0 -89.5 35.5t-33.5 95.5
q0 58 41.5 97.5t100.5 39.5q68 0 108.5 -46.5t40.5 -125.5q0 -129 -77 -217.5t-209 -100.5z" />
    <glyph glyph-name="dagger" unicode="&#x2020;" horiz-adv-x="708" 
d="M317 459v596h-254v67h254v299h72v-299h254v-67h-254v-596h-72z" />
    <glyph glyph-name="daggerdbl" unicode="&#x2021;" horiz-adv-x="708" 
d="M389 379h254v-68h-254v-299h-72v299h-254v68h254v676h-254v67h254v299h72v-299h254v-67h-254v-676z" />
    <glyph glyph-name="bullet" unicode="&#x2022;" horiz-adv-x="976" 
d="M498 147q-173 0 -293.5 119.5t-120.5 290.5q0 169 120.5 289.5t293.5 120.5q167 0 286 -120.5t119 -289.5q0 -170 -119 -290t-286 -120z" />
    <glyph glyph-name="ellipsis" unicode="&#x2026;" horiz-adv-x="1206" 
d="M238 -25q-57 0 -97.5 40t-40.5 98q0 56 40.5 95.5t97.5 39.5q60 0 98.5 -39t38.5 -96q0 -58 -40 -98t-97 -40zM604 -25q-57 0 -97 40t-40 98q0 56 40 95.5t97 39.5q60 0 97.5 -39t37.5 -96q0 -58 -39 -98t-96 -40zM971 -25q-57 0 -97 40t-40 98q0 56 40 95.5t97 39.5
q60 0 97.5 -39t37.5 -96q0 -58 -39 -98t-96 -40z" />
    <glyph glyph-name="perthousand" unicode="&#x2030;" horiz-adv-x="2039" 
d="M338 752q-124 0 -199.5 88t-75.5 233q0 147 74.5 235.5t200.5 88.5q123 0 197.5 -89.5t74.5 -234.5q0 -143 -75 -232t-197 -89zM281 0l753 1368h62l-754 -1368h-61zM350 797q42 0 71.5 63.5t29.5 177.5q0 140 -37.5 227t-89.5 87q-44 0 -72.5 -64t-28.5 -180
q0 -140 36 -225.5t91 -85.5zM1040 -31q-124 0 -198 89t-74 235q0 145 74 233t198 88q123 0 198 -89t75 -232t-75.5 -233.5t-197.5 -90.5zM1704 -31q-124 0 -198 89t-74 235q0 145 74 233t198 88q122 0 197 -89t75 -232t-75 -233.5t-197 -90.5zM1053 14q43 0 71.5 63.5
t28.5 180.5q0 138 -37.5 224.5t-89.5 86.5q-44 0 -72 -62.5t-28 -178.5q0 -142 36 -228t91 -86zM1716 14q44 0 72.5 64t28.5 180q0 138 -37.5 224.5t-89.5 86.5q-44 0 -72.5 -62.5t-28.5 -178.5q0 -142 36 -228t91 -86z" />
    <glyph glyph-name="guilsinglleft" unicode="&#x2039;" horiz-adv-x="428" 
d="M37 616v27l328 246l18 -19l-164 -239l164 -244l-18 -16z" />
    <glyph glyph-name="guilsinglright" unicode="&#x203a;" horiz-adv-x="428" 
d="M383 616l-328 -245l-18 16l164 244l-164 239l18 19l328 -246v-27z" />
    <glyph glyph-name="fraction" unicode="&#x2044;" horiz-adv-x="294" 
d="M-260 0l754 1368h61l-754 -1368h-61z" />
    <glyph glyph-name="uni2070" unicode="&#x2070;" horiz-adv-x="802" 
d="M403 735q-116 0 -198 60t-120 155t-38 213q0 117 37.5 212t120 155.5t198.5 60.5q115 0 196.5 -60t119 -155t37.5 -213t-37.5 -213t-119 -155t-196.5 -60zM420 770q63 0 104 98.5t41 239.5q0 117 -20 217.5t-62.5 167t-99.5 66.5q-63 0 -104 -99t-41 -239q0 -189 49 -320
t133 -131z" />
    <glyph glyph-name="uni2074" unicode="&#x2074;" 
d="M274 752v16q68 7 93.5 26t25.5 56v133h-370v25l403 565h149v-553h132v-37h-132v-133q0 -38 26 -56t85 -26v-16h-412zM76 1020h317v444z" />
    <glyph glyph-name="uni2075" unicode="&#x2075;" horiz-adv-x="690" 
d="M322 735q-121 0 -205.5 53t-96.5 142l179 51q5 -95 45.5 -154t101.5 -59q59 0 91 49.5t32 134.5q0 106 -52 166t-149 60q-90 0 -172 -56l-12 6l76 445h444v-158h-436l-41 -239q101 96 229 96q130 0 213.5 -72t83.5 -196q0 -129 -88 -199t-243 -70z" />
    <glyph glyph-name="uni2076" unicode="&#x2076;" horiz-adv-x="751" 
d="M391 735q-165 0 -254.5 105.5t-89.5 306.5q0 111 29.5 198t80 140t114.5 80.5t137 27.5q109 0 194 -49t103 -127l-187 -53q-4 85 -42.5 140t-88.5 55q-72 0 -110.5 -93.5t-38.5 -275.5q43 49 102 70.5t111 21.5q112 0 187 -74t75 -192q0 -122 -86 -201.5t-236 -79.5z
M403 770q59 0 92 60t33 149q0 106 -49.5 166.5t-124.5 60.5q-71 0 -116 -51q2 -68 12.5 -134t29.5 -123.5t51 -92.5t72 -35z" />
    <glyph glyph-name="uni2077" unicode="&#x2077;" horiz-adv-x="671" 
d="M180 752q-1 63 9 122t24 104.5t44 97.5t52.5 86t67.5 84.5t72 78t81 81.5l9 9h-320q-72 0 -104 -26.5t-52 -104.5h-18l33 289h600v-19q-174 -225 -239 -403.5t-62 -398.5h-197z" />
    <glyph glyph-name="uni2078" unicode="&#x2078;" 
d="M371 733q-153 0 -238.5 55.5t-85.5 153.5q0 158 221 193q-98 47 -143 97.5t-45 129.5q0 97 76.5 163t208.5 66q129 0 208.5 -57t79.5 -135q0 -69 -52 -114t-144 -52q46 -21 69 -33t59.5 -37t55 -49t33 -61.5t14.5 -81.5q0 -102 -82.5 -170t-234.5 -68zM420 1251
q74 51 74 144q0 71 -36 116t-91 45q-53 0 -87 -34.5t-34 -89.5q0 -34 12.5 -61t39 -48.5t53 -36.5t69.5 -35zM369 768q62 0 102.5 41.5t40.5 105.5q0 38 -15.5 68.5t-46.5 53.5t-61 38.5t-74 35.5q-4 2 -6.5 3t-5.5 2q-54 -36 -71 -78.5t-17 -93.5q0 -76 44 -126t110 -50z
" />
    <glyph glyph-name="uni2079" unicode="&#x2079;" horiz-adv-x="751" 
d="M344 735q-111 0 -194.5 48.5t-102.5 127.5l186 54q6 -87 45.5 -141t88.5 -54q51 0 85 49.5t48.5 131t13.5 190.5q-80 -94 -213 -94q-112 0 -186 73.5t-74 192.5q0 123 85 201.5t236 78.5q163 0 253 -104.5t90 -304.5q0 -111 -29.5 -198.5t-80 -141t-114.5 -81.5t-137 -28
zM397 1120q74 0 117 51q-2 68 -12.5 134t-30 124t-51.5 94t-72 36q-59 0 -91 -59.5t-32 -149.5q0 -106 49 -168t123 -62z" />
    <glyph glyph-name="Euro" unicode="&#x20ac;" horiz-adv-x="1548" 
d="M1450 442l27 -6q-50 -216 -201 -341.5t-365 -125.5q-256 0 -434.5 162.5t-212.5 413.5h-231v67h223v39q0 72 10 150h-233v67h246q55 242 227 386.5t426 144.5q195 0 333.5 -81.5t180.5 -225.5l-209 -64q-31 144 -119 229.5t-209 85.5q-164 0 -275.5 -129t-137.5 -346h479
v-67h-483q-3 -27 -3 -56q0 -54 11 -133h475v-67h-461q50 -185 182.5 -293.5t313.5 -108.5q158 0 275 81t165 218z" />
    <glyph glyph-name="uni2116" unicode="&#x2116;" horiz-adv-x="2236" 
d="M1829 737q-139 0 -228.5 89.5t-89.5 228.5q0 153 91 248.5t237 95.5q140 0 229 -88.5t89 -229.5q0 -153 -91 -248.5t-237 -95.5zM1001 1339v29h459v-29q-105 -8 -143.5 -44t-38.5 -130v-1196h-57l-889 1190v-956q0 -94 46 -129.5t173 -44.5v-29h-459v29q104 9 143 45
t39 129v1026q-47 54 -92 80t-108 30v29h381l766 -1032v829q0 93 -48 129.5t-172 44.5zM1817 1364q-60 0 -92.5 -66t-32.5 -174q0 -149 44.5 -250.5t116.5 -101.5q59 0 91 65.5t32 174.5q0 146 -44 249t-115 103zM1516 582v61h636v-61h-636z" />
    <glyph glyph-name="uni2117" unicode="&#x2117;" horiz-adv-x="1630" 
d="M813 -29q-144 0 -275.5 57t-227 152.5t-152 227.5t-56.5 276t56.5 276t152 227.5t227 152.5t275.5 57q145 0 277 -57t228 -152.5t153 -227.5t57 -276t-57 -276t-153 -227.5t-228 -152.5t-277 -57zM813 27q178 0 330 88.5t241 240t89 328.5t-89 328.5t-241 240t-330 88.5
q-133 0 -254 -52.5t-209 -140.5t-140 -209.5t-52 -254.5t52 -254.5t140 -209.5t209 -140.5t254 -52.5zM870 649h-221v-395h-63v858h284q113 0 183.5 -63.5t70.5 -167.5t-70.5 -168t-183.5 -64zM649 1055v-348h221q89 0 141 47.5t52 126.5t-52 126.5t-141 47.5h-221z" />
    <glyph glyph-name="trademark" unicode="&#x2122;" horiz-adv-x="1036" 
d="M215 893v424h-152v51h359v-51h-152v-424h-55zM485 893v475h90l154 -412l156 412h86v-475h-49v426l-166 -426h-56l-161 426v-426h-54z" />
    <glyph glyph-name="uni2126" unicode="&#x2126;" horiz-adv-x="1427" 
d="M96 0v68h340q-80 50 -144.5 112.5t-117.5 143t-82 182.5t-29 217q0 187 83.5 341t233 242.5t333.5 88.5t333 -87.5t233.5 -241.5t84.5 -343q0 -221 -103 -384t-274 -271h342v-68h-465v66q92 49 167 112t135 144.5t93 184.5t33 218q0 169 -77 307.5t-209.5 216.5
t-292.5 78q-159 0 -291.5 -78t-209.5 -216.5t-77 -307.5q0 -222 116.5 -389.5t309.5 -269.5v-66h-465z" />
    <glyph glyph-name="estimated" unicode="&#x212e;" horiz-adv-x="1544" 
d="M791 -29q-203 0 -371 93.5t-264.5 257.5t-96.5 362q0 149 55.5 281t150.5 227t227 150t280 55q150 0 283 -55.5t227.5 -151t149 -229t53.5 -283.5h-1166v-430q81 -88 203 -147.5t269 -59.5q320 0 509 272l58 -41q-94 -143 -242.5 -222t-324.5 -79zM1227 762v362
q-72 81 -193 142t-262 61q-142 0 -263 -61.5t-190 -143.5v-360h908z" />
    <glyph glyph-name="oneeighth" unicode="&#x215b;" horiz-adv-x="1552" 
d="M57 547v16q74 7 102.5 25t28.5 57v580h-131v16q202 55 299 133h17v-729q0 -38 25 -56t83 -26v-16h-424zM264 0l754 1368h61l-753 -1368h-62zM1190 -18q-154 0 -239 55t-85 153q0 158 221 193q-98 47 -143 97.5t-45 129.5q0 97 77 163.5t208 66.5q129 0 209 -57.5
t80 -135.5q0 -69 -52.5 -114t-144.5 -52q46 -21 69 -33t59.5 -37t55 -49t33 -61.5t14.5 -81.5q0 -102 -82.5 -169.5t-234.5 -67.5zM1239 500q42 29 58 63t16 80q0 71 -36 116.5t-91 45.5q-53 0 -87 -35t-34 -90q0 -64 42.5 -101.5t131.5 -78.5zM1188 16q62 0 102.5 42
t40.5 106q0 38 -15.5 68.5t-46.5 53.5t-61 38.5t-74 35.5q-8 3 -12 5q-54 -36 -71 -78.5t-17 -93.5q0 -76 44 -126.5t110 -50.5z" />
    <glyph glyph-name="threeeighths" unicode="&#x215c;" horiz-adv-x="1716" 
d="M326 530q-120 0 -204 52.5t-97 142.5l176 51q11 -98 50 -155.5t97 -57.5q54 0 86.5 52.5t32.5 136.5q0 91 -63 147.5t-179 56.5v17q99 17 150 62.5t51 107.5t-42 101.5t-108 39.5q-61 0 -112 -35.5t-72 -99.5l-16 4q5 39 23.5 78t51.5 74t87 57t120 22q121 0 187.5 -57
t66.5 -143q0 -166 -231 -209q126 -6 198 -60t72 -155q0 -107 -87.5 -168.5t-237.5 -61.5zM428 0l754 1368h61l-754 -1368h-61zM1354 -18q-154 0 -239 55t-85 153q0 158 221 193q-98 47 -143 97.5t-45 129.5q0 97 77 163.5t208 66.5q129 0 208.5 -57.5t79.5 -135.5
q0 -69 -52 -114t-144 -52q46 -21 69 -33t59.5 -37t55 -49t33 -61.5t14.5 -81.5q0 -102 -82.5 -169.5t-234.5 -67.5zM1403 500q42 29 58 63t16 80q0 71 -36 116.5t-91 45.5q-53 0 -87 -35t-34 -90q0 -64 42.5 -101.5t131.5 -78.5zM1352 16q62 0 102.5 42t40.5 106
q0 38 -15.5 68.5t-46.5 53.5t-61 38.5t-74 35.5q-8 3 -12 5q-54 -36 -71 -78.5t-17 -93.5q0 -76 44 -126.5t110 -50.5z" />
    <glyph glyph-name="fiveeighths" unicode="&#x215d;" horiz-adv-x="1718" 
d="M322 530q-121 0 -205.5 53t-96.5 142l179 51q5 -95 45.5 -154t101.5 -59q59 0 91 50t32 135q0 106 -52 165.5t-149 59.5q-92 0 -172 -55l-12 6l76 444h444v-158h-436l-41 -239q101 96 229 96q130 0 213.5 -72t83.5 -196q0 -129 -88 -199t-243 -70zM430 0l754 1368h61
l-753 -1368h-62zM1356 -18q-154 0 -239 55t-85 153q0 158 221 193q-98 47 -143 97.5t-45 129.5q0 97 77 163.5t208 66.5q129 0 208.5 -57.5t79.5 -135.5q0 -69 -52 -114t-144 -52q46 -21 69 -33t59.5 -37t55 -49t33 -61.5t14.5 -81.5q0 -102 -82.5 -169.5t-234.5 -67.5z
M1405 500q42 29 58 63t16 80q0 71 -36 116.5t-91 45.5q-53 0 -87 -35t-34 -90q0 -64 42.5 -101.5t131.5 -78.5zM1354 16q62 0 102.5 42t40.5 106q0 38 -15.5 68.5t-46.5 53.5t-61 38.5t-74 35.5q-8 3 -12 5q-54 -36 -71 -78.5t-17 -93.5q0 -76 44 -126.5t110 -50.5z" />
    <glyph glyph-name="seveneighths" unicode="&#x215e;" horiz-adv-x="1593" 
d="M180 547q-1 63 9 122t24 104.5t44 97.5t52.5 86t67.5 84.5t72 78t81 81.5l9 9h-320q-72 0 -104 -26.5t-52 -104.5h-18l33 289h600v-18q-174 -224 -239 -403.5t-62 -399.5h-197zM289 0l753 1368h62l-754 -1368h-61zM1229 -18q-152 0 -238 55t-86 153q0 158 221 193
q-97 47 -141.5 97.5t-44.5 129.5q0 97 76 163.5t209 66.5q129 0 208.5 -57.5t79.5 -135.5q0 -70 -52.5 -114.5t-145.5 -51.5q46 -21 69 -33t59.5 -37t55 -49t33 -61.5t14.5 -81.5q0 -102 -82 -169.5t-235 -67.5zM1278 500q43 29 59.5 63t16.5 80q0 71 -36 116.5t-91 45.5
q-54 0 -88.5 -35t-34.5 -90q0 -34 12.5 -60.5t40 -48.5t52.5 -36t69 -35zM1229 16q60 0 100.5 42t40.5 106q0 18 -4.5 35t-9 29.5t-18 27t-20 22.5t-27.5 21t-27.5 17.5t-33 17.5t-32 15.5t-35.5 15.5q-55 -35 -71.5 -77.5t-16.5 -94.5q0 -77 43.5 -127t110.5 -50z" />
    <glyph glyph-name="arrowleft" unicode="&#x2190;" horiz-adv-x="1349" 
d="M1290 553v-70h-1106l439 -426l-54 -51l-512 512l514 512l54 -49l-441 -428h1106z" />
    <glyph glyph-name="arrowup" unicode="&#x2191;" horiz-adv-x="1189" 
d="M1108 698l-51 -53l-428 442v-1110h-68v1108l-428 -440l-49 53l512 512z" />
    <glyph glyph-name="arrowright" unicode="&#x2192;" horiz-adv-x="1347" 
d="M776 1030l514 -512l-512 -512l-53 51l438 426h-1106v70h1106l-440 428z" />
    <glyph glyph-name="arrowdown" unicode="&#x2193;" horiz-adv-x="1189" 
d="M1057 627l51 -54l-512 -514l-512 512l49 54l428 -439v1106h68v-1108z" />
    <glyph glyph-name="arrowboth" unicode="&#x2194;" horiz-adv-x="2015" 
d="M1444 1030l512 -512l-512 -512l-53 51l438 426h-1645l439 -426l-54 -51l-512 512l514 512l54 -49l-441 -428h1647l-440 428z" />
    <glyph glyph-name="arrowupdn" unicode="&#x2195;" horiz-adv-x="1189" 
d="M629 -131l428 442l51 -53l-512 -514l-512 512l49 53l428 -438v1647l-428 -441l-49 53l512 512l512 -512l-51 -53l-428 443v-1651z" />
    <glyph glyph-name="uni2196" unicode="&#x2196;" horiz-adv-x="1003" 
d="M989 74l-49 -47l-782 782l8 -612l-74 2v723h725l2 -74l-614 10z" />
    <glyph glyph-name="uni2197" unicode="&#x2197;" horiz-adv-x="1003" 
d="M186 909h725v-725h-73l10 615l-785 -785l-49 47l785 785l-615 -10z" />
    <glyph glyph-name="uni2198" unicode="&#x2198;" horiz-adv-x="1005" 
d="M838 788l73 -2v-725h-723l-2 74l615 -10l-785 784l47 49l785 -784z" />
    <glyph glyph-name="uni2199" unicode="&#x2199;" horiz-adv-x="1005" 
d="M989 907l-784 -784l614 10l-2 -74h-723v725l74 2l-10 -616l784 784z" />
    <glyph glyph-name="partialdiff" unicode="&#x2202;" horiz-adv-x="1101" 
d="M532 -29q-200 0 -324 128t-124 333q0 206 127.5 335.5t325.5 129.5q69 0 133.5 -19t122 -57t99 -104t56.5 -152q5 160 -23.5 293t-89.5 236t-163 165t-238 72v66q276 -17 431 -223.5t155 -542.5q0 -319 -132.5 -489.5t-355.5 -170.5zM535 39q167 0 269.5 113t102.5 282
q0 173 -104 283t-268 110q-166 0 -270.5 -110t-104.5 -283q0 -174 104 -284.5t271 -110.5z" />
    <glyph glyph-name="uni2206" unicode="&#x2206;" horiz-adv-x="1255" 
d="M6 0l588 1368h68l587 -1368h-1243zM109 68h1038l-518 1210z" />
    <glyph glyph-name="product" unicode="&#x220f;" horiz-adv-x="1136" 
d="M125 0v1368h889v-1368h-72v1300h-747v-1300h-70z" />
    <glyph glyph-name="summation" unicode="&#x2211;" horiz-adv-x="901" 
d="M10 0v61l531 623l-531 623v61h903v-68h-807l502 -585v-60l-499 -587h804v-68h-903z" />
    <glyph glyph-name="minus" unicode="&#x2212;" horiz-adv-x="991" 
d="M70 618v70h852v-70h-852z" />
    <glyph glyph-name="radical" unicode="&#x221a;" horiz-adv-x="1062" 
d="M496 0l-232 672h-194v69h243l232 -675l436 1302h70l-459 -1368h-96z" />
    <glyph glyph-name="infinity" unicode="&#x221e;" horiz-adv-x="1765" 
d="M1317 1030q163 0 267 -100.5t104 -267.5q0 -168 -103.5 -268.5t-265.5 -100.5q-131 0 -237.5 70.5t-196.5 220.5q-176 -291 -439 -291q-162 0 -265 101t-103 268t104 267.5t267 100.5q131 0 237.5 -70.5t198.5 -218.5q170 289 432 289zM451 360q240 0 395 302
q-157 301 -395 301q-133 0 -215 -82.5t-82 -218.5q0 -137 82 -219.5t215 -82.5zM1317 360q133 0 214 82.5t81 219.5q0 136 -81.5 218.5t-213.5 82.5q-241 0 -395 -301q82 -153 179 -227.5t216 -74.5z" />
    <glyph glyph-name="integral" unicode="&#x222b;" horiz-adv-x="487" 
d="M18 -408v70h41q72 0 110 50t38 145v1360q0 126 59.5 194t163.5 68h39v-70h-39q-73 0 -112 -50.5t-39 -144.5v-1359q0 -126 -58 -194.5t-162 -68.5h-41z" />
    <glyph glyph-name="approxequal" unicode="&#x2248;" horiz-adv-x="1064" 
d="M743 817q-54 0 -115 20.5t-107.5 45t-103.5 45t-102 20.5q-115 0 -245 -121v70q124 119 249 119q51 0 110.5 -20.5t105.5 -45t104.5 -45t108.5 -20.5q123 0 247 121v-70q-114 -119 -252 -119zM743 446q-54 0 -115 20.5t-107.5 45.5t-103.5 45.5t-102 20.5
q-115 0 -245 -121v69q124 119 249 119q51 0 110.5 -20.5t105.5 -45t104.5 -45t108.5 -20.5q123 0 247 121v-70q-114 -119 -252 -119z" />
    <glyph glyph-name="notequal" unicode="&#x2260;" horiz-adv-x="991" 
d="M922 809h-332l-101 -264h433v-68h-459l-107 -280h-73l106 280h-319v68h346l100 264h-446v70h473l92 243h74l-93 -243h306v-70z" />
    <glyph glyph-name="lessequal" unicode="&#x2264;" horiz-adv-x="905" 
d="M829 219l-766 389v97l766 387l29 -62l-743 -375l743 -374zM856 2h-793v68h793v-68z" />
    <glyph glyph-name="greaterequal" unicode="&#x2265;" horiz-adv-x="905" 
d="M72 219l-29 62l743 374l-743 375l29 62l766 -387v-97zM45 2v68h791v-68h-791z" />
    <glyph glyph-name="uni2460" unicode="&#x2460;" horiz-adv-x="1538" 
d="M766 -29q-144 0 -275.5 57t-227 152.5t-152 227.5t-56.5 276t56.5 276t152 227.5t227 152.5t275.5 57q145 0 277 -57t228 -152.5t153 -227.5t57 -276t-57 -276t-153 -227.5t-228 -152.5t-277 -57zM766 27q133 0 255 52.5t210.5 140.5t141 209.5t52.5 254.5t-52.5 254.5
t-141 209.5t-210.5 140.5t-255 52.5t-254 -52.5t-209 -140.5t-140 -209.5t-52 -254.5t52 -254.5t140 -209.5t209 -140.5t254 -52.5zM551 279v16q75 7 104 25.5t29 56.5v579h-131v17q105 29 173.5 59t123.5 74h16v-729q0 -38 25.5 -56t83.5 -26v-16h-424z" />
    <glyph glyph-name="uni2461" unicode="&#x2461;" horiz-adv-x="1538" 
d="M766 -29q-144 0 -275.5 57t-227 152.5t-152 227.5t-56.5 276t56.5 276t152 227.5t227 152.5t275.5 57q145 0 277 -57t228 -152.5t153 -227.5t57 -276t-57 -276t-153 -227.5t-228 -152.5t-277 -57zM766 27q133 0 255 52.5t210.5 140.5t141 209.5t52.5 254.5t-52.5 254.5
t-141 209.5t-210.5 140.5t-255 52.5t-254 -52.5t-209 -140.5t-140 -209.5t-52 -254.5t52 -254.5t140 -209.5t209 -140.5t254 -52.5zM455 279v16l237 274q71 76 109.5 146t38.5 149q0 69 -42 110.5t-110 41.5q-60 0 -110 -35t-72 -100l-17 4q5 39 24 78t52 74t87 57t120 22
q116 0 186 -63.5t70 -169.5q0 -68 -23 -123t-92.5 -118t-111.5 -93.5t-162 -110.5q-9 -7 -15.5 -11.5t-13.5 -8.5h269q75 0 109.5 26.5t55.5 104.5h19l-37 -270h-571z" />
    <glyph glyph-name="uni2462" unicode="&#x2462;" horiz-adv-x="1538" 
d="M766 -29q-144 0 -275.5 57t-227 152.5t-152 227.5t-56.5 276t56.5 276t152 227.5t227 152.5t275.5 57q145 0 277 -57t228 -152.5t153 -227.5t57 -276t-57 -276t-153 -227.5t-228 -152.5t-277 -57zM766 27q133 0 255 52.5t210.5 140.5t141 209.5t52.5 254.5t-52.5 254.5
t-141 209.5t-210.5 140.5t-255 52.5t-254 -52.5t-209 -140.5t-140 -209.5t-52 -254.5t52 -254.5t140 -209.5t209 -140.5t254 -52.5zM758 272q-120 0 -204 52.5t-97 142.5l176 51q11 -98 50 -155.5t97 -57.5q55 0 87 52.5t32 138.5q0 90 -63 146t-179 56v17q100 18 151.5 63
t51.5 107t-42.5 101.5t-108.5 39.5q-61 0 -112.5 -35.5t-72.5 -99.5l-16 6q6 39 25 77t52 73t87 57t121 22q119 0 185 -57t66 -143q0 -167 -231 -207q127 -8 199.5 -62t72.5 -155q0 -107 -88.5 -168.5t-238.5 -61.5z" />
    <glyph glyph-name="uni2463" unicode="&#x2463;" horiz-adv-x="1538" 
d="M766 -29q-144 0 -275.5 57t-227 152.5t-152 227.5t-56.5 276t56.5 276t152 227.5t227 152.5t275.5 57q145 0 277 -57t228 -152.5t153 -227.5t57 -276t-57 -276t-153 -227.5t-228 -152.5t-277 -57zM766 27q133 0 255 52.5t210.5 140.5t141 209.5t52.5 254.5t-52.5 254.5
t-141 209.5t-210.5 140.5t-255 52.5t-254 -52.5t-209 -140.5t-140 -209.5t-52 -254.5t52 -254.5t140 -209.5t209 -140.5t254 -52.5zM637 279v16q68 7 94.5 26t26.5 56v133h-371v25l404 565h149v-553h131v-37h-131v-133q0 -39 25 -56.5t84 -25.5v-16h-412zM440 547h318v444z
" />
    <glyph glyph-name="uni2464" unicode="&#x2464;" horiz-adv-x="1538" 
d="M766 -29q-144 0 -275.5 57t-227 152.5t-152 227.5t-56.5 276t56.5 276t152 227.5t227 152.5t275.5 57q145 0 277 -57t228 -152.5t153 -227.5t57 -276t-57 -276t-153 -227.5t-228 -152.5t-277 -57zM766 27q133 0 255 52.5t210.5 140.5t141 209.5t52.5 254.5t-52.5 254.5
t-141 209.5t-210.5 140.5t-255 52.5t-254 -52.5t-209 -140.5t-140 -209.5t-52 -254.5t52 -254.5t140 -209.5t209 -140.5t254 -52.5zM725 272q-122 0 -206 53t-97 142l178 51q6 -96 46.5 -154.5t101.5 -58.5q59 0 90.5 50t31.5 134q0 106 -51.5 167t-148.5 61q-87 0 -172 -55
l-11 6l74 442h445v-158h-435l-43 -239q101 96 232 96q130 0 213.5 -72t83.5 -196q0 -129 -89 -199t-243 -70z" />
    <glyph glyph-name="uni2465" unicode="&#x2465;" horiz-adv-x="1538" 
d="M766 -27q-144 0 -275.5 57t-227 152.5t-152 227.5t-56.5 276t56.5 276t152 227.5t227 152.5t275.5 57q145 0 277 -57t228 -152.5t153 -227.5t57 -276t-57 -276t-153 -227.5t-228 -152.5t-277 -57zM766 29q133 0 255 52.5t210.5 140.5t141 209.5t52.5 254.5t-52.5 254.5
t-141 209.5t-210.5 140.5t-255 52.5t-254 -52.5t-209 -140.5t-140 -209.5t-52 -254.5t52 -254.5t140 -209.5t209 -140.5t254 -52.5zM780 272q-164 0 -253 105.5t-89 306.5q0 111 29.5 198t80 140t114.5 80.5t137 27.5q110 0 194 -48t101 -128l-185 -53q-4 85 -42.5 140
t-88.5 55q-72 0 -110.5 -93.5t-38.5 -275.5q43 49 101.5 70.5t111.5 21.5q112 0 187 -74t75 -192q0 -122 -86.5 -201.5t-237.5 -79.5zM795 307q59 0 92 60t33 149q0 107 -50 168t-125 61q-69 0 -116 -53q2 -68 12.5 -133.5t30 -123t51.5 -93t72 -35.5z" />
    <glyph glyph-name="uni2466" unicode="&#x2466;" horiz-adv-x="1538" 
d="M766 -29q-144 0 -275.5 57t-227 152.5t-152 227.5t-56.5 276t56.5 276t152 227.5t227 152.5t275.5 57q145 0 277 -57t228 -152.5t153 -227.5t57 -276t-57 -276t-153 -227.5t-228 -152.5t-277 -57zM766 27q133 0 255 52.5t210.5 140.5t141 209.5t52.5 254.5t-52.5 254.5
t-141 209.5t-210.5 140.5t-255 52.5t-254 -52.5t-209 -140.5t-140 -209.5t-52 -254.5t52 -254.5t140 -209.5t209 -140.5t254 -52.5zM608 279q0 73 11 137.5t37.5 123.5t52.5 104t73.5 100.5t80 90.5t92.5 95l12 12h-320q-71 0 -103 -26.5t-52 -104.5h-17l33 289h600v-19
q-175 -224 -240.5 -403t-62.5 -399h-197z" />
    <glyph glyph-name="uni2467" unicode="&#x2467;" horiz-adv-x="1538" 
d="M766 -27q-144 0 -275.5 57t-227 152.5t-152 227.5t-56.5 276t56.5 276t152 227.5t227 152.5t275.5 57q145 0 277 -57t228 -152.5t153 -227.5t57 -276t-57 -276t-153 -227.5t-228 -152.5t-277 -57zM766 29q133 0 255 52.5t210.5 140.5t141 209.5t52.5 254.5t-52.5 254.5
t-141 209.5t-210.5 140.5t-255 52.5t-254 -52.5t-209 -140.5t-140 -209.5t-52 -254.5t52 -254.5t140 -209.5t209 -140.5t254 -52.5zM774 272q-153 0 -238 55t-85 154q0 158 221 193q-98 47 -143.5 98t-45.5 129q0 97 76.5 163t208.5 66q131 0 211 -56t80 -136
q0 -69 -53.5 -114t-145.5 -52q43 -20 68.5 -32.5t61 -37t54.5 -48.5t33.5 -61t14.5 -81q0 -104 -83 -172t-235 -68zM823 791q42 29 58 63t16 80q0 72 -35.5 117t-91.5 45q-53 0 -87 -35t-34 -90q0 -34 12.5 -60.5t40 -48.5t52.5 -36t69 -35zM774 307q60 0 100.5 42t40.5 106
q0 31 -11.5 57t-26.5 43.5t-44.5 36.5t-49.5 29.5t-59 28.5q-10 5 -15 7q-55 -37 -73 -80t-18 -94q0 -76 44 -126t112 -50z" />
    <glyph glyph-name="uni2468" unicode="&#x2468;" horiz-adv-x="1538" 
d="M766 -27q-144 0 -275.5 57t-227 152.5t-152 227.5t-56.5 276t56.5 276t152 227.5t227 152.5t275.5 57q145 0 277 -57t228 -152.5t153 -227.5t57 -276t-57 -276t-153 -227.5t-228 -152.5t-277 -57zM766 29q133 0 255 52.5t210.5 140.5t141 209.5t52.5 254.5t-52.5 254.5
t-141 209.5t-210.5 140.5t-255 52.5t-254 -52.5t-209 -140.5t-140 -209.5t-52 -254.5t52 -254.5t140 -209.5t209 -140.5t254 -52.5zM743 272q-111 0 -194.5 49t-102.5 128l187 55q6 -89 45 -143t88 -54q51 0 85 49.5t48.5 131t13.5 190.5q-82 -94 -213 -94q-112 0 -186 73.5
t-74 192.5q0 123 85.5 201.5t236.5 78.5q163 0 252.5 -104.5t89.5 -304.5q0 -111 -29.5 -198.5t-80 -141t-114.5 -81.5t-137 -28zM797 657q30 0 62 14t54 40q-2 68 -12.5 133.5t-29.5 123t-51 93t-72 35.5q-59 0 -91 -59.5t-32 -149.5q0 -105 49 -167.5t123 -62.5z" />
    <glyph glyph-name="lozenge" unicode="&#x25ca;" horiz-adv-x="958" 
d="M438 0l-377 684l377 684h82l377 -684l-377 -684h-82zM479 63l338 621l-338 621l-338 -621z" />
    <glyph glyph-name="uni25CF" unicode="&#x25cf;" horiz-adv-x="1548" 
d="M772 -29q145 0 277 57t228 152.5t153 227.5t57 276t-57 276t-153 227.5t-228 152.5t-277 57q-144 0 -275.5 -57t-227 -152.5t-152 -227.5t-56.5 -276t56.5 -276t152 -227.5t227 -152.5t275.5 -57z" />
    <glyph glyph-name="uni2776" unicode="&#x2776;" horiz-adv-x="1538" 
d="M766 -29q145 0 277 57t228 152.5t153 227.5t57 276t-57 276t-153 227.5t-228 152.5t-277 57q-144 0 -275.5 -57t-227 -152.5t-152 -227.5t-56.5 -276t56.5 -276t152 -227.5t227 -152.5t275.5 -57zM551 279v16q75 7 104 25.5t29 56.5v579h-131v17q105 29 173.5 59
t123.5 74h16v-729q0 -38 25.5 -56t83.5 -26v-16h-424z" />
    <glyph glyph-name="uni2777" unicode="&#x2777;" horiz-adv-x="1538" 
d="M766 -29q145 0 277 57t228 152.5t153 227.5t57 276t-57 276t-153 227.5t-228 152.5t-277 57q-144 0 -275.5 -57t-227 -152.5t-152 -227.5t-56.5 -276t56.5 -276t152 -227.5t227 -152.5t275.5 -57zM455 279v16l237 274q71 76 109.5 146t38.5 149q0 69 -42 110.5t-110 41.5
q-60 0 -110 -35t-72 -100l-17 4q5 39 24 78t52 74t87 57t120 22q116 0 186 -63.5t70 -169.5q0 -68 -23 -123t-92.5 -118t-111.5 -93.5t-162 -110.5q-9 -7 -15.5 -11.5t-13.5 -8.5h269q75 0 109.5 26.5t55.5 104.5h19l-37 -270h-571z" />
    <glyph glyph-name="uni2778" unicode="&#x2778;" horiz-adv-x="1538" 
d="M766 -29q145 0 277 57t228 152.5t153 227.5t57 276t-57 276t-153 227.5t-228 152.5t-277 57q-144 0 -275.5 -57t-227 -152.5t-152 -227.5t-56.5 -276t56.5 -276t152 -227.5t227 -152.5t275.5 -57zM758 272q-120 0 -204 52.5t-97 142.5l176 51q11 -98 50 -155.5t97 -57.5
q55 0 87 52.5t32 138.5q0 90 -63 146t-179 56v17q100 18 151.5 63t51.5 107t-42.5 101.5t-108.5 39.5q-61 0 -112.5 -35.5t-72.5 -99.5l-16 6q6 39 25 77t52 73t87 57t121 22q119 0 185 -57t66 -143q0 -167 -231 -207q127 -8 199.5 -62t72.5 -155q0 -107 -88.5 -168.5
t-238.5 -61.5z" />
    <glyph glyph-name="uni2779" unicode="&#x2779;" horiz-adv-x="1538" 
d="M766 -29q145 0 277 57t228 152.5t153 227.5t57 276t-57 276t-153 227.5t-228 152.5t-277 57q-144 0 -275.5 -57t-227 -152.5t-152 -227.5t-56.5 -276t56.5 -276t152 -227.5t227 -152.5t275.5 -57zM637 279v16q68 7 94.5 26t26.5 56v133h-371v25l404 565h149v-553h131v-37
h-131v-133q0 -39 25 -56.5t84 -25.5v-16h-412zM440 547h318v444z" />
    <glyph glyph-name="uni277A" unicode="&#x277a;" horiz-adv-x="1538" 
d="M766 -29q145 0 277 57t228 152.5t153 227.5t57 276t-57 276t-153 227.5t-228 152.5t-277 57q-144 0 -275.5 -57t-227 -152.5t-152 -227.5t-56.5 -276t56.5 -276t152 -227.5t227 -152.5t275.5 -57zM725 272q-122 0 -206 53t-97 142l178 51q6 -96 46.5 -154.5t101.5 -58.5
q59 0 90.5 50t31.5 134q0 106 -51.5 167t-148.5 61q-87 0 -172 -55l-11 6l74 442h445v-158h-435l-43 -239q101 96 232 96q130 0 213.5 -72t83.5 -196q0 -129 -89 -199t-243 -70z" />
    <glyph glyph-name="uni277B" unicode="&#x277b;" horiz-adv-x="1538" 
d="M766 -27q145 0 277 57t228 152.5t153 227.5t57 276t-57 276t-153 227.5t-228 152.5t-277 57q-144 0 -275.5 -57t-227 -152.5t-152 -227.5t-56.5 -276t56.5 -276t152 -227.5t227 -152.5t275.5 -57zM780 272q-164 0 -253 105.5t-89 306.5q0 111 29.5 198t80 140t114.5 80.5
t137 27.5q110 0 194 -48t101 -128l-185 -53q-4 85 -42.5 140t-88.5 55q-72 0 -110.5 -93.5t-38.5 -275.5q43 49 101.5 70.5t111.5 21.5q112 0 187 -74t75 -192q0 -122 -86.5 -201.5t-237.5 -79.5zM795 307q59 0 92 60t33 149q0 107 -50 168t-125 61q-69 0 -116 -53
q2 -68 12.5 -133.5t30 -123t51.5 -93t72 -35.5z" />
    <glyph glyph-name="uni277C" unicode="&#x277c;" horiz-adv-x="1538" 
d="M766 -29q145 0 277 57t228 152.5t153 227.5t57 276t-57 276t-153 227.5t-228 152.5t-277 57q-144 0 -275.5 -57t-227 -152.5t-152 -227.5t-56.5 -276t56.5 -276t152 -227.5t227 -152.5t275.5 -57zM608 279q0 73 11 137.5t37.5 123.5t52.5 104t73.5 100.5t80 90.5t92.5 95
l12 12h-320q-71 0 -103 -26.5t-52 -104.5h-17l33 289h600v-19q-175 -224 -240.5 -403t-62.5 -399h-197z" />
    <glyph glyph-name="uni277D" unicode="&#x277d;" horiz-adv-x="1538" 
d="M766 -27q145 0 277 57t228 152.5t153 227.5t57 276t-57 276t-153 227.5t-228 152.5t-277 57q-144 0 -275.5 -57t-227 -152.5t-152 -227.5t-56.5 -276t56.5 -276t152 -227.5t227 -152.5t275.5 -57zM774 272q-154 0 -239.5 55.5t-85.5 153.5q0 158 221 193q-97 47 -142 98
t-45 129q0 97 76 163t209 66q129 0 209 -56.5t80 -135.5q0 -69 -53 -114t-146 -52q43 -20 68.5 -32.5t61 -37t54.5 -48.5t33.5 -61t14.5 -81q0 -104 -82 -172t-234 -68zM821 791q43 29 59.5 63t16.5 80q0 71 -36 116.5t-91 45.5q-54 0 -87.5 -34.5t-33.5 -90.5
q0 -64 42 -101.5t130 -78.5zM772 307q61 0 101 41.5t40 106.5q0 31 -11.5 57t-26.5 43.5t-44.5 36.5t-49.5 29.5t-59 28.5q-10 5 -15 7q-55 -37 -72 -79.5t-17 -94.5q0 -76 44 -126t110 -50z" />
    <glyph glyph-name="uni277E" unicode="&#x277e;" horiz-adv-x="1538" 
d="M766 -27q145 0 277 57t228 152.5t153 227.5t57 276t-57 276t-153 227.5t-228 152.5t-277 57q-144 0 -275.5 -57t-227 -152.5t-152 -227.5t-56.5 -276t56.5 -276t152 -227.5t227 -152.5t275.5 -57zM743 272q-111 0 -194.5 49t-102.5 128l187 55q6 -89 45 -143t88 -54
q51 0 85 49.5t48.5 131t13.5 190.5q-82 -94 -213 -94q-112 0 -186 73.5t-74 192.5q0 123 85.5 201.5t236.5 78.5q163 0 252.5 -104.5t89.5 -304.5q0 -111 -29.5 -198.5t-80 -141t-114.5 -81.5t-137 -28zM797 657q30 0 62 14t54 40q-2 68 -12.5 133.5t-29.5 123t-51 93
t-72 35.5q-59 0 -91 -59.5t-32 -149.5q0 -105 49 -167.5t123 -62.5z" />
    <glyph glyph-name="uniF8FF" unicode="&#xf8ff;" horiz-adv-x="1552" 
d="M326 -16q-107 0 -182.5 75t-75.5 181q0 119 70.5 190.5t187.5 71.5h192v377h-192q-117 0 -187.5 71.5t-70.5 190.5q0 106 76 182t182 76q112 0 187 -74t75 -184v-193h377v193q0 109 75 183.5t187 74.5q106 0 182 -76t76 -182q0 -118 -71 -190t-187 -72h-195v-377h195
q116 0 187 -72t71 -190q0 -104 -76 -180t-182 -76q-110 0 -186 73.5t-76 182.5v192h-377v-192q0 -109 -75 -182.5t-187 -73.5zM326 948h192v193q0 82 -54.5 135t-137.5 53q-78 0 -132.5 -55t-54.5 -133q0 -87 51.5 -140t135.5 -53zM1032 948h195q85 0 136.5 53.5t51.5 139.5
q0 78 -55 133t-133 55q-84 0 -139.5 -53.5t-55.5 -134.5v-193zM588 502h377v377h-377v-377zM326 51q83 0 137.5 53.5t54.5 135.5v192h-192q-85 0 -136 -53t-51 -139q0 -78 54.5 -133.5t132.5 -55.5zM1227 51q78 0 133 55.5t55 133.5q0 86 -51.5 139t-136.5 53h-195v-192
q0 -82 55.5 -135.5t139.5 -53.5z" />
    <glyph glyph-name="K.ss05" horiz-adv-x="1523" 
d="M1266 178q59 -66 114.5 -105.5t120.5 -43.5v-29h-368l-654 674v-498q0 -80 40 -108.5t140 -38.5v-29h-585v29q100 10 141 38.5t41 108.5v1016q0 79 -41.5 109t-140.5 38v29h585v-29q-98 -8 -139 -38t-41 -109v-473l584 500q65 54 41.5 86.5t-137.5 33.5v29h432v-29
q-117 -5 -262 -131l-475 -407z" />
    <glyph glyph-name="M.ss11" horiz-adv-x="1910" 
d="M1692 166q6 -68 44.5 -96.5t139.5 -40.5v-29h-588v29q102 11 144 41.5t38 95.5l-90 948l-503 -1114h-72l-432 1104l-99 -938q-6 -64 38 -94.5t149 -42.5v-29h-426v29q100 10 138 40t44 97l109 1038q7 71 -33 99t-135 36l2 29h362l418 -1096l494 1096h323l2 -29
q-95 -6 -134 -36t-32 -109z" />
    <glyph glyph-name="R.ss12" horiz-adv-x="1443" 
d="M1214 152q45 -50 101.5 -84.5t111.5 -38.5v-29h-397q-12 45 -69 109l-480 493h-2v-426q0 -80 40.5 -109.5t139.5 -37.5v-29h-585v29q99 8 140.5 37.5t41.5 109.5v1016q0 79 -41.5 109t-140.5 38v29h600q257 0 401 -97t144 -288q0 -176 -122 -270.5t-343 -108.5zM651 1311
h-170l-2 -652h172q158 0 244 87.5t86 236.5q0 151 -86 239.5t-244 88.5z" />
    <glyph glyph-name="Racute.ss12" horiz-adv-x="1443" 
d="M989 1839l-332 -338h-28l135 338h225zM1214 152q45 -50 101.5 -84.5t111.5 -38.5v-29h-397q-12 45 -69 109l-480 493h-2v-426q0 -80 40.5 -109.5t139.5 -37.5v-29h-585v29q99 8 140.5 37.5t41.5 109.5v1016q0 79 -41.5 109t-140.5 38v29h600q257 0 401 -97t144 -288
q0 -176 -122 -270.5t-343 -108.5zM651 1311h-170l-2 -652h172q158 0 244 87.5t86 236.5q0 151 -86 239.5t-244 88.5z" />
    <glyph glyph-name="Rcaron.ss12" horiz-adv-x="1443" 
d="M778 1501h-188l-197 338h29l262 -225l266 225h29zM1214 152q45 -50 101.5 -84.5t111.5 -38.5v-29h-397q-12 45 -69 109l-480 493h-2v-426q0 -80 40.5 -109.5t139.5 -37.5v-29h-585v29q99 8 140.5 37.5t41.5 109.5v1016q0 79 -41.5 109t-140.5 38v29h600q257 0 401 -97
t144 -288q0 -176 -122 -270.5t-343 -108.5zM651 1311h-170l-2 -652h172q158 0 244 87.5t86 236.5q0 151 -86 239.5t-244 88.5z" />
    <glyph glyph-name="uni0156.ss12" horiz-adv-x="1443" 
d="M1214 152q45 -50 101.5 -84.5t111.5 -38.5v-29h-397q-12 45 -69 109l-480 493h-2v-426q0 -80 40.5 -109.5t139.5 -37.5v-29h-585v29q99 8 140.5 37.5t41.5 109.5v1016q0 79 -41.5 109t-140.5 38v29h600q257 0 401 -97t144 -288q0 -176 -122 -270.5t-343 -108.5zM651 1311
h-170l-2 -652h172q158 0 244 87.5t86 236.5q0 151 -86 239.5t-244 88.5zM635 -96l190 14q44 -220 -194 -371l-19 17q41 63 48 166t-25 174z" />
    <glyph glyph-name="i.loclTRK" horiz-adv-x="632" 
d="M313 1188q-63 0 -105 40.5t-42 100.5q0 59 42 99t105 40q61 0 102.5 -40t41.5 -99q0 -60 -41.5 -100.5t-102.5 -40.5zM428 154q0 -61 30.5 -86t96.5 -39v-29h-463v29q66 14 96.5 39t30.5 86v675q0 52 -26 78.5t-82 32.5h-43v29l331 94h29v-909z" />
    <glyph glyph-name="germandbls.calt" horiz-adv-x="1462" 
d="M918 -29q-200 0 -322 125l22 27q93 -78 242 -78q135 0 218 91.5t83 242.5q0 183 -137.5 266t-355.5 35l-15 35l410 571q-137 55 -277 55t-223.5 -97.5t-83.5 -256.5v-987h-405v29q99 8 140.5 37.5t41.5 109.5v774q0 93 34 174t99 142.5t168 97t231 35.5q210 0 502 -62
l17 -47l-377 -483q195 15 316.5 -95.5t121.5 -303.5t-125 -315t-325 -122z" />
    <glyph glyph-name="a.ss01" horiz-adv-x="1204" 
d="M1137 92l43 -2v-29l-332 -94h-29v244q-41 -106 -127 -175t-190 -69q-126 0 -222.5 70.5t-146 186.5t-49.5 257q0 137 38.5 248.5t105 183t154 110t187.5 38.5q174 0 283 -131l147 131h29v-860q0 -53 27 -78.5t82 -30.5zM584 100q73 0 141.5 52.5t93.5 123.5v426
q0 116 -66 200.5t-188 84.5q-74 0 -134.5 -57.5t-94 -156t-33.5 -216.5q0 -85 16.5 -164t49 -146t88 -107t127.5 -40z" />
    <glyph glyph-name="aacute.ss01" horiz-adv-x="1204" 
d="M897 1501l-332 -338h-28l135 338h225zM1137 92l43 -2v-29l-332 -94h-29v244q-41 -106 -127 -175t-190 -69q-126 0 -222.5 70.5t-146 186.5t-49.5 257q0 137 38.5 248.5t105 183t154 110t187.5 38.5q174 0 283 -131l147 131h29v-860q0 -53 27 -78.5t82 -30.5zM584 100
q73 0 141.5 52.5t93.5 123.5v426q0 116 -66 200.5t-188 84.5q-74 0 -134.5 -57.5t-94 -156t-33.5 -216.5q0 -85 16.5 -164t49 -146t88 -107t127.5 -40z" />
    <glyph glyph-name="abreve.ss01" horiz-adv-x="1204" 
d="M596 1159q-128 0 -196.5 84t-67.5 258h28q10 -104 74.5 -149t161.5 -45q214 0 235 194h29q0 -174 -68.5 -258t-195.5 -84zM1137 92l43 -2v-29l-332 -94h-29v244q-41 -106 -127 -175t-190 -69q-126 0 -222.5 70.5t-146 186.5t-49.5 257q0 137 38.5 248.5t105 183t154 110
t187.5 38.5q174 0 283 -131l147 131h29v-860q0 -53 27 -78.5t82 -30.5zM584 100q73 0 141.5 52.5t93.5 123.5v426q0 116 -66 200.5t-188 84.5q-74 0 -134.5 -57.5t-94 -156t-33.5 -216.5q0 -85 16.5 -164t49 -146t88 -107t127.5 -40z" />
    <glyph glyph-name="acircumflex.ss01" horiz-adv-x="1204" 
d="M584 1389l-262 -226h-29l196 338h189l201 -338h-29zM1137 92l43 -2v-29l-332 -94h-29v244q-41 -106 -127 -175t-190 -69q-126 0 -222.5 70.5t-146 186.5t-49.5 257q0 137 38.5 248.5t105 183t154 110t187.5 38.5q174 0 283 -131l147 131h29v-860q0 -53 27 -78.5t82 -30.5
zM584 100q73 0 141.5 52.5t93.5 123.5v426q0 116 -66 200.5t-188 84.5q-74 0 -134.5 -57.5t-94 -156t-33.5 -216.5q0 -85 16.5 -164t49 -146t88 -107t127.5 -40z" />
    <glyph glyph-name="adieresis.ss01" horiz-adv-x="1204" 
d="M414 1188q-62 0 -102 38.5t-40 96.5q0 57 40.5 96t101.5 39q60 0 99.5 -39t39.5 -96q0 -58 -39.5 -96.5t-99.5 -38.5zM799 1188q-62 0 -103 38.5t-41 96.5q0 57 41.5 96t102.5 39q60 0 99.5 -39t39.5 -96q0 -58 -39.5 -96.5t-99.5 -38.5zM1137 92l43 -2v-29l-332 -94h-29
v244q-41 -106 -127 -175t-190 -69q-126 0 -222.5 70.5t-146 186.5t-49.5 257q0 137 38.5 248.5t105 183t154 110t187.5 38.5q174 0 283 -131l147 131h29v-860q0 -53 27 -78.5t82 -30.5zM584 100q73 0 141.5 52.5t93.5 123.5v426q0 116 -66 200.5t-188 84.5
q-74 0 -134.5 -57.5t-94 -156t-33.5 -216.5q0 -85 16.5 -164t49 -146t88 -107t127.5 -40z" />
    <glyph glyph-name="agrave.ss01" horiz-adv-x="1204" 
d="M643 1163h-29l-331 338h225zM1137 92l43 -2v-29l-332 -94h-29v244q-41 -106 -127 -175t-190 -69q-126 0 -222.5 70.5t-146 186.5t-49.5 257q0 137 38.5 248.5t105 183t154 110t187.5 38.5q174 0 283 -131l147 131h29v-860q0 -53 27 -78.5t82 -30.5zM584 100
q73 0 141.5 52.5t93.5 123.5v426q0 116 -66 200.5t-188 84.5q-74 0 -134.5 -57.5t-94 -156t-33.5 -216.5q0 -85 16.5 -164t49 -146t88 -107t127.5 -40z" />
    <glyph glyph-name="amacron.ss01" horiz-adv-x="1204" 
d="M872 1280v-70h-557v70h557zM1137 92l43 -2v-29l-332 -94h-29v244q-41 -106 -127 -175t-190 -69q-126 0 -222.5 70.5t-146 186.5t-49.5 257q0 137 38.5 248.5t105 183t154 110t187.5 38.5q174 0 283 -131l147 131h29v-860q0 -53 27 -78.5t82 -30.5zM584 100
q73 0 141.5 52.5t93.5 123.5v426q0 116 -66 200.5t-188 84.5q-74 0 -134.5 -57.5t-94 -156t-33.5 -216.5q0 -85 16.5 -164t49 -146t88 -107t127.5 -40z" />
    <glyph glyph-name="aogonek.ss01" horiz-adv-x="1204" 
d="M1217 -336l10 -20q-87 -78 -213 -78q-77 0 -130 43.5t-53 118.5q0 170 279 313l-262 -74h-29v244q-41 -106 -127 -175t-190 -69q-126 0 -222.5 70.5t-146 186.5t-49.5 257q0 137 38.5 248.5t105 183t154 110t187.5 38.5q174 0 283 -131l147 131h29v-860q0 -53 27 -78.5
t82 -30.5l43 -2v-29h-4q-97 -83 -137 -146t-40 -136q0 -80 59 -115t159 0zM584 100q73 0 141.5 52.5t93.5 123.5v426q0 116 -66 200.5t-188 84.5q-74 0 -134.5 -57.5t-94 -156t-33.5 -216.5q0 -85 16.5 -164t49 -146t88 -107t127.5 -40z" />
    <glyph glyph-name="aring.ss01" horiz-adv-x="1204" 
d="M594 1139q-89 0 -146 55t-57 139q0 85 57 140t146 55t146 -55t57 -140q0 -84 -57 -139t-146 -55zM594 1466q-54 0 -91.5 -37t-37.5 -94q0 -58 37.5 -96.5t91.5 -38.5q57 0 93 38t36 97q0 57 -36 94t-93 37zM1137 92l43 -2v-29l-332 -94h-29v244q-41 -106 -127 -175
t-190 -69q-126 0 -222.5 70.5t-146 186.5t-49.5 257q0 137 38.5 248.5t105 183t154 110t187.5 38.5q174 0 283 -131l147 131h29v-860q0 -53 27 -78.5t82 -30.5zM584 100q73 0 141.5 52.5t93.5 123.5v426q0 116 -66 200.5t-188 84.5q-74 0 -134.5 -57.5t-94 -156
t-33.5 -216.5q0 -85 16.5 -164t49 -146t88 -107t127.5 -40z" />
    <glyph glyph-name="aringacute.ss01" horiz-adv-x="1204" 
d="M594 1139q-89 0 -146 55t-57 139q0 73 44.5 126t115.5 65l119 295h225l-287 -291q83 -5 136 -59t53 -136q0 -84 -57 -139t-146 -55zM594 1466q-54 0 -91.5 -37t-37.5 -94q0 -58 37.5 -96.5t91.5 -38.5q57 0 93 38t36 97q0 57 -36 94t-93 37zM1137 92l43 -2v-29l-332 -94
h-29v244q-41 -106 -127 -175t-190 -69q-126 0 -222.5 70.5t-146 186.5t-49.5 257q0 137 38.5 248.5t105 183t154 110t187.5 38.5q174 0 283 -131l147 131h29v-860q0 -53 27 -78.5t82 -30.5zM584 100q73 0 141.5 52.5t93.5 123.5v426q0 116 -66 200.5t-188 84.5
q-74 0 -134.5 -57.5t-94 -156t-33.5 -216.5q0 -85 16.5 -164t49 -146t88 -107t127.5 -40z" />
    <glyph glyph-name="atilde.ss01" horiz-adv-x="1204" 
d="M416 1294q-36 0 -66.5 -25t-46.5 -81l-29 2q10 115 60.5 177.5t130.5 62.5q34 0 78.5 -17t80.5 -37.5t77.5 -37.5t70.5 -17q83 0 113 104l28 -2q-9 -112 -59.5 -174.5t-130.5 -62.5q-47 0 -103 27t-109.5 54t-94.5 27zM1137 92l43 -2v-29l-332 -94h-29v244
q-41 -106 -127 -175t-190 -69q-126 0 -222.5 70.5t-146 186.5t-49.5 257q0 137 38.5 248.5t105 183t154 110t187.5 38.5q174 0 283 -131l147 131h29v-860q0 -53 27 -78.5t82 -30.5zM584 100q73 0 141.5 52.5t93.5 123.5v426q0 116 -66 200.5t-188 84.5q-74 0 -134.5 -57.5
t-94 -156t-33.5 -216.5q0 -85 16.5 -164t49 -146t88 -107t127.5 -40z" />
    <glyph glyph-name="ae.ss01" horiz-adv-x="1808" 
d="M1700 307l24 -10q-35 -142 -147.5 -234t-276.5 -92q-208 0 -337 135l-107 -137h-29l-6 199q-52 -102 -135 -151.5t-184 -49.5q-126 0 -222.5 70.5t-146 186.5t-49.5 257q0 137 38.5 248.5t105 183t154 110t187.5 38.5q242 0 367 -182q139 182 381 182q195 0 300 -123
t105 -328h-694q-2 -10 -2 -28q-6 -206 98.5 -325.5t280.5 -119.5q99 0 173.5 47t121.5 123zM1286 1004q-101 0 -166.5 -93.5t-85.5 -242.5h471q-2 84 -27 159t-75.5 126t-116.5 51zM584 100q159 0 235 162v285q-3 236 -64.5 338t-189.5 102q-74 0 -134.5 -57.5t-94 -156
t-33.5 -216.5q0 -85 16.5 -164t49 -146t88 -107t127.5 -40z" />
    <glyph glyph-name="aeacute.ss01" horiz-adv-x="1808" 
d="M1221 1501l-332 -338h-29l135 338h226zM1700 307l24 -10q-35 -142 -147.5 -234t-276.5 -92q-208 0 -337 135l-107 -137h-29l-6 199q-52 -102 -135 -151.5t-184 -49.5q-126 0 -222.5 70.5t-146 186.5t-49.5 257q0 137 38.5 248.5t105 183t154 110t187.5 38.5
q242 0 367 -182q139 182 381 182q195 0 300 -123t105 -328h-694q-2 -10 -2 -28q-6 -206 98.5 -325.5t280.5 -119.5q99 0 173.5 47t121.5 123zM1286 1004q-101 0 -166.5 -93.5t-85.5 -242.5h471q-2 84 -27 159t-75.5 126t-116.5 51zM584 100q159 0 235 162v285
q-3 236 -64.5 338t-189.5 102q-74 0 -134.5 -57.5t-94 -156t-33.5 -216.5q0 -85 16.5 -164t49 -146t88 -107t127.5 -40z" />
    <glyph glyph-name="g.ss02" horiz-adv-x="1150" 
d="M999 1061h29v-1053q0 -209 -123 -325.5t-358 -116.5q-164 0 -273.5 55t-156.5 129l194 103q32 -101 104.5 -166.5t166.5 -65.5q117 0 177 78.5t60 224.5v285q-41 -104 -126 -173t-195 -69q-124 0 -220 70.5t-145 187t-49 256.5q0 137 38.5 248.5t105 183t154 110
t187.5 38.5q174 0 283 -131zM584 100q73 0 141.5 52.5t93.5 123.5v426q0 74 -26 137t-84.5 105.5t-139.5 42.5q-115 0 -190.5 -124.5t-75.5 -305.5q0 -85 16.5 -164t49 -146t88 -107t127.5 -40z" />
    <glyph glyph-name="gbreve.ss02" horiz-adv-x="1150" 
d="M606 1159q-128 0 -196.5 84t-67.5 258h29q18 -194 235 -194q215 0 236 194h28q0 -174 -68.5 -258t-195.5 -84zM999 1061h29v-1053q0 -209 -123 -325.5t-358 -116.5q-164 0 -273.5 55t-156.5 129l194 103q32 -101 104.5 -166.5t166.5 -65.5q117 0 177 78.5t60 224.5v285
q-41 -104 -126 -173t-195 -69q-124 0 -220 70.5t-145 187t-49 256.5q0 137 38.5 248.5t105 183t154 110t187.5 38.5q174 0 283 -131zM584 100q73 0 141.5 52.5t93.5 123.5v426q0 74 -26 137t-84.5 105.5t-139.5 42.5q-115 0 -190.5 -124.5t-75.5 -305.5q0 -85 16.5 -164
t49 -146t88 -107t127.5 -40z" />
    <glyph glyph-name="gcircumflex.ss02" horiz-adv-x="1150" 
d="M594 1389l-262 -226h-29l197 338h188l201 -338h-29zM999 1061h29v-1053q0 -209 -123 -325.5t-358 -116.5q-164 0 -273.5 55t-156.5 129l194 103q32 -101 104.5 -166.5t166.5 -65.5q117 0 177 78.5t60 224.5v285q-41 -104 -126 -173t-195 -69q-124 0 -220 70.5t-145 187
t-49 256.5q0 137 38.5 248.5t105 183t154 110t187.5 38.5q174 0 283 -131zM584 100q73 0 141.5 52.5t93.5 123.5v426q0 74 -26 137t-84.5 105.5t-139.5 42.5q-115 0 -190.5 -124.5t-75.5 -305.5q0 -85 16.5 -164t49 -146t88 -107t127.5 -40z" />
    <glyph glyph-name="uni0123.ss02" horiz-adv-x="1150" 
d="M731 1161l-190 -16q-46 219 194 371l19 -15q-42 -65 -49 -167.5t26 -172.5zM999 1061h29v-1053q0 -209 -123 -325.5t-358 -116.5q-164 0 -273.5 55t-156.5 129l194 103q32 -101 104.5 -166.5t166.5 -65.5q117 0 177 78.5t60 224.5v285q-41 -104 -126 -173t-195 -69
q-124 0 -220 70.5t-145 187t-49 256.5q0 137 38.5 248.5t105 183t154 110t187.5 38.5q174 0 283 -131zM584 100q73 0 141.5 52.5t93.5 123.5v426q0 74 -26 137t-84.5 105.5t-139.5 42.5q-115 0 -190.5 -124.5t-75.5 -305.5q0 -85 16.5 -164t49 -146t88 -107t127.5 -40z" />
    <glyph glyph-name="gdotaccent.ss02" horiz-adv-x="1150" 
d="M606 1188q-63 0 -105 40.5t-42 100.5q0 59 42 99t105 40q61 0 102.5 -40t41.5 -99q0 -60 -41.5 -100.5t-102.5 -40.5zM999 1061h29v-1053q0 -209 -123 -325.5t-358 -116.5q-164 0 -273.5 55t-156.5 129l194 103q32 -101 104.5 -166.5t166.5 -65.5q117 0 177 78.5
t60 224.5v285q-41 -104 -126 -173t-195 -69q-124 0 -220 70.5t-145 187t-49 256.5q0 137 38.5 248.5t105 183t154 110t187.5 38.5q174 0 283 -131zM584 100q73 0 141.5 52.5t93.5 123.5v426q0 74 -26 137t-84.5 105.5t-139.5 42.5q-115 0 -190.5 -124.5t-75.5 -305.5
q0 -85 16.5 -164t49 -146t88 -107t127.5 -40z" />
    <glyph glyph-name="g.ss03" horiz-adv-x="1114" 
d="M666 193q85 -1 155.5 -16.5t126.5 -48t87.5 -87t31.5 -127.5q0 -159 -160 -253.5t-407 -94.5q-215 0 -336 65.5t-121 182.5q0 88 56.5 155.5t136.5 96.5v395q-107 96 -107 241q0 156 117.5 257.5t308.5 101.5q99 0 184 -31h324v-57h-217q64 -48 99.5 -118t35.5 -153
q0 -153 -117.5 -253.5t-308.5 -100.5q-144 0 -262 70v-225h373zM539 1001q-85 0 -139 -73.5t-54 -190.5q0 -146 62.5 -238.5t162.5 -92.5q86 0 139.5 73.5t53.5 192.5q0 144 -62.5 236.5t-162.5 92.5zM571 -381q154 0 257.5 62t103.5 165q0 96 -71.5 138.5t-213.5 42.5
l-373 2q-59 -79 -59 -152q0 -121 103 -189.5t253 -68.5z" />
    <glyph glyph-name="gbreve.ss03" horiz-adv-x="1114" 
d="M557 1159q-128 0 -196.5 84t-67.5 258h29q18 -194 235 -194q215 0 236 194h28q0 -174 -68.5 -258t-195.5 -84zM666 193q85 -1 155.5 -16.5t126.5 -48t87.5 -87t31.5 -127.5q0 -159 -160 -253.5t-407 -94.5q-215 0 -336 65.5t-121 182.5q0 88 56.5 155.5t136.5 96.5v395
q-107 96 -107 241q0 156 117.5 257.5t308.5 101.5q99 0 184 -31h324v-57h-217q64 -48 99.5 -118t35.5 -153q0 -153 -117.5 -253.5t-308.5 -100.5q-144 0 -262 70v-225h373zM539 1001q-85 0 -139 -73.5t-54 -190.5q0 -146 62.5 -238.5t162.5 -92.5q86 0 139.5 73.5
t53.5 192.5q0 144 -62.5 236.5t-162.5 92.5zM571 -381q154 0 257.5 62t103.5 165q0 96 -71.5 138.5t-213.5 42.5l-373 2q-59 -79 -59 -152q0 -121 103 -189.5t253 -68.5z" />
    <glyph glyph-name="gcircumflex.ss03" horiz-adv-x="1114" 
d="M547 1389l-262 -226h-29l197 338h188l201 -338h-29zM666 193q85 -1 155.5 -16.5t126.5 -48t87.5 -87t31.5 -127.5q0 -159 -160 -253.5t-407 -94.5q-215 0 -336 65.5t-121 182.5q0 88 56.5 155.5t136.5 96.5v395q-107 96 -107 241q0 156 117.5 257.5t308.5 101.5
q99 0 184 -31h324v-57h-217q64 -48 99.5 -118t35.5 -153q0 -153 -117.5 -253.5t-308.5 -100.5q-144 0 -262 70v-225h373zM539 1001q-85 0 -139 -73.5t-54 -190.5q0 -146 62.5 -238.5t162.5 -92.5q86 0 139.5 73.5t53.5 192.5q0 144 -62.5 236.5t-162.5 92.5zM571 -381
q154 0 257.5 62t103.5 165q0 96 -71.5 138.5t-213.5 42.5l-373 2q-59 -79 -59 -152q0 -121 103 -189.5t253 -68.5z" />
    <glyph glyph-name="uni0123.ss03" horiz-adv-x="1114" 
d="M684 1161l-190 -16q-46 219 194 371l19 -15q-42 -65 -49 -167.5t26 -172.5zM666 193q85 -1 155.5 -16.5t126.5 -48t87.5 -87t31.5 -127.5q0 -159 -160 -253.5t-407 -94.5q-215 0 -336 65.5t-121 182.5q0 88 56.5 155.5t136.5 96.5v395q-107 96 -107 241
q0 156 117.5 257.5t308.5 101.5q99 0 184 -31h324v-57h-217q64 -48 99.5 -118t35.5 -153q0 -153 -117.5 -253.5t-308.5 -100.5q-144 0 -262 70v-225h373zM539 1001q-85 0 -139 -73.5t-54 -190.5q0 -146 62.5 -238.5t162.5 -92.5q86 0 139.5 73.5t53.5 192.5
q0 144 -62.5 236.5t-162.5 92.5zM571 -381q154 0 257.5 62t103.5 165q0 96 -71.5 138.5t-213.5 42.5l-373 2q-59 -79 -59 -152q0 -121 103 -189.5t253 -68.5z" />
    <glyph glyph-name="gdotaccent.ss03" horiz-adv-x="1114" 
d="M557 1188q-63 0 -105 40.5t-42 100.5q0 59 42 99t105 40q61 0 102 -40t41 -99q0 -60 -41 -100.5t-102 -40.5zM666 193q85 -1 155.5 -16.5t126.5 -48t87.5 -87t31.5 -127.5q0 -159 -160 -253.5t-407 -94.5q-215 0 -336 65.5t-121 182.5q0 88 56.5 155.5t136.5 96.5v395
q-107 96 -107 241q0 156 117.5 257.5t308.5 101.5q99 0 184 -31h324v-57h-217q64 -48 99.5 -118t35.5 -153q0 -153 -117.5 -253.5t-308.5 -100.5q-144 0 -262 70v-225h373zM539 1001q-85 0 -139 -73.5t-54 -190.5q0 -146 62.5 -238.5t162.5 -92.5q86 0 139.5 73.5
t53.5 192.5q0 144 -62.5 236.5t-162.5 92.5zM571 -381q154 0 257.5 62t103.5 165q0 96 -71.5 138.5t-213.5 42.5l-373 2q-59 -79 -59 -152q0 -121 103 -189.5t253 -68.5z" />
    <glyph glyph-name="g.ss04" horiz-adv-x="1150" 
d="M999 1061h29v-1348q0 -52 -33 -84t-86 -32h-716v57h626v555q-41 -103 -125.5 -172.5t-191.5 -69.5q-126 0 -222.5 70.5t-146 186.5t-49.5 257q0 137 38.5 248.5t105 183t154 110t187.5 38.5q174 0 283 -131zM584 100q73 0 141.5 52.5t93.5 123.5v426q0 116 -66 200.5
t-188 84.5q-74 0 -134.5 -57.5t-94 -156t-33.5 -216.5q0 -85 16.5 -164t49 -146t88 -107t127.5 -40z" />
    <glyph glyph-name="gbreve.ss04" horiz-adv-x="1150" 
d="M578 1159q-128 0 -197 84t-68 258h29q10 -104 74.5 -149t161.5 -45q214 0 235 194h29q0 -174 -68.5 -258t-195.5 -84zM999 1061h29v-1348q0 -52 -33 -84t-86 -32h-716v57h626v555q-41 -103 -125.5 -172.5t-191.5 -69.5q-126 0 -222.5 70.5t-146 186.5t-49.5 257
q0 137 38.5 248.5t105 183t154 110t187.5 38.5q174 0 283 -131zM584 100q73 0 141.5 52.5t93.5 123.5v426q0 116 -66 200.5t-188 84.5q-74 0 -134.5 -57.5t-94 -156t-33.5 -216.5q0 -85 16.5 -164t49 -146t88 -107t127.5 -40z" />
    <glyph glyph-name="gcircumflex.ss04" horiz-adv-x="1150" 
d="M567 1389l-262 -226h-29l197 338h189l200 -338h-28zM999 1061h29v-1348q0 -52 -33 -84t-86 -32h-716v57h626v555q-41 -103 -125.5 -172.5t-191.5 -69.5q-126 0 -222.5 70.5t-146 186.5t-49.5 257q0 137 38.5 248.5t105 183t154 110t187.5 38.5q174 0 283 -131zM584 100
q73 0 141.5 52.5t93.5 123.5v426q0 116 -66 200.5t-188 84.5q-74 0 -134.5 -57.5t-94 -156t-33.5 -216.5q0 -85 16.5 -164t49 -146t88 -107t127.5 -40z" />
    <glyph glyph-name="uni0123.ss04" horiz-adv-x="1150" 
d="M705 1161l-191 -16q-46 219 195 371l18 -15q-42 -65 -48.5 -168t26.5 -172zM999 1061h29v-1348q0 -52 -33 -84t-86 -32h-716v57h626v555q-41 -103 -125.5 -172.5t-191.5 -69.5q-126 0 -222.5 70.5t-146 186.5t-49.5 257q0 137 38.5 248.5t105 183t154 110t187.5 38.5
q174 0 283 -131zM584 100q73 0 141.5 52.5t93.5 123.5v426q0 116 -66 200.5t-188 84.5q-74 0 -134.5 -57.5t-94 -156t-33.5 -216.5q0 -85 16.5 -164t49 -146t88 -107t127.5 -40z" />
    <glyph glyph-name="gdotaccent.ss04" horiz-adv-x="1150" 
d="M578 1188q-63 0 -105.5 40.5t-42.5 100.5q0 59 42.5 99t105.5 40q61 0 102 -40t41 -99q0 -60 -41 -100.5t-102 -40.5zM999 1061h29v-1348q0 -52 -33 -84t-86 -32h-716v57h626v555q-41 -103 -125.5 -172.5t-191.5 -69.5q-126 0 -222.5 70.5t-146 186.5t-49.5 257
q0 137 38.5 248.5t105 183t154 110t187.5 38.5q174 0 283 -131zM584 100q73 0 141.5 52.5t93.5 123.5v426q0 116 -66 200.5t-188 84.5q-74 0 -134.5 -57.5t-94 -156t-33.5 -216.5q0 -85 16.5 -164t49 -146t88 -107t127.5 -40z" />
    <glyph glyph-name="k.ss05" horiz-adv-x="1230" 
d="M1014 137q23 -28 35.5 -41t35.5 -30.5t52.5 -25.5t70.5 -11v-29h-368q-9 56 -54 113l-372 458v-417q0 -61 31 -86t96 -39v-29h-463v29q66 14 97.5 39t31.5 86v1065q0 52 -26.5 77.5t-82.5 30.5l-45 2v29l332 94h29v-864l405 307q61 46 44 76t-103 30v29h381v-29
q-34 0 -64.5 -8t-69 -31.5t-64.5 -42.5t-83 -63l-258 -197z" />
    <glyph glyph-name="kgreenlandic.ss05" horiz-adv-x="1253" 
d="M1036 137q23 -28 35.5 -41t36 -30.5t53 -25.5t70.5 -11v-29h-369q-5 51 -51 113l-373 456v-417q0 -61 30.5 -85t96.5 -38v-29h-463v29q66 14 96.5 38t30.5 85v677q0 52 -26 78.5t-82 30.5l-43 2v29l332 92h28v-471l404 305q62 46 45 76t-105 30v29h381v-29
q-45 0 -91.5 -20t-80 -43.5t-108.5 -81.5l-258 -197z" />
    <glyph glyph-name="r.ss06" horiz-adv-x="804" 
d="M418 154q0 -61 30.5 -86t96.5 -39v-29h-463v29q66 14 96.5 39t30.5 86v759q0 52 33 84.5t86 32.5h458v-57h-368v-819z" />
    <glyph glyph-name="racute.ss06" horiz-adv-x="804" 
d="M805 1501l-332 -338h-29l136 338h225zM209 913q0 52 33 84.5t86 32.5h458v-57h-368v-819q0 -61 30.5 -86t96.5 -39v-29h-463v29q66 14 96.5 39t30.5 86v759z" />
    <glyph glyph-name="rcaron.ss06" horiz-adv-x="804" 
d="M594 1163h-188l-197 338h29l262 -225l266 225h29zM209 913q0 52 33 84.5t86 32.5h458v-57h-368v-819q0 -61 30.5 -86t96.5 -39v-29h-463v29q66 14 96.5 39t30.5 86v759z" />
    <glyph glyph-name="uni0157.ss06" horiz-adv-x="804" 
d="M418 154q0 -61 30.5 -86t96.5 -39v-29h-463v29q66 14 96.5 39t30.5 86v759q0 52 33 84.5t86 32.5h458v-57h-368v-819zM231 -96l191 14q44 -220 -195 -371l-18 17q41 63 47.5 166.5t-25.5 173.5z" />
    <glyph glyph-name="t.ss07" horiz-adv-x="643" 
d="M287 0q-53 0 -85 32.5t-32 86.5v854h-113v28l293 273h29v-244h229v-57h-229v-916h229v-57h-321z" />
    <glyph glyph-name="tbar.ss07" horiz-adv-x="641" 
d="M629 973h-230v-340h226v-58h-226v-518h230v-57h-320q-54 0 -86.5 32.5t-32.5 86.5v456h-163v58h163v340h-110v28l291 273h28v-244h230v-57z" />
    <glyph glyph-name="tcaron.ss07" horiz-adv-x="643" 
d="M532 1153l66 412h195l-232 -412h-29zM287 0q-53 0 -85 32.5t-32 86.5v854h-113v28l293 273h29v-244h229v-57h-229v-916h229v-57h-321z" />
    <glyph glyph-name="uni0163.ss07" horiz-adv-x="643" 
d="M608 973h-229v-916h229v-57h-190l-39 -111q65 -9 109 -48t44 -113q0 -96 -93 -139.5t-234 -16.5l2 29q88 -9 139 19t53 83q1 47 -31 74.5t-89 38.5l98 184h-90q-53 0 -85 32.5t-32 86.5v854h-113v28l293 273h29v-244h229v-57z" />
    <glyph glyph-name="uni021B.ss07" horiz-adv-x="643" 
d="M287 0q-53 0 -85 32.5t-32 86.5v854h-113v28l293 273h29v-244h229v-57h-229v-916h229v-57h-321zM305 -453l-18 17q41 63 47.5 166.5t-25.5 173.5l191 14q44 -220 -195 -371z" />
    <glyph glyph-name="y.ss08" horiz-adv-x="1089" 
d="M805 1030h299v-26q-52 -3 -82 -28t-57 -85l-392 -887l-159 -407h-217v28l338 398l-390 868q-28 60 -58 85t-79 28v26h479v-26q-74 -3 -103.5 -32.5t-6.5 -78.5l264 -623l260 621q23 52 -2 81t-94 32v26z" />
    <glyph glyph-name="yacute.ss08" horiz-adv-x="1089" 
d="M573 1163l136 338h225l-332 -338h-29zM805 1030h299v-26q-52 -3 -82 -28t-57 -85l-392 -887l-159 -407h-217v28l338 398l-390 868q-28 60 -58 85t-79 28v26h479v-26q-74 -3 -103.5 -32.5t-6.5 -78.5l264 -623l260 621q23 52 -2 81t-94 32v26z" />
    <glyph glyph-name="ycircumflex.ss08" horiz-adv-x="1089" 
d="M526 1501h189l200 -338h-28l-266 226l-263 -226h-28zM805 1030h299v-26q-52 -3 -82 -28t-57 -85l-392 -887l-159 -407h-217v28l338 398l-390 868q-28 60 -58 85t-79 28v26h479v-26q-74 -3 -103.5 -32.5t-6.5 -78.5l264 -623l260 621q23 52 -2 81t-94 32v26z" />
    <glyph glyph-name="ydieresis.ss08" horiz-adv-x="1089" 
d="M451 1188q-62 0 -102 38.5t-40 96.5q0 57 40.5 96t101.5 39q60 0 99.5 -39t39.5 -96q0 -58 -39.5 -96.5t-99.5 -38.5zM836 1188q-62 0 -103 38.5t-41 96.5q0 57 41.5 96t102.5 39q60 0 99.5 -39t39.5 -96q0 -58 -39.5 -96.5t-99.5 -38.5zM805 1030h299v-26
q-52 -3 -82 -28t-57 -85l-392 -887l-159 -407h-217v28l338 398l-390 868q-28 60 -58 85t-79 28v26h479v-26q-74 -3 -103.5 -32.5t-6.5 -78.5l264 -623l260 621q23 52 -2 81t-94 32v26z" />
    <glyph glyph-name="ygrave.ss08" horiz-adv-x="1089" 
d="M680 1163h-29l-332 338h226zM805 1030h299v-26q-52 -3 -82 -28t-57 -85l-392 -887l-159 -407h-217v28l338 398l-390 868q-28 60 -58 85t-79 28v26h479v-26q-74 -3 -103.5 -32.5t-6.5 -78.5l264 -623l260 621q23 52 -2 81t-94 32v26z" />
    <glyph glyph-name="y.ss09" horiz-adv-x="1163" 
d="M1010 1061h28v-1053q0 -209 -122 -325.5t-357 -116.5q-164 0 -273.5 54.5t-158.5 129.5l197 103q32 -101 103.5 -166.5t164.5 -65.5q119 0 179 78t60 225v279q-91 -116 -174.5 -175t-185.5 -59q-140 0 -215.5 85t-75.5 237v538q0 100 -108 109l-45 2v29l331 92h29v-756
q0 -92 47 -144t129 -52q73 0 135.5 34t132.5 113v573q0 51 -26.5 78t-83.5 31l-43 2v29z" />
    <glyph glyph-name="yacute.ss09" horiz-adv-x="1163" 
d="M907 1501l-332 -338h-28l135 338h225zM1010 1061h28v-1053q0 -209 -122 -325.5t-357 -116.5q-164 0 -273.5 54.5t-158.5 129.5l197 103q32 -101 103.5 -166.5t164.5 -65.5q119 0 179 78t60 225v279q-91 -116 -174.5 -175t-185.5 -59q-140 0 -215.5 85t-75.5 237v538
q0 100 -108 109l-45 2v29l331 92h29v-756q0 -92 47 -144t129 -52q73 0 135.5 34t132.5 113v573q0 51 -26.5 78t-83.5 31l-43 2v29z" />
    <glyph glyph-name="ycircumflex.ss09" horiz-adv-x="1163" 
d="M596 1389l-262 -226h-29l197 338h188l201 -338h-29zM1010 1061h28v-1053q0 -209 -122 -325.5t-357 -116.5q-164 0 -273.5 54.5t-158.5 129.5l197 103q32 -101 103.5 -166.5t164.5 -65.5q119 0 179 78t60 225v279q-91 -116 -174.5 -175t-185.5 -59q-140 0 -215.5 85
t-75.5 237v538q0 100 -108 109l-45 2v29l331 92h29v-756q0 -92 47 -144t129 -52q73 0 135.5 34t132.5 113v573q0 51 -26.5 78t-83.5 31l-43 2v29z" />
    <glyph glyph-name="ydieresis.ss09" horiz-adv-x="1163" 
d="M424 1188q-61 0 -101 38t-40 97q0 57 40 96t101 39q60 0 99.5 -39t39.5 -96q0 -58 -39.5 -96.5t-99.5 -38.5zM809 1188q-62 0 -102.5 38.5t-40.5 96.5q0 57 41 96t102 39q60 0 99.5 -39t39.5 -96q0 -58 -39.5 -96.5t-99.5 -38.5zM1010 1061h28v-1053q0 -209 -122 -325.5
t-357 -116.5q-164 0 -273.5 54.5t-158.5 129.5l197 103q32 -101 103.5 -166.5t164.5 -65.5q119 0 179 78t60 225v279q-91 -116 -174.5 -175t-185.5 -59q-140 0 -215.5 85t-75.5 237v538q0 100 -108 109l-45 2v29l331 92h29v-756q0 -92 47 -144t129 -52q73 0 135.5 34
t132.5 113v573q0 51 -26.5 78t-83.5 31l-43 2v29z" />
    <glyph glyph-name="ygrave.ss09" horiz-adv-x="1163" 
d="M653 1163h-28l-332 338h225zM1010 1061h28v-1053q0 -209 -122 -325.5t-357 -116.5q-164 0 -273.5 54.5t-158.5 129.5l197 103q32 -101 103.5 -166.5t164.5 -65.5q119 0 179 78t60 225v279q-91 -116 -174.5 -175t-185.5 -59q-140 0 -215.5 85t-75.5 237v538
q0 100 -108 109l-45 2v29l331 92h29v-756q0 -92 47 -144t129 -52q73 0 135.5 34t132.5 113v573q0 51 -26.5 78t-83.5 31l-43 2v29z" />
    <glyph glyph-name="y.ss10" horiz-adv-x="1163" 
d="M1010 1061h28v-1350q0 -53 -32 -85t-84 -32h-717v58h626v551q-91 -116 -174.5 -175t-185.5 -59q-140 0 -215.5 85t-75.5 237v538q0 100 -108 109l-45 2v29l331 92h29v-756q0 -92 47 -144t129 -52q73 0 135.5 34t132.5 113v573q0 51 -26.5 78t-83.5 31l-43 2v29z" />
    <glyph glyph-name="yacute.ss10" horiz-adv-x="1163" 
d="M915 1501l-331 -338h-29l135 338h225zM1010 1061h28v-1350q0 -53 -32 -85t-84 -32h-717v58h626v551q-91 -116 -174.5 -175t-185.5 -59q-140 0 -215.5 85t-75.5 237v538q0 100 -108 109l-45 2v29l331 92h29v-756q0 -92 47 -144t129 -52q73 0 135.5 34t132.5 113v573
q0 51 -26.5 78t-83.5 31l-43 2v29z" />
    <glyph glyph-name="ycircumflex.ss10" horiz-adv-x="1163" 
d="M602 1389l-262 -226h-29l197 338h188l201 -338h-29zM1010 1061h28v-1350q0 -53 -32 -85t-84 -32h-717v58h626v551q-91 -116 -174.5 -175t-185.5 -59q-140 0 -215.5 85t-75.5 237v538q0 100 -108 109l-45 2v29l331 92h29v-756q0 -92 47 -144t129 -52q73 0 135.5 34
t132.5 113v573q0 51 -26.5 78t-83.5 31l-43 2v29z" />
    <glyph glyph-name="ydieresis.ss10" horiz-adv-x="1163" 
d="M432 1188q-61 0 -101 38t-40 97q0 57 40 96t101 39q60 0 99.5 -39t39.5 -96q0 -58 -39.5 -96.5t-99.5 -38.5zM817 1188q-62 0 -102.5 38.5t-40.5 96.5q0 57 41 96t102 39q60 0 99.5 -39t39.5 -96q0 -58 -39.5 -96.5t-99.5 -38.5zM1010 1061h28v-1350q0 -53 -32 -85
t-84 -32h-717v58h626v551q-91 -116 -174.5 -175t-185.5 -59q-140 0 -215.5 85t-75.5 237v538q0 100 -108 109l-45 2v29l331 92h29v-756q0 -92 47 -144t129 -52q73 0 135.5 34t132.5 113v573q0 51 -26.5 78t-83.5 31l-43 2v29z" />
    <glyph glyph-name="ygrave.ss10" horiz-adv-x="1163" 
d="M662 1163h-29l-332 338h225zM1010 1061h28v-1350q0 -53 -32 -85t-84 -32h-717v58h626v551q-91 -116 -174.5 -175t-185.5 -59q-140 0 -215.5 85t-75.5 237v538q0 100 -108 109l-45 2v29l331 92h29v-756q0 -92 47 -144t129 -52q73 0 135.5 34t132.5 113v573q0 51 -26.5 78
t-83.5 31l-43 2v29z" />
    <glyph glyph-name="F_T" horiz-adv-x="2363" 
d="M2257 1368l53 -373h-29q-78 316 -360 316h-127v-1135q0 -75 40.5 -106.5t141.5 -40.5v-29h-585v29q102 9 142 40.5t40 106.5v1135h-125q-285 0 -363 -316h-28l45 318h-623v-584h256q88 0 121.5 47t38.5 152h29v-453h-29q-5 105 -38.5 153t-121.5 48h-256v-490
q0 -90 49.5 -119.5t192.5 -37.5v-29h-647v29q99 8 140.5 37.5t41.5 109.5v1016q0 79 -41.5 109t-140.5 38v29h2183z" />
    <glyph glyph-name="T_T" horiz-adv-x="2158" 
d="M2054 1368l51 -373h-28q-75 316 -361 316h-125v-1135q0 -75 40.5 -106.5t142.5 -40.5v-29h-588v29q102 9 142 40.5t40 106.5v1135h-577v-1135q0 -75 40 -106.5t142 -40.5v-29h-588v29q102 9 142 40.5t40 106.5v1135h-125q-285 0 -360 -316h-29l51 373h1950z" />
    <glyph glyph-name="T_h" horiz-adv-x="2277" 
d="M2122 152q0 -61 30.5 -85t96.5 -38v-29h-463v29q66 14 96.5 38t30.5 85v575q0 91 -46.5 143t-129.5 52q-70 0 -131.5 -33.5t-130.5 -108.5v-628q0 -60 31 -84.5t96 -38.5v-29h-463v29q67 14 98 38.5t31 84.5v1159h-477v-1135q0 -75 40 -106.5t142 -40.5v-29h-588v29
q102 9 142 40.5t40 106.5v1135h-125q-285 0 -360 -310h-29l51 367h1070l272 84h29v-618q87 111 171 169t185 58q140 0 215.5 -85t75.5 -237v-587z" />
    <glyph glyph-name="T_i" horiz-adv-x="1691" 
d="M791 176q0 -75 40 -106.5t142 -40.5v-29h-588v29q102 9 142 40.5t40 106.5v1135h-125q-285 0 -360 -316h-29l51 373h748q114 0 199 10.5t131 25t80.5 29t67 25t69.5 10.5q59 0 100 -40.5t41 -98.5q0 -60 -41.5 -100.5t-103.5 -40.5q-50 0 -88 27.5t-50 70.5l-6 25h-460
v-1135zM1511 154q0 -61 31 -86t96 -39v-29h-460v29q65 14 96 39t31 86v675q0 52 -26.5 78.5t-82.5 32.5h-45v29l332 94h28v-909z" />
    <glyph glyph-name="f_j" horiz-adv-x="1198" 
d="M1044 1061h29v-909q0 -110 -18 -193t-62.5 -158t-124 -132.5t-198.5 -102.5l-13 22q71 52 112.5 105.5t68 148.5t26.5 234v897h-432v-819q0 -63 42.5 -87.5t152.5 -37.5v-29h-543v29q73 14 107 39t34 86v819h-172v57h172v49q0 128 64 221t168.5 138t234.5 45
q277 0 371 -154l-174 -112q-18 96 -81.5 152t-143.5 56q-108 0 -170 -85.5t-62 -219.5v-90h500z" />
    <glyph glyph-name="ordfeminine.ss01" horiz-adv-x="757" 
d="M725 946h18v-18l-243 -70h-19v133q-21 -57 -69 -94t-107 -37q-123 0 -192.5 89t-69.5 220q0 162 85 256.5t216 94.5q103 0 170 -70l125 72h16v-508q0 -55 70 -68zM481 1032v277q0 75 -30.5 118t-92.5 43q-57 0 -96 -74.5t-39 -181.5q0 -106 38.5 -182t111.5 -76
q36 0 67.5 23t40.5 53z" />
    <glyph glyph-name="zero.tf" horiz-adv-x="1159" 
d="M580 -31q-106 0 -195.5 37t-154 102.5t-110 155t-67.5 196t-22 224.5t22 224.5t67.5 196t110 155t154 102.5t195.5 37q131 0 236.5 -56.5t172 -154.5t102 -227t35.5 -277t-35.5 -277t-102 -227t-172 -154.5t-236.5 -56.5zM610 27q120 0 201.5 164t81.5 411
q0 123 -20 247.5t-59.5 237.5t-109 183.5t-157.5 70.5q-82 0 -146.5 -74.5t-100.5 -205.5t-36 -293q0 -132 19.5 -257.5t58.5 -237t108.5 -179t159.5 -67.5z" />
    <glyph glyph-name="one.tf" horiz-adv-x="1159" 
d="M145 0v29q68 3 113.5 8t89 15t68.5 26t40 41.5t15 60.5v973h-295v29q332 55 490 198h28v-1200q0 -35 14.5 -60.5t39 -41.5t66.5 -26t87 -15t111 -8v-29h-867z" />
    <glyph glyph-name="two.tf" horiz-adv-x="1159" 
d="M111 0v29l360 403q54 59 90.5 102t80.5 104.5t70.5 114t45 117t18.5 127.5q0 117 -72 188.5t-190 71.5q-107 0 -197.5 -63t-128.5 -180l-22 10q12 72 46 137t87.5 119t134.5 85.5t178 31.5q180 0 289 -103t109 -274q0 -62 -15 -121t-41.5 -111t-69.5 -107.5t-90.5 -104
t-114.5 -107t-131.5 -110.5t-149.5 -120l-72 -57h444q69 0 111 8t73 33t49 63t37 105h29l-57 -391h-901z" />
    <glyph glyph-name="three.tf" horiz-adv-x="1159" 
d="M528 717q150 -2 263 -38.5t183 -118t70 -202.5q0 -179 -135 -283t-366 -104q-120 0 -219.5 34t-170 110.5t-87.5 185.5l223 64q15 -153 91 -244.5t189 -91.5q109 0 176.5 85.5t67.5 231.5q0 156 -110 249.5t-314 92.5v31q172 21 265.5 103.5t93.5 193.5q0 105 -72.5 173
t-186.5 68q-107 0 -198.5 -61t-128.5 -170l-25 8q12 68 46.5 131t89 116t136.5 84.5t179 31.5q181 0 286 -94t105 -234q0 -81 -35.5 -143t-100.5 -102.5t-141.5 -65.5t-173.5 -41z" />
    <glyph glyph-name="four.tf" horiz-adv-x="1159" 
d="M393 0v29q125 8 171 36.5t46 110.5v209h-630v39l677 944h177v-922h227v-61h-227v-209q0 -81 41 -110t141 -37v-29h-623zM72 446h538v752z" />
    <glyph glyph-name="five.tf" horiz-adv-x="1159" 
d="M543 -29q-186 0 -319.5 84.5t-157.5 245.5l223 64q12 -154 93 -245t196 -91q120 0 188 91t68 251q0 174 -90 277.5t-248 103.5q-159 0 -306 -103l-18 10l119 709h700v-194h-674l-75 -439q146 146 360 146q202 0 332.5 -125.5t130.5 -319.5q0 -214 -138.5 -339.5
t-383.5 -125.5z" />
    <glyph glyph-name="six.tf" horiz-adv-x="1159" 
d="M668 879q184 0 305 -121.5t121 -321.5q0 -206 -134.5 -336.5t-361.5 -130.5q-255 0 -393.5 180.5t-138.5 512.5q0 133 23.5 245t65 190.5t95.5 138t119 94.5t130.5 52t133.5 17q154 0 279 -69.5t163 -194.5l-229 -76q-18 126 -90 204t-160 78q-129 0 -211 -167t-82 -472
q66 87 165 132t200 45zM618 27q115 0 179.5 103.5t64.5 258.5q0 177 -88 278t-221 101q-63 0 -132 -31t-118 -92q5 -124 26.5 -233t59 -196.5t96.5 -138t133 -50.5z" />
    <glyph glyph-name="seven.tf" horiz-adv-x="1159" 
d="M324 0q-2 109 14 214t43 193.5t72.5 179.5t90 162t108 152.5t114.5 139.5t121 133h-514q-113 0 -170.5 -55.5t-91.5 -190.5h-29l59 440h928v-29q-97 -125 -171 -237.5t-140.5 -244t-107.5 -261t-64 -282t-19 -314.5h-243z" />
    <glyph glyph-name="eight.tf" horiz-adv-x="1159" 
d="M723 774q63 -29 105 -52t92.5 -61t80 -77.5t50 -97t20.5 -124.5q0 -170 -129.5 -281.5t-357.5 -111.5t-362 96t-134 259q0 255 332 346q-63 32 -107 61.5t-86.5 72t-64 98.5t-21.5 124q0 159 118.5 266t318.5 107q195 0 316.5 -93.5t121.5 -230.5q0 -112 -77 -188.5
t-216 -112.5zM578 1341q-98 0 -160 -61.5t-62 -159.5q0 -41 11 -76.5t35 -65.5t48 -52t66.5 -46.5t71 -39.5t80.5 -39q75 45 102 106.5t27 157.5q0 122 -62 199t-157 77zM586 27q111 0 184.5 73.5t73.5 188.5q0 66 -23.5 117t-82.5 94t-96.5 63.5t-126.5 61.5q-25 12 -38 18
q-98 -56 -129 -128t-31 -183q0 -132 76.5 -218.5t192.5 -86.5z" />
    </font>
</defs>
</svg>
