<svg width="885" height="878" viewBox="0 0 885 878" fill="none" xmlns="http://www.w3.org/2000/svg">
<path fill-rule="evenodd" clip-rule="evenodd" d="M407.857 3.28967C345.193 11.1138 281.11 32.8985 220.544 66.966C203.986 76.2805 164.212 103.896 164.212 106.077C164.212 107.222 162.556 108.159 160.531 108.159C154.84 108.159 116.586 145.834 89.1312 178.48C51.7714 222.906 15.16 298.752 6.66334 349.329L4.90532 359.798L12.7424 358.359C23.312 356.422 122.838 361.631 140.106 365.024C156.28 368.204 155.618 368.661 176.24 340.096C183.587 329.918 195.067 314.928 201.749 306.786C275.785 216.595 380.806 158.26 499.392 141.46C584.399 129.416 678.548 136.085 779.382 161.29C805.114 167.723 860.555 185.162 869.999 189.794C872.724 191.131 874.956 191.479 874.956 190.568C874.956 187.741 834.115 142.217 821.012 130.44C807.255 118.076 792.31 106.334 769.997 90.3595C705.414 44.1178 616.557 10.4624 537.083 2.14479C505.622 -1.1492 438.65 -0.557021 407.857 3.28967ZM515.545 192.337C404.018 207.497 312.784 257.573 245.756 340.416C221.852 369.964 218.056 375.157 218.056 378.331C218.056 379.757 226.838 383.566 237.574 386.796C278.297 399.054 335.466 423.765 384.497 450.3L404.212 460.969L441.033 426.956C461.284 408.248 480.277 391.314 483.239 389.323C486.2 387.334 498.921 377.825 511.507 368.194C537.775 348.092 571.638 326.155 607.113 306.25C613.108 302.887 663.157 280.313 679.77 273.481C711.603 260.386 770.153 247.765 818.29 243.618C838.207 241.903 852.745 240.01 850.597 239.416C848.446 238.818 843.053 236.83 838.611 234.996C821.919 228.1 768.414 213.135 725.538 203.372C687.457 194.699 619.158 187.074 581.992 187.348C564.694 187.474 534.795 189.72 515.545 192.337ZM17.3057 420.536C32.4386 439.201 43.8832 451.613 65.5366 472.849C96.9144 503.621 153.583 554.76 156.305 554.76C157.575 554.76 160.784 556.773 163.434 559.236C169.16 564.558 205.777 591.418 215.364 597.328C219.065 599.613 226.997 604.666 232.987 608.559C254.923 622.818 313.043 651.741 340.552 662.092C427.83 694.928 527.278 705.985 619.196 693.066C663.547 686.833 724.959 673.432 744.383 665.749C747.345 664.577 763.094 658.872 779.382 653.074C826.867 636.167 827.503 636.967 766.527 636.9C674.136 636.801 611.628 623.492 529.006 586.323C494.543 570.818 469.269 557.351 401.67 518.477C391.747 512.77 379.387 505.794 374.204 502.977C369.022 500.159 359.33 494.753 352.667 490.965C333.843 480.262 298.943 463.466 295.524 463.466C293.831 463.466 286.915 461.139 280.154 458.294C240.961 441.802 203.276 430.173 169.596 424.177C161.452 422.729 146.914 419.832 137.29 417.745C126.3 415.359 99.2782 413.383 64.6482 412.43L9.50362 410.915L17.3057 420.536ZM0.000110392 491.224C0.0189559 501.286 11.652 551.116 18.5818 570.798C27.2776 595.499 42.2625 627.64 53.7367 646.197C59.7107 655.86 64.5998 664.185 64.5998 664.693C64.5998 665.201 68.2746 670.378 72.7652 676.193C77.2559 682.009 82.9822 689.542 85.4913 692.935C87.9978 696.327 90.6927 699.658 91.4761 700.337C92.2569 701.016 96.454 706.012 100.797 711.44C116.452 731.004 152.676 762.938 181.711 782.773C207.96 800.704 217.143 806.44 238.21 818.064C253.06 826.256 300.906 846.417 318.247 851.789C372.726 868.661 448.13 879.619 492.247 877.075C556.06 873.396 619.171 860.797 660.925 843.402C683.348 834.061 712.427 820.801 721.5 815.777C737.893 806.702 761.829 791.671 766.923 787.254C769.623 784.912 774.948 780.962 778.758 778.48C797.116 766.508 827.767 739.724 845.36 720.276C852.013 712.921 859.274 705.141 861.495 702.984C868.465 696.219 886.32 670.449 884.922 669.169C884.187 668.498 877.707 670.701 870.522 674.066C863.336 677.43 851.399 682.542 843.995 685.426C836.592 688.311 827.04 692.441 822.77 694.605C818.5 696.767 811.231 699.404 806.617 700.463C802.002 701.521 789.747 705.346 779.382 708.963C729.533 726.361 689.589 736.482 636.695 745.12C606.211 750.1 593.189 750.823 535.737 750.726C478.148 750.628 465.85 749.897 438.817 744.97C376.339 733.58 311.898 712.743 266.645 689.3C257.405 684.513 249.296 680.598 248.626 680.598C247.956 680.598 240.113 676.156 231.197 670.728C222.28 665.3 214.4 660.858 213.686 660.858C212.973 660.858 201.006 653.086 187.095 643.587C173.185 634.087 161.005 626.315 160.031 626.315C151.564 626.315 51.6502 538.268 18.7406 501.805C9.509 491.575 1.51044 483.205 0.969307 483.205C0.428172 483.205 -0.00796625 486.815 0.000110392 491.224ZM823.804 634.951C823.804 635.629 824.409 636.184 825.15 636.184C825.89 636.184 826.496 635.629 826.496 634.951C826.496 634.272 825.89 633.717 825.15 633.717C824.409 633.717 823.804 634.272 823.804 634.951Z" fill="#006939" fill-opacity="0.2"/>
</svg>
