<svg width="74" height="72" viewBox="0 0 74 72" fill="none" xmlns="http://www.w3.org/2000/svg">
<path d="M10.6454 42.0036C10.3071 42.0036 10.0428 42.2683 10.0428 42.6071V53.4071C10.0428 53.7459 10.3071 54.0106 10.6454 54.0106H24.7266C25.0648 54.0106 25.3291 53.7459 25.3291 53.4071V42.6071C25.3291 42.2683 25.0648 42.0036 24.7266 42.0036H10.6454ZM24.716 55.1965H10.6454C9.65169 55.1965 8.84827 54.3918 8.84827 53.3965V42.5965C8.84827 41.6012 9.65169 40.7965 10.6454 40.7965H24.7266C25.7203 40.7965 26.5237 41.6012 26.5237 42.5965V53.3965C26.5131 54.3918 25.7097 55.1965 24.716 55.1965Z" fill="#102015"/>
<path d="M49.284 42.0036C48.9457 42.0036 48.6814 42.2683 48.6814 42.6071V53.4071C48.6814 53.7459 48.9457 54.0106 49.284 54.0106H63.3651C63.7034 54.0106 63.9677 53.7459 63.9677 53.4071V42.6071C63.9677 42.2683 63.7034 42.0036 63.3651 42.0036H49.284ZM63.3545 55.1965H49.284C48.2902 55.1965 47.4868 54.3918 47.4868 53.3965V42.5965C47.4868 41.6012 48.2902 40.7965 49.284 40.7965H63.3651C64.3588 40.7965 65.1622 41.6012 65.1622 42.5965V53.3965C65.1517 54.3918 64.3482 55.1965 63.3545 55.1965Z" fill="#102015"/>
<path d="M2.15655 27.6035H15.0431L19.8954 16.8035H9.1654L2.15655 27.6035ZM15.4343 28.8H1.05712C0.84569 28.8 0.634261 28.6835 0.528547 28.4929C0.422833 28.3024 0.433404 28.0588 0.54969 27.8788L8.34083 15.8824C8.44655 15.7129 8.63683 15.6071 8.84826 15.6071H20.8257C21.0265 15.6071 21.2168 15.7129 21.3225 15.8824C21.4283 16.0518 21.4494 16.2635 21.3754 16.4541L15.984 28.4506C15.8888 28.6518 15.6774 28.8 15.4343 28.8Z" fill="#102015"/>
<path d="M68.154 64.7999C67.8157 64.7999 67.5514 64.5352 67.5514 64.1964V28.1964C67.5514 27.8576 67.8157 27.5929 68.154 27.5929C68.4923 27.5929 68.7565 27.8576 68.7565 28.1964V64.1964C68.746 64.5352 68.4817 64.7999 68.154 64.7999Z" fill="#102015"/>
<path d="M44.4846 64.8C44.1463 64.8 43.8821 64.5353 43.8821 64.1965V42.5965C43.8821 42.2577 43.6178 41.993 43.2795 41.993H30.6995C30.3612 41.993 30.0969 42.2577 30.0969 42.5965V64.1965C30.0969 64.5353 29.8326 64.8 29.5049 64.8C29.1666 64.8 28.9023 64.5353 28.9023 64.1965V42.5965C28.9023 41.6012 29.7058 40.7965 30.6995 40.7965H43.2795C44.2732 40.7965 45.0766 41.6012 45.0766 42.5965V64.1965C45.0872 64.5353 44.8229 64.8 44.4846 64.8Z" fill="#102015"/>
<path d="M42.0955 55.1647C41.7572 55.1647 41.4929 54.9 41.4929 54.5612V51.0353C41.4929 50.6965 41.7572 50.4318 42.0955 50.4318C42.4338 50.4318 42.6981 50.6965 42.6981 51.0353V54.5612C42.6875 54.9 42.4232 55.1647 42.0955 55.1647Z" fill="#102015"/>
<path d="M5.25403 64.1965C5.25403 64.5353 5.51831 64.8 5.8566 64.8C6.19489 64.8 6.45917 64.5353 6.45917 64.1965V35.1635C6.04689 35.0576 5.64517 34.9094 5.2646 34.74V64.1965H5.25403Z" fill="#102015"/>
<path d="M1.68088 28.8C1.97688 32.1564 4.81002 34.8035 8.24573 34.8035C11.6814 34.8035 14.504 32.167 14.8106 28.8H1.68088ZM8.24573 36C3.95373 36 0.45459 32.4952 0.45459 28.1964C0.45459 27.8576 0.718876 27.5929 1.05716 27.5929H15.4343C15.7726 27.5929 16.0369 27.8576 16.0369 28.1964C16.0369 32.4952 12.5377 36 8.24573 36Z" fill="#102015"/>
<path d="M30.4351 28.8C30.7311 32.1564 33.5643 34.8035 37 34.8035C40.4357 34.8035 43.2583 32.167 43.5649 28.8H30.4351ZM37 36C32.708 36 29.2089 32.4952 29.2089 28.1964C29.2089 27.8576 29.4731 27.5929 29.8114 27.5929H44.1886C44.5269 27.5929 44.7911 27.8576 44.7911 28.1964C44.7911 32.4952 41.292 36 37 36Z" fill="#102015"/>
<path d="M59.1894 28.8C59.4854 32.1564 62.3186 34.8035 65.7543 34.8035C69.19 34.8035 72.0126 32.167 72.3191 28.8H59.1894ZM65.7543 36C61.4623 36 57.9631 32.4952 57.9631 28.1964C57.9631 27.8576 58.2274 27.5929 58.5657 27.5929H72.9428C73.2811 27.5929 73.5454 27.8576 73.5454 28.1964C73.5454 32.4952 70.0463 36 65.7543 36Z" fill="#102015"/>
<path d="M58.9463 27.6035H71.8329L64.824 16.8035H54.094L58.9463 27.6035ZM72.9429 28.8H58.5657C58.3226 28.8 58.1112 28.6518 58.016 28.4506L52.6246 16.4541C52.54 16.2741 52.5506 16.0624 52.6775 15.8824C52.7937 15.7024 52.9735 15.6071 53.1849 15.6071H65.1623C65.3632 15.6071 65.5535 15.7129 65.6592 15.8824L73.4503 27.8788C73.5666 28.0588 73.5772 28.3024 73.4715 28.4929C73.3657 28.6835 73.1543 28.8 72.9429 28.8Z" fill="#102015"/>
<path d="M16.058 28.8C16.354 32.1564 19.1871 34.8035 22.6228 34.8035C26.0585 34.8035 28.8811 32.167 29.1877 28.8H16.058ZM22.6228 36C18.3308 36 14.8317 32.4952 14.8317 28.1964C14.8317 27.8576 15.096 27.5929 15.4342 27.5929H29.8114C30.1497 27.5929 30.414 27.8576 30.414 28.1964C30.414 32.4952 26.9148 36 22.6228 36Z" fill="#102015"/>
<path d="M44.8122 28.8C45.1082 32.1564 47.9414 34.8035 51.3771 34.8035C54.8128 34.8035 57.6354 32.167 57.9419 28.8H44.8122ZM51.3771 36C47.0851 36 43.5859 32.4952 43.5859 28.1964C43.5859 27.8576 43.8502 27.5929 44.1885 27.5929H58.5657C58.9039 27.5929 59.1682 27.8576 59.1682 28.1964C59.1682 32.4952 55.6691 36 51.3771 36Z" fill="#102015"/>
<path d="M2.25173 67.2035C1.91345 67.2035 1.64916 67.4682 1.64916 67.807V70.2106C1.64916 70.5494 1.91345 70.8141 2.25173 70.8141H71.7377C72.076 70.8141 72.3297 70.5494 72.3297 70.2106V67.807C72.3297 67.4682 72.0654 67.2035 71.7377 67.2035H2.25173ZM71.7483 72H2.25173C1.25802 72 0.45459 71.1953 0.45459 70.2V67.7965C0.45459 66.8012 1.25802 65.9965 2.25173 65.9965H71.7377C72.7314 65.9965 73.5349 66.8012 73.5349 67.7965V70.2C73.5454 71.1953 72.742 72 71.7483 72Z" fill="#102015"/>
<path d="M68.746 6.00357H63.9572C63.6189 6.00357 63.3546 5.73886 63.3546 5.40004C63.3546 5.06121 63.6189 4.79651 63.9572 4.79651H68.746C69.0843 4.79651 69.3486 5.06121 69.3486 5.40004C69.3486 5.73886 69.0843 6.00357 68.746 6.00357Z" fill="#102015"/>
<path d="M66.3568 8.39647C66.0186 8.39647 65.7543 8.13177 65.7543 7.79294V2.99647C65.7543 2.65765 66.0186 2.39294 66.3568 2.39294C66.6951 2.39294 66.9594 2.65765 66.9594 2.99647V7.79294C66.9488 8.13177 66.6846 8.39647 66.3568 8.39647Z" fill="#102015"/>
<path d="M72.9428 11.9965H68.154C67.8157 11.9965 67.5514 11.7318 67.5514 11.393C67.5514 11.0541 67.8157 10.7894 68.154 10.7894H72.9428C73.2811 10.7894 73.5454 11.0541 73.5454 11.393C73.5454 11.7318 73.2811 11.9965 72.9428 11.9965Z" fill="#102015"/>
<path d="M70.5431 14.4C70.2048 14.4 69.9406 14.1353 69.9406 13.7965V9.00001C69.9406 8.66119 70.2048 8.39648 70.5431 8.39648C70.8814 8.39648 71.1457 8.66119 71.1457 9.00001V13.7965C71.1457 14.1353 70.8814 14.4 70.5431 14.4Z" fill="#102015"/>
<path d="M47.7829 11.4035C47.7829 17.3647 42.9517 22.2035 37 22.2035C31.0483 22.2035 26.2172 17.3647 26.2172 11.4035C26.2172 5.44234 31.0483 0.603516 37 0.603516C42.9517 0.603516 47.7829 5.43175 47.7829 11.4035Z" fill="#006939"/>
<path d="M37.0001 1.19647C31.3761 1.19647 26.8198 5.77059 26.8198 11.3929C26.8198 17.0153 31.3866 21.5894 37.0001 21.5894C42.6135 21.5894 47.1803 17.0153 47.1803 11.3929C47.1803 5.77059 42.6135 1.19647 37.0001 1.19647ZM37.0001 22.7965C30.7206 22.7965 25.6146 17.6824 25.6146 11.3929C25.6146 5.11412 30.7206 0 37.0001 0C43.2795 0 48.3855 5.11412 48.3855 11.4035C48.3855 17.6929 43.2795 22.7965 37.0001 22.7965Z" fill="#102015"/>
<path d="M29.8115 28.8H15.4343C15.2335 28.8 15.0432 28.6941 14.9375 28.5247C14.8318 28.3553 14.8106 28.1435 14.8846 27.9529L20.2761 15.9565C20.3712 15.7447 20.5826 15.6071 20.8258 15.6071H24.7266C25.0649 15.6071 25.3292 15.8718 25.3292 16.2106C25.3292 16.5494 25.0649 16.8141 24.7266 16.8141H21.2063L16.3541 27.6141H29.2935L30.0018 22.86C30.0546 22.5318 30.3506 22.3094 30.6889 22.3518C31.0166 22.3941 31.2386 22.7012 31.1963 23.04L30.4035 28.3129C30.3612 28.5882 30.1075 28.8 29.8115 28.8Z" fill="#102015"/>
<path d="M44.1886 28.8H29.8115C29.6318 28.8 29.4732 28.7259 29.3569 28.5988C29.2406 28.4717 29.1878 28.2917 29.2089 28.1223L30.0018 22.86C30.0546 22.5317 30.3506 22.3094 30.6889 22.3518C31.0166 22.3941 31.2386 22.7012 31.1963 23.04L30.5092 27.6141H43.5015L42.8143 23.04C42.7615 22.7117 42.9941 22.4047 43.3218 22.3518C43.6495 22.2988 43.9561 22.5317 44.0089 22.86L44.8018 28.1223C44.8229 28.2917 44.7806 28.4717 44.6538 28.5988C44.5269 28.7259 44.3683 28.8 44.1886 28.8Z" fill="#102015"/>
<path d="M58.5657 28.8001H44.1885C43.8925 28.8001 43.6388 28.5883 43.6071 28.2812L42.8143 23.0083C42.7614 22.6801 42.994 22.373 43.3217 22.3201C43.6494 22.2777 43.956 22.5001 44.0088 22.8283L44.7171 27.593H57.6566L52.8043 16.793H49.2628C48.9245 16.793 48.6603 16.5283 48.6603 16.1895C48.6603 15.8506 48.9245 15.5859 49.2628 15.5859H53.1637C53.4068 15.5859 53.6183 15.7342 53.7134 15.9353L59.1048 27.9318C59.1894 28.1118 59.1788 28.3236 59.0625 28.5036C58.9463 28.7048 58.7666 28.8001 58.5657 28.8001Z" fill="#102015"/>
<path d="M41.662 13.4788C39.7909 15.3424 37 15.5965 37 15.5965C37 15.5965 37.2537 12.8012 39.1249 10.9271C40.996 9.05295 43.7869 8.79883 43.7869 8.79883C43.7869 8.79883 43.5331 11.6047 41.662 13.4788Z" fill="#006939"/>
<path d="M43.0363 9.55061C42.1377 9.75179 40.6366 10.2494 39.5372 11.3612C38.4272 12.473 37.9303 13.9659 37.7294 14.8659C38.628 14.6647 40.1292 14.1671 41.2286 13.0553C42.3492 11.9436 42.8354 10.4506 43.0363 9.55061ZM37 16.2C36.8414 16.2 36.6829 16.1365 36.5772 16.02C36.4609 15.9036 36.3869 15.7236 36.408 15.5436C36.4186 15.4271 36.6934 12.5047 38.6914 10.5036C40.6894 8.50238 43.6072 8.22708 43.7234 8.20591C43.9032 8.19532 44.0723 8.24826 44.1992 8.37532C44.3154 8.49179 44.3894 8.67179 44.3683 8.85179C44.3577 8.96826 44.0829 11.8906 42.0849 13.8918C40.0869 15.893 37.1692 16.1683 37.0529 16.1894C37.0317 16.2 37.0212 16.2 37 16.2Z" fill="#102015"/>
<path d="M32.338 13.4789C34.2091 15.353 37 15.6071 37 15.6071C37 15.6071 36.7463 12.8118 34.8751 10.9377C33.004 9.06357 30.2131 8.80945 30.2131 8.80945C30.2131 8.80945 30.4668 11.6047 32.338 13.4789Z" fill="#006939"/>
<path d="M30.9638 9.55062C31.1646 10.4506 31.6615 11.9542 32.7715 13.0553C33.8709 14.1671 35.372 14.6542 36.2706 14.8659C36.0698 13.9659 35.5729 12.4624 34.4629 11.3612C33.3423 10.2389 31.8623 9.7518 30.9638 9.55062ZM37 16.2H36.9472C36.8309 16.1894 33.9132 15.9142 31.9152 13.913C29.9172 11.9118 29.6423 8.98945 29.6318 8.87298C29.6212 8.69298 29.6846 8.52356 29.8009 8.39651C29.9172 8.28004 30.0969 8.21651 30.2766 8.22709C30.3929 8.23768 33.3106 8.51298 35.3086 10.5247C37.3066 12.5259 37.5815 15.4483 37.6026 15.5647C37.6132 15.7447 37.5603 15.9142 37.4335 16.0412C37.3172 16.1365 37.1586 16.2 37 16.2Z" fill="#102015"/>
<path d="M40.8057 18C40.7211 18 40.6365 17.9788 40.552 17.9364L37 16.2635L33.4374 17.947C33.1414 18.0953 32.782 17.9576 32.634 17.6611C32.486 17.3647 32.6234 17.0047 32.9194 16.8564L36.7251 15.0564C36.8837 14.9823 37.074 14.9823 37.2431 15.0564L41.0488 16.8564C41.3448 17.0047 41.4822 17.3647 41.3342 17.6611C41.2497 17.8623 41.0382 18 40.8057 18Z" fill="#102015"/>
<path d="M37 19.1964C36.6617 19.1964 36.3975 18.9317 36.3975 18.5929V15.5964C36.3975 15.2576 36.6617 14.9929 37 14.9929C37.3383 14.9929 37.6026 15.2576 37.6026 15.5964V18.5929C37.6026 18.9317 37.3383 19.1964 37 19.1964Z" fill="#102015"/>
<path d="M38.7972 9.6035C38.7972 12.9176 37 15.607 37 15.607C37 15.607 35.2029 12.9176 35.2029 9.6035C35.2029 6.28939 37 3.59998 37 3.59998C37 3.59998 38.7972 6.28939 38.7972 9.6035Z" fill="#006939"/>
<path d="M37.0001 4.83888C36.4926 5.84476 35.8055 7.62358 35.8055 9.60358C35.8055 11.5942 36.5032 13.3624 37.0001 14.3789C37.5075 13.373 38.1946 11.5942 38.1946 9.60358C38.1946 7.60241 37.5075 5.84476 37.0001 4.83888ZM37.0001 16.2001C36.7992 16.2001 36.6195 16.1048 36.4926 15.9353C36.4081 15.8189 34.6003 13.0553 34.6003 9.60358C34.6003 6.15182 36.4186 3.38829 36.4926 3.27182C36.7252 2.93299 37.2643 2.93299 37.4863 3.27182C37.5709 3.38829 39.3786 6.15182 39.3786 9.60358C39.3786 13.0553 37.5603 15.8189 37.4863 15.9353C37.3806 16.1048 37.2009 16.2001 37.0001 16.2001Z" fill="#102015"/>
<path d="M60.9654 52.2C60.6271 52.2 60.3628 51.9353 60.3628 51.5965V44.3965C60.3628 44.0577 60.6271 43.793 60.9654 43.793C61.3037 43.793 61.5574 44.0577 61.5574 44.3965V51.5965C61.5574 51.9353 61.2931 52.2 60.9654 52.2Z" fill="#102015"/>
<path d="M22.3268 52.2C21.9885 52.2 21.7242 51.9353 21.7242 51.5965V44.3965C21.7242 44.0577 21.9885 43.793 22.3268 43.793C22.6651 43.793 22.9188 44.0577 22.9188 44.3965V51.5965C22.9188 51.9353 22.6545 52.2 22.3268 52.2Z" fill="#102015"/>
</svg>
