<svg width="95" height="87" viewBox="0 0 95 87" fill="none" xmlns="http://www.w3.org/2000/svg">
<g clip-path="url(#clip0_15_2254)">
<path d="M86.4344 27.1875H80.2049C79.7677 27.1875 79.4262 26.8468 79.4262 26.4107C79.4262 25.9746 79.7677 25.6339 80.2049 25.6339H86.4344C86.8716 25.6339 87.2131 25.9746 87.2131 26.4107C87.2131 26.8468 86.8579 27.1875 86.4344 27.1875Z" fill="#102015"/>
<path d="M78.6475 20.9732H72.418C71.9809 20.9732 71.6393 20.6326 71.6393 20.1965C71.6393 19.7604 71.9809 19.4197 72.418 19.4197H78.6475C79.0847 19.4197 79.4262 19.7604 79.4262 20.1965C79.4262 20.6326 79.071 20.9732 78.6475 20.9732Z" fill="#102015"/>
<path d="M75.5328 24.0804C75.0956 24.0804 74.7541 23.7397 74.7541 23.3036V17.0893C74.7541 16.6532 75.0956 16.3125 75.5328 16.3125C75.9699 16.3125 76.3115 16.6532 76.3115 17.0893V23.3036C76.3115 23.7397 75.9563 24.0804 75.5328 24.0804Z" fill="#102015"/>
<path d="M83.3197 30.2946C82.8826 30.2946 82.541 29.9539 82.541 29.5178V23.3035C82.541 22.8674 82.8826 22.5267 83.3197 22.5267C83.7569 22.5267 84.0984 22.8674 84.0984 23.3035V29.5178C84.0984 29.9539 83.7432 30.2946 83.3197 30.2946Z" fill="#102015"/>
<path d="M59.1803 80.7857C57.0629 80.7857 55.2869 81.8624 55.2869 83.1161C55.2869 84.3699 57.0629 85.4465 59.1803 85.4465C61.2978 85.4465 63.0738 84.3699 63.0738 83.1161C63.0738 81.8624 61.2842 80.7857 59.1803 80.7857ZM59.1803 87C56.1339 87 53.7295 85.2966 53.7295 83.1161C53.7295 80.9357 56.1339 79.2322 59.1803 79.2322C62.2268 79.2322 64.6312 80.9357 64.6312 83.1161C64.6312 85.2966 62.2268 87 59.1803 87Z" fill="#102015"/>
<path d="M35.8197 80.7857C33.7158 80.7857 31.9262 81.8624 31.9262 83.1161C31.9262 84.3699 33.7158 85.4465 35.8197 85.4465C37.9235 85.4465 39.7131 84.3699 39.7131 83.1161C39.7131 81.8624 37.9235 80.7857 35.8197 80.7857ZM35.8197 87C32.7732 87 30.3688 85.2966 30.3688 83.1161C30.3688 80.9357 32.7732 79.2322 35.8197 79.2322C38.8661 79.2322 41.2705 80.9357 41.2705 83.1161C41.2705 85.2966 38.8798 87 35.8197 87Z" fill="#102015"/>
<path d="M58.4016 68.3572C56.2841 68.3572 54.5082 69.4338 54.5082 70.6875C54.5082 71.9413 56.2841 73.0179 58.4016 73.0179C60.5191 73.0179 62.2951 71.9413 62.2951 70.6875C62.2951 69.4338 60.5055 68.3572 58.4016 68.3572ZM58.4016 74.5714C55.3552 74.5714 52.9508 72.868 52.9508 70.6875C52.9508 68.5071 55.3552 66.8036 58.4016 66.8036C61.4481 66.8036 63.8525 68.5071 63.8525 70.6875C63.8525 72.868 61.4481 74.5714 58.4016 74.5714Z" fill="#102015"/>
<path d="M36.5984 68.3572C34.4945 68.3572 32.7049 69.4338 32.7049 70.6875C32.7049 71.9413 34.4945 73.0179 36.5984 73.0179C38.7022 73.0179 40.4918 71.9413 40.4918 70.6875C40.4918 69.4338 38.7022 68.3572 36.5984 68.3572ZM36.5984 74.5714C33.5519 74.5714 31.1476 72.868 31.1476 70.6875C31.1476 68.5071 33.5519 66.8036 36.5984 66.8036C39.6448 66.8036 42.0492 68.5071 42.0492 70.6875C42.0492 72.868 39.6448 74.5714 36.5984 74.5714Z" fill="#102015"/>
<path d="M25.6967 74.5714C23.5929 74.5714 21.8033 75.648 21.8033 76.9017C21.8033 78.1555 23.5929 79.2321 25.6967 79.2321C27.8006 79.2321 29.5902 78.1555 29.5902 76.9017C29.5902 75.648 27.8006 74.5714 25.6967 74.5714ZM25.6967 80.7857C22.6503 80.7857 20.2459 79.0822 20.2459 76.9017C20.2459 74.7213 22.6503 73.0178 25.6967 73.0178C28.7432 73.0178 31.1476 74.7213 31.1476 76.9017C31.1476 79.0822 28.7432 80.7857 25.6967 80.7857Z" fill="#102015"/>
<path d="M69.3033 74.5714C67.1858 74.5714 65.4099 75.648 65.4099 76.9017C65.4099 78.1555 67.1858 79.2321 69.3033 79.2321C71.4208 79.2321 73.1967 78.1555 73.1967 76.9017C73.1967 75.648 71.4071 74.5714 69.3033 74.5714ZM69.3033 80.7857C66.2568 80.7857 63.8525 79.0822 63.8525 76.9017C63.8525 74.7213 66.2568 73.0178 69.3033 73.0178C72.3497 73.0178 74.7541 74.7213 74.7541 76.9017C74.7541 79.0822 72.3497 80.7857 69.3033 80.7857Z" fill="#102015"/>
<path d="M47.5 74.5714C45.3962 74.5714 43.6066 75.648 43.6066 76.9017C43.6066 78.1555 45.3962 79.2321 47.5 79.2321C49.6175 79.2321 51.3935 78.1555 51.3935 76.9017C51.3935 75.648 49.6038 74.5714 47.5 74.5714ZM47.5 80.7857C44.4536 80.7857 42.0492 79.0822 42.0492 76.9017C42.0492 74.7213 44.4536 73.0178 47.5 73.0178C50.5465 73.0178 52.9508 74.7213 52.9508 76.9017C52.9508 79.0822 50.5465 80.7857 47.5 80.7857Z" fill="#102015"/>
<path d="M28.8115 71.4643H28.0328C25.4645 71.4643 23.3607 69.3656 23.3607 66.8036V34.7101C23.3607 32.1617 24.4809 29.7632 26.4481 28.1415L32.7049 22.9356V16.2989C32.7049 15.8628 33.0464 15.5221 33.4836 15.5221C33.9208 15.5221 34.2623 15.8628 34.2623 16.2989V23.29C34.2623 23.5216 34.153 23.7397 33.9754 23.8759L27.4317 29.3134C25.8333 30.649 24.9044 32.6114 24.9044 34.6828V66.7763C24.9044 68.4798 26.3115 69.8835 28.0191 69.8835H28.7978C29.235 69.8835 29.5765 70.2242 29.5765 70.6602C29.5902 71.11 29.235 71.4643 28.8115 71.4643Z" fill="#102015"/>
<path d="M66.9672 71.4643H66.1885C65.7513 71.4643 65.4098 71.1236 65.4098 70.6876C65.4098 70.2515 65.7513 69.9108 66.1885 69.9108H66.9672C68.6748 69.9108 70.0819 68.5071 70.0819 66.8036V34.7101C70.0819 32.6251 69.1666 30.6763 67.5546 29.3271L61.0109 23.8896C60.8469 23.7397 60.724 23.5217 60.724 23.3036V16.3126C60.724 15.8765 61.0655 15.5358 61.5027 15.5358C61.9398 15.5358 62.2814 15.8765 62.2814 16.3126V22.9493L68.5382 28.1551C70.5054 29.7905 71.6256 32.1753 71.6256 34.7237V66.8172C71.6393 69.3657 69.5355 71.4643 66.9672 71.4643Z" fill="#102015"/>
<path d="M50.6148 71.4643H44.3853C43.9481 71.4643 43.6066 71.1236 43.6066 70.6875C43.6066 70.2515 43.9481 69.9108 44.3853 69.9108H50.6148C51.0519 69.9108 51.3934 70.2515 51.3934 70.6875C51.3934 71.1236 51.0383 71.4643 50.6148 71.4643Z" fill="#102015"/>
<path d="M31.9262 1.55357C31.4891 1.55357 31.1475 1.89427 31.1475 2.33036V11.6518C31.1475 12.0879 31.4891 12.4286 31.9262 12.4286H63.0737C63.5109 12.4286 63.8524 12.0879 63.8524 11.6518V2.33036C63.8524 1.89427 63.5109 1.55357 63.0737 1.55357H31.9262ZM63.0737 13.9821H31.9262C30.6284 13.9821 29.5901 12.9464 29.5901 11.6518V2.33036C29.5901 1.03571 30.6284 0 31.9262 0H63.0737C64.3716 0 65.4098 1.03571 65.4098 2.33036V11.6518C65.4098 12.9464 64.3579 13.9821 63.0737 13.9821Z" fill="#102015"/>
<path d="M61.5164 46.6071C61.5164 54.3341 55.2459 60.5893 47.5 60.5893C39.7541 60.5893 33.4836 54.3341 33.4836 46.6071C33.4836 38.8802 39.7541 32.625 47.5 32.625C55.2459 32.625 61.5164 38.8802 61.5164 46.6071Z" fill="#006939"/>
<path d="M47.5 33.4018C40.1913 33.4018 34.2623 39.3163 34.2623 46.6072C34.2623 53.8981 40.1913 59.8126 47.5 59.8126C54.8088 59.8126 60.7377 53.8981 60.7377 46.6072C60.7377 39.3163 54.7951 33.4018 47.5 33.4018ZM47.5 61.3661C39.3443 61.3661 32.7049 54.743 32.7049 46.6072C32.7049 38.4714 39.3443 31.8483 47.5 31.8483C55.6557 31.8483 62.2951 38.4714 62.2951 46.6072C62.2951 54.743 55.6557 61.3661 47.5 61.3661Z" fill="#102015"/>
<path d="M53.5656 49.2918C51.1339 51.7176 47.5 52.0447 47.5 52.0447C47.5 52.0447 47.8279 48.4197 50.2596 45.9939C52.6913 43.5682 56.3115 43.2411 56.3115 43.2411C56.3115 43.2411 55.9836 46.8661 53.5656 49.2918Z" fill="#006939"/>
<path d="M55.3552 44.2087C54.194 44.4676 52.2404 45.1081 50.806 46.5527C49.3716 47.9972 48.7295 49.9188 48.4563 51.0908C49.6311 50.8318 51.571 50.1913 53.0055 48.7468C54.4399 47.3022 55.082 45.3807 55.3552 44.2087ZM47.5 52.8215C47.2951 52.8215 47.0902 52.7397 46.9535 52.5898C46.8033 52.4399 46.7076 52.2082 46.735 51.9629C46.7486 51.813 47.1038 48.0381 49.7131 45.4352C52.3087 42.8459 56.0929 42.478 56.2568 42.4643C56.4891 42.4507 56.7076 42.5189 56.8852 42.6824C57.0355 42.8323 57.1311 43.064 57.1038 43.3093C57.0902 43.4592 56.735 47.2341 54.1257 49.837C51.5164 52.4263 47.7459 52.7942 47.582 52.8079C47.541 52.8215 47.5137 52.8215 47.5 52.8215Z" fill="#102015"/>
<path d="M41.4481 49.2918C43.8798 51.7176 47.5 52.0447 47.5 52.0447C47.5 52.0447 47.1721 48.4197 44.7405 45.9939C42.3088 43.5682 38.6885 43.2411 38.6885 43.2411C38.6885 43.2411 39.0164 46.8661 41.4481 49.2918Z" fill="#006939"/>
<path d="M39.6311 44.195C39.8907 45.3534 40.5328 47.3022 41.9809 48.7331C43.429 50.1776 45.3552 50.8045 46.5301 51.0771C46.2705 49.9187 45.6284 47.9699 44.1803 46.539C42.7459 45.0945 40.806 44.4812 39.6311 44.195ZM47.5 52.8214H47.4317C47.2814 52.8078 43.4973 52.4535 40.888 49.8506C38.2923 47.2613 37.9235 43.4864 37.9098 43.3228C37.8962 43.0912 37.9781 42.8731 38.1284 42.696C38.2787 42.546 38.5246 42.4507 38.7568 42.4779C38.9208 42.4915 42.6913 42.8459 45.3005 45.4488C47.8962 48.0381 48.265 51.813 48.2787 51.9765C48.2923 52.2082 48.224 52.4262 48.0601 52.6034C47.9098 52.7397 47.7049 52.8214 47.5 52.8214Z" fill="#102015"/>
<path d="M52.459 55.1517C52.3497 55.1517 52.2404 55.1245 52.1311 55.07L47.5 52.8895L42.8688 55.07C42.4863 55.2608 42.0082 55.0836 41.8306 54.702C41.6393 54.3068 41.8169 53.8435 42.1994 53.6663L47.1448 51.336C47.3634 51.2406 47.5956 51.2406 47.8142 51.336L52.7596 53.6663C53.1557 53.8571 53.3197 54.3204 53.1284 54.702C53.0328 54.9746 52.7459 55.1517 52.459 55.1517Z" fill="#102015"/>
<path d="M47.5 56.7053C47.0628 56.7053 46.7213 56.3646 46.7213 55.9285V52.0446C46.7213 51.6085 47.0628 51.2678 47.5 51.2678C47.9372 51.2678 48.2787 51.6085 48.2787 52.0446V55.9285C48.2787 56.3646 47.9235 56.7053 47.5 56.7053Z" fill="#102015"/>
<path d="M49.8361 44.2768C49.8361 48.5695 47.5 52.0446 47.5 52.0446C47.5 52.0446 45.1639 48.5695 45.1639 44.2768C45.1639 39.984 47.5 36.5089 47.5 36.5089C47.5 36.5089 49.8361 39.984 49.8361 44.2768Z" fill="#006939"/>
<path d="M47.5 38.0897C46.8443 39.398 45.9426 41.7011 45.9426 44.2767C45.9426 46.8524 46.8443 49.1419 47.5 50.4501C48.1557 49.1419 49.0574 46.8388 49.0574 44.2767C49.0574 41.7011 48.1421 39.4116 47.5 38.0897ZM47.5 52.8214C47.2404 52.8214 46.9945 52.6987 46.8443 52.4807C46.7486 52.3308 44.3853 48.7467 44.3853 44.2767C44.3853 39.8068 46.7486 36.2227 46.8443 36.0728C47.1448 35.6367 47.8552 35.6367 48.1421 36.0728C48.2377 36.2227 50.6011 39.8068 50.6011 44.2767C50.6011 48.7467 48.2377 52.3172 48.1421 52.4807C47.9918 52.6987 47.7459 52.8214 47.5 52.8214Z" fill="#102015"/>
<path d="M3.89344 52.8214H0.778688C0.34153 52.8214 0 52.4807 0 52.0446C0 51.6085 0.34153 51.2678 0.778688 51.2678H3.89344C4.3306 51.2678 4.67213 51.6085 4.67213 52.0446C4.67213 52.4807 4.31694 52.8214 3.89344 52.8214Z" fill="#102015"/>
<path d="M19.4672 52.8214H7.00821C6.57105 52.8214 6.22952 52.4807 6.22952 52.0446C6.22952 51.6085 6.57105 51.2678 7.00821 51.2678H19.4672C19.9044 51.2678 20.2459 51.6085 20.2459 52.0446C20.2459 52.4807 19.8907 52.8214 19.4672 52.8214Z" fill="#102015"/>
<path d="M94.2213 52.8214H91.1066C90.6694 52.8214 90.3279 52.4807 90.3279 52.0446C90.3279 51.6085 90.6694 51.2678 91.1066 51.2678H94.2213C94.6585 51.2678 95 51.6085 95 52.0446C95 52.4807 94.6448 52.8214 94.2213 52.8214Z" fill="#102015"/>
<path d="M87.9918 52.8214H75.5328C75.0956 52.8214 74.7541 52.4807 74.7541 52.0446C74.7541 51.6085 75.0956 51.2678 75.5328 51.2678H87.9918C88.429 51.2678 88.7705 51.6085 88.7705 52.0446C88.7705 52.4807 88.4153 52.8214 87.9918 52.8214Z" fill="#102015"/>
<path d="M61.5164 20.1964H33.4836C33.0465 20.1964 32.7049 19.8557 32.7049 19.4196C32.7049 18.9835 33.0465 18.6428 33.4836 18.6428H61.5164C61.9536 18.6428 62.2951 18.9835 62.2951 19.4196C62.2951 19.8557 61.9399 20.1964 61.5164 20.1964Z" fill="#102015"/>
<path d="M47.5 10.875C47.0628 10.875 46.7213 10.5343 46.7213 10.0982V3.88396C46.7213 3.44787 47.0628 3.10718 47.5 3.10718C47.9372 3.10718 48.2787 3.44787 48.2787 3.88396V10.0982C48.2787 10.5343 47.9235 10.875 47.5 10.875Z" fill="#102015"/>
<path d="M39.7131 10.875C39.2759 10.875 38.9344 10.5343 38.9344 10.0982V3.88396C38.9344 3.44787 39.2759 3.10718 39.7131 3.10718C40.1503 3.10718 40.4918 3.44787 40.4918 3.88396V10.0982C40.4918 10.5343 40.1366 10.875 39.7131 10.875Z" fill="#102015"/>
<path d="M55.2869 10.875C54.8497 10.875 54.5082 10.5343 54.5082 10.0982V3.88396C54.5082 3.44787 54.8497 3.10718 55.2869 3.10718C55.7241 3.10718 56.0656 3.44787 56.0656 3.88396V10.0982C56.0656 10.5343 55.7104 10.875 55.2869 10.875Z" fill="#102015"/>
</g>
<defs>
<clipPath id="clip0_15_2254">
<rect width="95" height="87" fill="white"/>
</clipPath>
</defs>
</svg>
