<svg width="80" height="77" viewBox="0 0 80 77" fill="none" xmlns="http://www.w3.org/2000/svg">
<path d="M15.232 37.6001H5.71921C5.36176 37.6001 5.08502 37.325 5.08502 36.9696C5.08502 36.6142 5.36176 36.3391 5.71921 36.3391H15.2436C15.601 36.3391 15.8778 36.6142 15.8778 36.9696C15.8662 37.325 15.5895 37.6001 15.232 37.6001Z" fill="#102015"/>
<path d="M3.17094 37.6001H0.634189C0.276737 37.6001 0 37.325 0 36.9696C0 36.6142 0.276737 36.3391 0.634189 36.3391H3.17094C3.52839 36.3391 3.80513 36.6142 3.80513 36.9696C3.80513 37.325 3.52839 37.6001 3.17094 37.6001Z" fill="#102015"/>
<path d="M67.2932 56.5262H57.7688C57.4114 56.5262 57.1346 56.2511 57.1346 55.8957C57.1346 55.5404 57.4114 55.2653 57.7688 55.2653H67.2932C67.6506 55.2653 67.9274 55.5404 67.9274 55.8957C67.9274 56.2511 67.6506 56.5262 67.2932 56.5262Z" fill="#102015"/>
<path d="M72.3667 56.5262H69.8299C69.4725 56.5262 69.1957 56.2511 69.1957 55.8957C69.1957 55.5404 69.4725 55.2653 69.8299 55.2653H72.3667C72.7241 55.2653 73.0009 55.5404 73.0009 55.8957C73.0009 56.2511 72.7241 56.5262 72.3667 56.5262Z" fill="#102015"/>
<path d="M78.0859 76.9999C77.7284 76.9999 77.4517 76.7248 77.4517 76.3695V71.956C77.4517 70.569 76.3102 69.4341 74.915 69.4341H5.0735C3.67829 69.4341 2.53675 70.569 2.53675 71.956V76.3695C2.53675 76.7248 2.26001 76.9999 1.90256 76.9999C1.54511 76.9999 1.26837 76.7248 1.26837 76.3695V71.956C1.26837 69.8697 2.98645 68.1731 5.0735 68.1731H74.9034C77.002 68.1731 78.7086 69.8811 78.7086 71.956V76.3695C78.7201 76.7134 78.4434 76.9999 78.0859 76.9999Z" fill="#102015"/>
<path d="M27.2932 30.2864C25.5059 30.2864 23.7187 29.6101 22.358 28.2574C22.1044 28.0052 22.1044 27.6154 22.358 27.3632C22.6117 27.111 23.0038 27.111 23.2574 27.3632C25.4829 29.5757 29.115 29.5757 31.3289 27.3632C31.5826 27.111 31.9746 27.111 32.2283 27.3632C32.482 27.6154 32.482 28.0052 32.2283 28.2574C30.8792 29.6101 29.092 30.2864 27.2932 30.2864Z" fill="#102015"/>
<path d="M14.5979 14.5128H15.7163H17.1461H17.3537C17.273 14.5931 17.2153 14.6962 17.1461 14.7765V18.9262C17.1461 20.3133 16.0046 21.4482 14.6094 21.4482V19.3962C14.5056 19.7172 14.3903 20.0382 14.3211 20.3706C14.2519 20.6916 13.9867 20.8865 13.6408 20.8521C13.4678 20.8292 13.3987 20.8177 13.3525 20.8177V22.0787C13.3525 22.4341 13.6293 22.7092 13.9867 22.7092H14.6209C16.731 22.7092 18.426 21.0011 18.426 18.9262V13.8823C18.426 13.527 18.1493 13.2518 17.7919 13.2518H13.9867C13.6293 13.2518 13.3525 13.527 13.3525 13.8823V19.2128C13.6639 18.1582 14.102 17.1609 14.6209 16.2323V14.5128H14.5979Z" fill="#102015"/>
<path d="M41.0724 20.8521C40.738 20.8979 40.3344 20.703 40.2537 20.3821C40.1845 20.0726 40.0807 19.786 39.9885 19.4879V21.4482C38.5933 21.4482 37.4517 20.3133 37.4517 18.9262V14.8108C37.348 14.6847 37.2557 14.5472 37.1519 14.4325C37.2557 14.4211 37.3595 14.3981 37.4517 14.3752V14.3523C38.3627 14.1918 39.2275 13.8479 39.9885 13.3664V16.2094C40.5189 17.1379 40.9455 18.1467 41.2569 19.2013V12.0596C41.2569 11.8074 41.107 11.5781 40.8648 11.475C40.6342 11.3718 40.3575 11.4291 40.1845 11.6011C39.2851 12.4723 38.0629 13.034 36.7599 13.1601C36.4255 13.1945 36.1833 13.4581 36.1833 13.7906V18.9033C36.1833 20.9896 37.9014 22.6862 39.9885 22.6862H40.6227C40.9801 22.6862 41.2569 22.4111 41.2569 22.0557V20.8062H41.2453C41.1877 20.8406 41.1416 20.8521 41.0724 20.8521Z" fill="#102015"/>
<path d="M41.3837 19.5567C41.3491 19.442 41.303 19.3274 41.2684 19.2128V20.8406C42.6636 20.852 43.7936 21.9755 43.7936 23.3625C43.7936 24.7496 42.6521 25.8845 41.2568 25.8845C41.1992 25.8845 41.1415 25.873 40.9686 25.8501C40.6457 25.8043 40.3575 26.0106 40.2883 26.3316C38.8931 32.3728 33.5428 36.6028 27.3162 36.6028C21.0781 36.6028 15.7394 32.3728 14.3442 26.3316C14.275 26.045 13.9406 25.8501 13.6293 25.8501C13.5947 25.8501 13.5716 25.8501 13.5255 25.8616C13.4679 25.8616 13.4102 25.873 13.3526 25.873C11.9573 25.873 10.8158 24.7382 10.8158 23.3511C10.8158 21.964 11.9573 20.8291 13.3526 20.8291V19.2128C13.318 19.3274 13.2718 19.442 13.2372 19.5681C11.1848 19.6369 9.53589 21.3106 9.53589 23.3511C9.53589 25.3916 11.1848 27.0767 13.2372 27.134C14.9438 33.4848 20.663 37.8638 27.3162 37.8638C33.981 37.8638 39.7002 33.4733 41.3952 27.134C43.4477 27.0767 45.085 25.3916 45.085 23.3511C45.0735 21.2991 43.4246 19.6255 41.3837 19.5567Z" fill="#102015"/>
<path d="M13.3295 20.8177C13.3756 20.8177 13.4448 20.8291 13.6177 20.8521C13.9752 20.8865 14.2289 20.6916 14.298 20.3706C14.3788 20.0382 14.4941 19.7172 14.5863 19.3962V16.2208C14.0559 17.1494 13.6293 18.1467 13.3179 19.2013L13.3295 20.8177Z" fill="#102015"/>
<path d="M17.3537 14.5128H17.1462V14.7765C17.2154 14.6962 17.273 14.5931 17.3537 14.5128Z" fill="#102015"/>
<path d="M37.1519 14.4326C37.2557 14.5472 37.3479 14.6848 37.4517 14.8109V14.3752C37.3595 14.3982 37.2557 14.4211 37.1519 14.4326Z" fill="#102015"/>
<path d="M40 16.2208V19.4879C40.0922 19.786 40.196 20.0725 40.2652 20.3821C40.3459 20.703 40.7495 20.8979 41.0839 20.8521C41.1415 20.8521 41.1992 20.8406 41.2568 20.8406H41.2684V19.2128C40.9571 18.1467 40.5189 17.1494 40 16.2208Z" fill="#102015"/>
<path d="M35.9066 13.2517H18.6682C18.207 13.6415 17.7573 14.0656 17.3537 14.5127H36.1833C36.5062 14.5127 36.8291 14.4783 37.1519 14.4439C36.7599 14.0083 36.3448 13.6185 35.9066 13.2517Z" fill="#102015"/>
<path d="M16.8002 13.2518H14.6209C14.9553 8.66642 18.795 5.04397 23.4765 5.04397H30.0951C32.9317 5.04397 35.7797 4.41348 38.3511 3.2442L41.9025 1.61639V7.57739C41.9025 10.2254 40.0692 12.4264 37.6016 13.0569C37.936 13.3894 38.2588 13.7333 38.5586 14.1001C41.2453 13.1372 43.1709 10.5808 43.1825 7.57739V0.630538C43.1825 0.412732 43.0671 0.217854 42.8942 0.103219C42.6982 -0.0114153 42.4906 -0.0228788 42.2831 0.0688288L37.8207 2.09786C35.4223 3.19835 32.7472 3.77152 30.0951 3.77152H23.4765C17.8726 3.77152 13.3179 8.29959 13.3179 13.8708C13.3179 14.2262 13.5947 14.5013 13.9521 14.5013H15.7048C16.0507 14.0657 16.4197 13.6416 16.8002 13.2518Z" fill="#102015"/>
<path d="M18.6682 13.2517H16.8003C16.4197 13.6529 16.0508 14.0771 15.7164 14.5127H17.3537C17.7573 14.0541 18.207 13.6415 18.6682 13.2517Z" fill="#102015"/>
<path d="M37.6016 13.0569C37.1519 13.1715 36.6792 13.2518 36.1834 13.2518H35.9066C36.3448 13.6186 36.7599 14.0198 37.1519 14.444C37.6362 14.3752 38.109 14.2605 38.5587 14.1001C38.2589 13.7332 37.936 13.3779 37.6016 13.0569Z" fill="#102015"/>
<path d="M24.7795 64.8717L27.2932 67.8178L29.8069 64.8717L27.985 46.6907H26.6013L24.7795 64.8717ZM27.2932 69.4227C27.0972 69.4227 26.9242 69.3424 26.8089 69.1934L23.6379 65.4793C23.5226 65.3532 23.4765 65.1697 23.488 65.0093L25.3906 46.0029C25.4252 45.6704 25.6904 45.4297 26.0248 45.4297H28.5616C28.8959 45.4297 29.1611 45.6704 29.1957 46.0029L31.0983 65.0093C31.1098 65.1812 31.0637 65.3532 30.9484 65.4793L27.7775 69.1934C27.6622 69.3424 27.4892 69.4227 27.2932 69.4227Z" fill="#102015"/>
<path d="M14.5979 69.4226C14.2404 69.4226 13.9637 69.1475 13.9637 68.7922V56.1709C13.9637 55.8155 14.2404 55.5404 14.5979 55.5404C14.9553 55.5404 15.2321 55.8155 15.2321 56.1709V68.7922C15.2321 69.1475 14.9553 69.4226 14.5979 69.4226Z" fill="#102015"/>
<path d="M40 69.4226C39.6425 69.4226 39.3658 69.1475 39.3658 68.7922V56.1709C39.3658 55.8155 39.6425 55.5404 40 55.5404C40.3574 55.5404 40.6342 55.8155 40.6342 56.1709V68.7922C40.6342 69.1475 40.3459 69.4226 40 69.4226Z" fill="#102015"/>
<path d="M4.4393 69.4226C4.08185 69.4226 3.80511 69.1475 3.80511 68.7922V52.3192C3.80511 48.2726 6.21503 44.6272 9.96251 43.0452L18.8066 39.2738C19.1294 39.1362 19.4984 39.2852 19.6483 39.6062C19.7867 39.9157 19.6368 40.3055 19.3139 40.443L10.4699 44.2145C7.19514 45.6016 5.08502 48.7999 5.08502 52.3306V68.8036C5.07349 69.1475 4.79675 69.4226 4.4393 69.4226Z" fill="#102015"/>
<path d="M50.1585 69.4226C49.8011 69.4226 49.5244 69.1475 49.5244 68.7921V52.3192C49.5244 48.7884 47.4027 45.5901 44.1395 44.203L35.2955 40.4316C34.9726 40.294 34.8227 39.9272 34.9611 39.5947C35.0994 39.2738 35.4684 39.1247 35.8028 39.2623L44.6469 43.0338C48.3944 44.6272 50.8043 48.2726 50.8043 52.3077V68.7807C50.7927 69.1475 50.5045 69.4226 50.1585 69.4226Z" fill="#102015"/>
<path d="M19.7405 40.2367L20.1326 44.8909L23.8916 42.1282L21.989 39.2738L19.7405 40.2367ZM19.6022 46.7021C19.5099 46.7021 19.4292 46.6907 19.337 46.6563C19.1179 46.5646 18.9795 46.3697 18.968 46.1404L18.4376 39.9043C18.4145 39.6406 18.5644 39.377 18.8181 39.2738L21.966 37.9326C22.2427 37.818 22.5771 37.9097 22.7385 38.1619L25.2753 41.9448C25.4598 42.2199 25.4021 42.5982 25.1254 42.8046L19.9596 46.5875C19.8674 46.6563 19.729 46.7021 19.6022 46.7021Z" fill="#102015"/>
<path d="M30.6947 42.1282L34.4537 44.8909L34.8573 40.2367L32.6088 39.2738L30.6947 42.1282ZM34.9957 46.7021C34.8573 46.7021 34.7305 46.6677 34.6152 46.576L29.4609 42.7931C29.1957 42.5868 29.115 42.2085 29.311 41.9333L31.8478 38.1504C32.0092 37.8982 32.3436 37.795 32.6204 37.9211L35.7682 39.2623C36.0219 39.3655 36.1718 39.6292 36.1487 39.8928L35.6183 46.129C35.5953 46.3582 35.4569 46.5531 35.2494 46.6448C35.1686 46.6907 35.0764 46.7021 34.9957 46.7021Z" fill="#102015"/>
<path d="M26.0248 42.9077C25.6673 42.9077 25.3906 43.1828 25.3906 43.5382V44.7992C25.3906 45.1546 25.6673 45.4297 26.0248 45.4297H28.5615C28.919 45.4297 29.1957 45.1546 29.1957 44.7992V43.5382C29.1957 43.1828 28.919 42.9077 28.5615 42.9077H26.0248ZM28.573 46.7021H26.0363C24.987 46.7021 24.1337 45.8538 24.1337 44.8107V43.5497C24.1337 42.5065 24.987 41.6582 26.0363 41.6582H28.573C29.6223 41.6582 30.4756 42.5065 30.4756 43.5497V44.8107C30.4756 45.8538 29.6223 46.7021 28.573 46.7021Z" fill="#102015"/>
<path d="M26.0248 41.6467H28.5615C28.8383 41.6467 29.115 41.7155 29.3571 41.8416L31.7325 38.3108V37.1759C28.8498 38.093 25.725 38.093 22.8423 37.1759V38.3108L25.2176 41.8416C25.4828 41.7155 25.748 41.6467 26.0248 41.6467ZM29.5301 43.3777C29.3341 43.3777 29.1611 43.286 29.0458 43.1484C28.9651 43.0567 28.8037 42.9077 28.5731 42.9077H26.0363C25.7942 42.9077 25.6443 43.0567 25.5635 43.1484C25.4367 43.2974 25.2637 43.4006 25.0447 43.3777C24.8371 43.3662 24.6642 43.263 24.5488 43.1026L21.7008 38.8496C21.6431 38.7464 21.597 38.6203 21.597 38.4942V36.2703C21.597 36.0525 21.7008 35.8691 21.8737 35.7545C22.0467 35.6398 22.2658 35.6169 22.4618 35.6857C25.5866 36.9008 29.0343 36.9008 32.1476 35.6857C32.3551 35.6055 32.5627 35.6398 32.7356 35.7545C32.9086 35.8691 33.0124 36.064 33.0124 36.2703V38.4942C33.0124 38.6203 32.9778 38.7464 32.9086 38.8496L30.0605 43.1026C29.9452 43.263 29.7723 43.3662 29.5647 43.3777H29.5301Z" fill="#102015"/>
<path d="M67.5353 30.0572C67.3623 30.0572 67.1894 29.9998 67.0625 29.8508L63.4996 25.9532L59.9366 29.8508C59.6944 30.1145 59.3024 30.1259 59.0372 29.8852C58.7835 29.6445 58.7604 29.2547 59.0026 28.9911L63.0383 24.5776C63.2805 24.314 63.7417 24.314 63.9838 24.5776L68.0196 28.9911C68.2617 29.2547 68.2387 29.6445 67.985 29.8852C67.8351 30.0113 67.6852 30.0572 67.5353 30.0572Z" fill="#102015"/>
<path d="M63.4881 32.5906C63.1306 32.5906 62.8539 32.3155 62.8539 31.9602V25.0133C62.8539 24.6579 63.1306 24.3828 63.4881 24.3828C63.8455 24.3828 64.1223 24.6579 64.1223 25.0133V31.9602C64.1223 32.3041 63.8455 32.5906 63.4881 32.5906Z" fill="#102015"/>
<path d="M66.0248 14.914C66.0248 20.4967 63.488 25.0133 63.488 25.0133C63.488 25.0133 60.9513 20.4967 60.9513 14.914C60.9513 9.3313 63.488 4.8147 63.488 4.8147C63.488 4.8147 66.0248 9.3313 66.0248 14.914Z" fill="#006939"/>
<path d="M63.4995 6.28199C62.7731 7.93272 61.597 11.1998 61.597 14.914C61.597 18.6281 62.7846 21.8952 63.4995 23.5459C64.226 21.8952 65.4021 18.6281 65.4021 14.914C65.3906 11.1883 64.226 7.93272 63.4995 6.28199ZM63.488 25.6438C63.2574 25.6438 63.0383 25.5177 62.9345 25.3113C62.8308 25.1164 60.3171 20.5769 60.3171 14.914C60.3171 9.22809 62.8308 4.70003 62.9345 4.51661C63.1652 4.11539 63.8224 4.11539 64.0415 4.51661C64.1453 4.71149 66.659 9.25102 66.659 14.914C66.659 20.5998 64.1453 25.1279 64.0415 25.3113C63.9262 25.5177 63.7302 25.6438 63.488 25.6438Z" fill="#102015"/>
<path d="M68.5615 26.9048C65.7596 26.9048 63.4765 25.0133 63.4765 25.0133C63.4765 25.0133 65.748 23.1218 68.5615 23.1218C71.3635 23.1218 73.6351 25.0133 73.6351 25.0133C73.6351 25.0133 71.375 26.9048 68.5615 26.9048Z" fill="#006939"/>
<path d="M64.595 25.0133C65.4252 25.5291 66.9127 26.2743 68.5731 26.2743C70.2335 26.2743 71.721 25.5291 72.5512 25.0133C71.721 24.4974 70.2451 23.7523 68.5731 23.7523C66.9012 23.7523 65.4252 24.4974 64.595 25.0133ZM68.5616 27.5352C65.5636 27.5352 63.1767 25.575 63.073 25.4948C62.9346 25.3687 62.8423 25.1967 62.8423 25.0133C62.8423 24.8413 62.9346 24.6465 63.073 24.5318C63.1767 24.4401 65.5636 22.4913 68.5616 22.4913C71.5595 22.4913 73.9464 24.4516 74.0502 24.5318C74.1885 24.6579 74.2808 24.8299 74.2808 25.0133C74.2808 25.1852 74.1885 25.3801 74.0502 25.4948C73.9579 25.5865 71.5711 27.5352 68.5616 27.5352Z" fill="#102015"/>
<path d="M58.403 26.9048C61.2049 26.9048 63.4765 25.0133 63.4765 25.0133C63.4765 25.0133 61.2049 23.1218 58.403 23.1218C55.601 23.1218 53.3295 25.0133 53.3295 25.0133C53.3295 25.0133 55.6125 26.9048 58.403 26.9048Z" fill="#006939"/>
<path d="M54.4364 25.0133C55.2667 25.5291 56.7426 26.2743 58.4145 26.2743C60.075 26.2743 61.5624 25.5291 62.3926 25.0133C61.5624 24.4974 60.0865 23.7523 58.4145 23.7523C56.7426 23.7523 55.2667 24.4974 54.4364 25.0133ZM58.403 27.5352C55.405 27.5352 53.0182 25.575 52.9144 25.4948C52.776 25.3687 52.6838 25.1967 52.6838 25.0133C52.6838 24.8413 52.776 24.6465 52.9144 24.5318C53.0182 24.4401 55.405 22.4913 58.403 22.4913C61.401 22.4913 63.7878 24.4516 63.8916 24.5318C64.03 24.6579 64.1222 24.8299 64.1222 25.0133C64.1222 25.1852 64.03 25.3801 63.8916 25.4948C63.7994 25.5865 61.4125 27.5352 58.403 27.5352Z" fill="#102015"/>
<path d="M71.1329 20.1069C67.6622 23.5574 63.4996 25.0132 63.4996 25.0132C63.4996 25.0132 64.9755 20.8749 68.4347 17.4244C71.9054 13.9739 76.068 12.5181 76.068 12.5181C76.068 12.5181 74.5921 16.6564 71.1329 20.1069Z" fill="#006939"/>
<path d="M74.8458 13.7333C73.3583 14.444 70.983 15.7852 68.8844 17.8716C66.7743 19.9694 65.4367 22.3309 64.7218 23.8096C66.2093 23.0989 68.5846 21.7577 70.6947 19.6713C72.7818 17.5621 74.1194 15.2006 74.8458 13.7333ZM63.488 25.6438C63.3266 25.6438 63.1536 25.5865 63.0383 25.4604C62.8654 25.2884 62.8077 25.0362 62.8884 24.807C62.9576 24.635 64.4451 20.4852 67.985 16.9774C71.5134 13.4696 75.676 11.9794 75.8605 11.9106C76.0911 11.8303 76.3448 11.8876 76.5177 12.0596C76.6907 12.2316 76.7483 12.4837 76.6676 12.713C76.5984 12.885 75.111 17.0347 71.5711 20.5426C68.0427 24.0504 63.8801 25.5406 63.6956 25.6094C63.6379 25.6323 63.5572 25.6438 63.488 25.6438Z" fill="#102015"/>
<path d="M55.8547 20.1069C59.3254 23.5574 63.488 25.0132 63.488 25.0132C63.488 25.0132 62.0121 20.8749 58.5529 17.4244C55.0821 13.9739 50.9196 12.5181 50.9196 12.5181C50.9196 12.5181 52.384 16.6564 55.8547 20.1069Z" fill="#006939"/>
<path d="M56.3159 19.6599C58.426 21.7577 60.8014 23.0989 62.2773 23.7982C61.5624 22.3194 60.2133 19.9579 58.1147 17.8601C56.0161 15.7623 53.6293 14.4211 52.1418 13.7218C52.8567 15.2006 54.2058 17.5735 56.3159 19.6599ZM63.488 25.6438C63.4073 25.6438 63.3497 25.6323 63.2689 25.6094C63.096 25.5406 58.9219 24.0618 55.3935 20.5426C51.8651 17.0347 50.3661 12.8964 50.2969 12.713C50.2162 12.4837 50.2738 12.2316 50.4468 12.0596C50.6198 11.8876 50.885 11.8303 51.104 11.9106C51.2885 11.9794 55.4511 13.4581 58.9795 16.9774C62.5079 20.4852 64.0069 24.6235 64.0646 24.807C64.1453 25.0362 64.0876 25.2884 63.9147 25.4604C63.8109 25.5865 63.6495 25.6438 63.488 25.6438Z" fill="#102015"/>
<path d="M58.4145 40.6265C58.1378 40.6265 57.8726 40.5692 57.6074 40.4546C56.9386 40.1336 56.512 39.4802 56.512 38.735V35.7431H50.7927C48.6942 35.7431 46.9876 34.035 46.9876 31.9601V11.7615C46.9876 9.67519 48.7057 7.9786 50.7927 7.9786H59.3139C59.6714 7.96714 59.9596 8.25373 59.9596 8.60909C59.9596 8.96446 59.6829 9.23958 59.3255 9.23958H50.8043C49.4091 9.23958 48.2675 10.3745 48.2675 11.7615V31.9601C48.2675 33.3472 49.4091 34.4821 50.8043 34.4821H57.1577C57.5151 34.4821 57.7919 34.7572 57.7919 35.1126V38.735C57.7919 39.1019 58.0686 39.2624 58.1609 39.3082C58.2531 39.3426 58.5529 39.4572 58.8296 39.2165L64.3644 34.6311C64.4797 34.528 64.618 34.4821 64.7679 34.4821H76.1949C77.5901 34.4821 78.7316 33.3472 78.7316 31.9601V11.7615C78.7316 10.3745 77.5901 9.23958 76.1949 9.23958H67.6737C67.3162 9.23958 67.0395 8.96446 67.0395 8.60909C67.0395 8.25373 67.3162 7.9786 67.6737 7.9786H76.1949C78.2935 7.9786 80 9.68666 80 11.7615V31.9601C80 34.0465 78.2819 35.7431 76.1949 35.7431H64.9986L59.6368 40.1909C59.2793 40.4775 58.8527 40.6265 58.4145 40.6265Z" fill="#102015"/>
</svg>
