<svg width="87" height="81" viewBox="0 0 87 81" fill="none" xmlns="http://www.w3.org/2000/svg">
<g clip-path="url(#clip0_15_60)">
<path d="M21.4665 18.3013C21.3853 18.3013 21.2771 18.2878 21.1824 18.2472C20.8037 18.0984 20.6278 17.6655 20.7766 17.3003L22.224 13.7293C22.6027 12.8095 22.4945 11.768 21.9129 10.9429L19.8162 7.94003C18.937 6.68207 18.7747 5.09947 19.3699 3.69272L20.7631 0.446372C20.9254 0.0811582 21.3447 -0.0946857 21.7235 0.0676317C22.0887 0.229949 22.2645 0.649269 22.1022 1.02801L20.709 4.27436C20.3167 5.20768 20.4114 6.26275 21.0066 7.10139L23.1032 10.1043C23.9553 11.3352 24.1312 12.8907 23.5766 14.2704L22.1293 17.8414C22.0211 18.139 21.7505 18.3013 21.4665 18.3013Z" fill="#102015"/>
<path d="M14.1487 18.3013C14.054 18.3013 13.9593 18.2878 13.8646 18.2472C13.4859 18.0984 13.31 17.6655 13.4588 17.3003L14.9061 13.7293C15.2849 12.8095 15.1767 11.768 14.595 10.9429L12.512 7.94003C11.6327 6.68207 11.4704 5.09947 12.0656 3.69272L13.4588 0.446372C13.6211 0.0811582 14.0405 -0.0946857 14.4192 0.0676317C14.7844 0.229949 14.9603 0.649269 14.7979 1.02801L13.4047 4.27436C13.0124 5.22121 13.1207 6.27627 13.7023 7.10139L15.7989 10.1043C16.6511 11.3352 16.8269 12.8907 16.2723 14.2704L14.825 17.8414C14.7033 18.139 14.4327 18.3013 14.1487 18.3013Z" fill="#102015"/>
<path d="M28.7978 18.3013C28.7031 18.3013 28.6084 18.2878 28.5138 18.2472C28.135 18.0984 27.9592 17.6655 28.108 17.3003L29.5553 13.7293C29.934 12.8095 29.8258 11.768 29.2442 10.9429L27.1476 7.94003C26.2684 6.68207 26.106 5.09947 26.7012 3.69272L28.0944 0.446372C28.2567 0.0811582 28.6761 -0.0946857 29.0548 0.0676317C29.42 0.229949 29.5959 0.649269 29.4335 1.02801L28.0403 4.27436C27.6481 5.20768 27.7427 6.26275 28.3379 7.10139L30.4345 10.1043C31.2867 11.3352 31.4625 12.8907 30.9079 14.2704L29.4606 17.8414C29.3524 18.139 29.0683 18.3013 28.7978 18.3013Z" fill="#102015"/>
<path d="M43.2035 80.55C42.7977 80.55 42.4731 80.2254 42.4731 79.8196V58.5831C42.4731 58.1773 42.7977 57.8527 43.2035 57.8527C43.6093 57.8527 43.9339 58.1773 43.9339 58.5831V79.8196C43.9339 80.2254 43.6093 80.55 43.2035 80.55Z" fill="#102015"/>
<path d="M3.66567 49.4257H0.730428C0.324635 49.4257 0 49.1011 0 48.6953C0 48.2895 0.324635 47.9648 0.730428 47.9648H3.66567C4.07146 47.9648 4.3961 48.2895 4.3961 48.6953C4.3961 49.1011 4.07146 49.4257 3.66567 49.4257Z" fill="#102015"/>
<path d="M18.3013 49.4257H6.58738C6.18158 49.4257 5.85695 49.1011 5.85695 48.6953C5.85695 48.2895 6.18158 47.9648 6.58738 47.9648H18.3013C18.7071 47.9648 19.0317 48.2895 19.0317 48.6953C19.0452 49.1011 18.7206 49.4257 18.3013 49.4257Z" fill="#102015"/>
<path d="M85.6765 49.4257H82.7413C82.3355 49.4257 82.0109 49.1011 82.0109 48.6953C82.0109 48.2895 82.3355 47.9648 82.7413 47.9648H85.6765C86.0823 47.9648 86.407 48.2895 86.407 48.6953C86.407 49.1011 86.0823 49.4257 85.6765 49.4257Z" fill="#102015"/>
<path d="M79.8196 49.4257H68.1057C67.6999 49.4257 67.3752 49.1011 67.3752 48.6953C67.3752 48.2895 67.6999 47.9648 68.1057 47.9648H79.8196C80.2254 47.9648 80.55 48.2895 80.55 48.6953C80.55 49.1011 80.2254 49.4257 79.8196 49.4257Z" fill="#102015"/>
<path d="M85.5142 19.7757H79.6572C79.2515 19.7757 78.9268 19.451 78.9268 19.0452C78.9268 18.6395 79.2515 18.3148 79.6572 18.3148H85.5142C85.92 18.3148 86.2446 18.6395 86.2446 19.0452C86.2446 19.451 85.9065 19.7757 85.5142 19.7757Z" fill="#102015"/>
<path d="M78.1829 13.1747H72.3259C71.9201 13.1747 71.5955 12.8501 71.5955 12.4443C71.5955 12.0385 71.9201 11.7139 72.3259 11.7139H78.1829C78.5887 11.7139 78.9133 12.0385 78.9133 12.4443C78.9268 12.8636 78.5887 13.1747 78.1829 13.1747Z" fill="#102015"/>
<path d="M75.2612 16.11C74.8554 16.11 74.5307 15.7854 74.5307 15.3796V9.52266C74.5307 9.11687 74.8554 8.79224 75.2612 8.79224C75.667 8.79224 75.9916 9.11687 75.9916 9.52266V15.3796C75.9916 15.7854 75.6534 16.11 75.2612 16.11Z" fill="#102015"/>
<path d="M82.579 22.6973C82.1732 22.6973 81.8485 22.3727 81.8485 21.9669V16.1099C81.8485 15.7042 82.1732 15.3795 82.579 15.3795C82.9848 15.3795 83.3094 15.7042 83.3094 16.1099V21.9669C83.3094 22.3727 82.9712 22.6973 82.579 22.6973Z" fill="#102015"/>
<path d="M62.3569 45.2055C53.7676 53.7947 43.2035 57.1087 43.2035 57.1087C43.2035 57.1087 46.531 46.531 55.1068 37.9553C63.6825 29.3795 74.2602 26.052 74.2602 26.052C74.2602 26.052 70.9462 36.6297 62.3569 45.2055Z" fill="#006939"/>
<path d="M73.0428 27.2694C69.8776 28.5003 62.127 31.9766 55.6343 38.4693C49.1281 44.9755 45.6653 52.7262 44.4344 55.8778C47.5996 54.6469 55.3502 51.1706 61.8429 44.6779C68.3491 38.1987 71.8119 30.4346 73.0428 27.2694ZM43.2035 57.8527C43.0141 57.8527 42.8247 57.785 42.6895 57.6362C42.5001 57.4469 42.4325 57.1493 42.5136 56.9058C42.6489 56.4594 46.0035 46.0576 54.5927 37.4548C63.1956 28.8655 73.6109 25.4974 74.0573 25.3621C74.3278 25.281 74.5984 25.3486 74.7877 25.538C74.9771 25.7274 75.0447 26.0249 74.9636 26.2684C74.8283 26.7013 71.4738 37.1166 62.8845 45.7194C54.2681 54.3358 43.8663 57.6633 43.4199 57.8121C43.3523 57.8527 43.2711 57.8527 43.2035 57.8527Z" fill="#102015"/>
<path d="M24.05 45.2055C32.6258 53.7947 43.2035 57.1087 43.2035 57.1087C43.2035 57.1087 39.876 46.531 31.3002 37.9553C22.7244 29.3795 12.1468 26.052 12.1468 26.052C12.1468 26.052 15.4607 36.6297 24.05 45.2055Z" fill="#006939"/>
<path d="M13.3506 27.2693C14.5815 30.4345 18.0443 38.1851 24.5505 44.6778C31.0567 51.1841 38.8074 54.6468 41.959 55.8777C40.7281 52.7125 37.2518 44.9619 30.7591 38.4692C24.28 31.99 16.5158 28.5137 13.3506 27.2693ZM43.2035 57.8526C43.1223 57.8526 43.0547 57.8391 42.9871 57.8255C42.5407 57.6903 32.1388 54.3357 23.536 45.7329C14.9332 37.1165 11.5922 26.7147 11.4569 26.2683C11.3757 26.0113 11.4434 25.7273 11.6327 25.5379C11.8221 25.3485 12.1062 25.2674 12.3632 25.3621C12.796 25.4973 23.2114 28.8519 31.8142 37.4547C40.4306 46.0711 43.7581 56.4729 43.8933 56.9193C43.9745 57.1898 43.9069 57.4603 43.7175 57.6497C43.5822 57.7714 43.3929 57.8526 43.2035 57.8526Z" fill="#102015"/>
<path d="M57.8526 62.2351C49.7638 62.2351 43.2035 58.5695 43.2035 58.5695C43.2035 58.5695 49.7638 54.9038 57.8526 54.9038C65.9414 54.9038 72.5018 58.5695 72.5018 58.5695C72.5018 58.5695 65.9279 62.2351 57.8526 62.2351Z" fill="#006939"/>
<path d="M44.8672 58.5831C47.1397 59.6111 52.1309 61.5183 57.8391 61.5183C63.5473 61.5183 68.5385 59.6111 70.811 58.5831C68.5385 57.5551 63.5473 55.6479 57.8391 55.6479C52.1174 55.6479 47.1397 57.5551 44.8672 58.5831ZM57.8526 62.9792C49.6691 62.9792 43.1223 59.3812 42.8518 59.2324C42.6218 59.0971 42.4731 58.8536 42.4731 58.5831C42.4731 58.3126 42.6218 58.0691 42.8518 57.9338C43.1358 57.785 49.6827 54.187 57.8526 54.187C66.0361 54.187 72.5829 57.785 72.8535 57.9338C73.0834 58.0691 73.2322 58.3126 73.2322 58.5831C73.2322 58.8401 73.0834 59.0971 72.8535 59.2324C72.5829 59.3676 66.0361 62.9792 57.8526 62.9792Z" fill="#102015"/>
<path d="M28.5543 62.2351C20.4655 62.2351 13.9052 58.5695 13.9052 58.5695C13.9052 58.5695 20.4655 54.9038 28.5543 54.9038C36.6431 54.9038 43.2035 58.5695 43.2035 58.5695C43.2035 58.5695 36.6431 62.2351 28.5543 62.2351Z" fill="#006939"/>
<path d="M15.5825 58.5831C17.8549 59.6111 22.8462 61.5183 28.5543 61.5183C34.2625 61.5183 39.2537 59.6111 41.5262 58.5831C39.2537 57.5551 34.2625 55.6479 28.5543 55.6479C22.8326 55.6479 17.8549 57.5551 15.5825 58.5831ZM28.5543 62.9792C20.3708 62.9792 13.824 59.3812 13.5535 59.2324C13.3236 59.0971 13.1748 58.8536 13.1748 58.5831C13.1748 58.3126 13.3236 58.0691 13.5535 57.9338C13.8376 57.785 20.3844 54.187 28.5543 54.187C36.7378 54.187 43.2846 57.785 43.5552 57.9338C43.7851 58.0691 43.9339 58.3126 43.9339 58.5831C43.9339 58.8401 43.7851 59.0971 43.5552 59.2324C43.2846 59.3676 36.7514 62.9792 28.5543 62.9792Z" fill="#102015"/>
<path d="M49.0604 31.4896C49.0604 45.246 43.2035 56.3918 43.2035 56.3918C43.2035 56.3918 37.3465 45.246 37.3465 31.4896C37.3465 17.7332 43.2035 6.5874 43.2035 6.5874C43.2035 6.5874 49.0604 17.7332 49.0604 31.4896Z" fill="#006939"/>
<path d="M43.2035 8.30529C41.6885 11.6599 38.0769 20.8443 38.0769 31.4896C38.0769 42.162 41.6885 51.3194 43.2035 54.674C44.7049 51.3194 48.33 42.1349 48.33 31.4896C48.33 20.8308 44.7049 11.6599 43.2035 8.30529ZM43.2035 57.1087C42.9194 57.1087 42.6759 56.9599 42.5542 56.7165C42.5001 56.5947 36.6161 45.246 36.6161 31.4896C36.6161 17.7197 42.5001 6.37101 42.5542 6.2628C42.7977 5.77584 43.5957 5.77584 43.8392 6.2628C43.8933 6.38454 49.7773 17.7332 49.7773 31.4896C49.7773 45.2596 43.8933 56.6218 43.8392 56.7165C43.731 56.9735 43.474 57.1087 43.2035 57.1087Z" fill="#102015"/>
</g>
<defs>
<clipPath id="clip0_15_60">
<rect width="86.407" height="80.55" fill="white"/>
</clipPath>
</defs>
</svg>
