<svg width="32" height="32" viewBox="0 0 32 32" fill="none" xmlns="http://www.w3.org/2000/svg">
<path d="M4.988 1.87747L29.604 15.4161C29.7085 15.4737 29.7957 15.5582 29.8564 15.661C29.9171 15.7637 29.9491 15.8808 29.9491 16.0001C29.9491 16.1195 29.9171 16.2366 29.8564 16.3393C29.7957 16.442 29.7085 16.5266 29.604 16.5841L4.988 30.1228C4.8865 30.1786 4.7722 30.2071 4.65636 30.2053C4.54053 30.2035 4.42716 30.1715 4.32744 30.1126C4.22771 30.0536 4.14506 29.9697 4.08764 29.8691C4.03023 29.7685 4.00002 29.6547 4 29.5388V2.46147C4.00002 2.34563 4.03023 2.23178 4.08764 2.13117C4.14506 2.03055 4.22771 1.94663 4.32744 1.88768C4.42716 1.82874 4.54053 1.79679 4.65636 1.795C4.7722 1.79321 4.8865 1.82164 4.988 1.87747ZM6.66667 17.3335V26.1561L25.1333 16.0001L6.66667 5.84414V14.6668H13.3333V17.3335H6.66667Z" fill="#32B92F"/>
</svg>
