<svg width="32" height="32" viewBox="0 0 32 32" fill="none" xmlns="http://www.w3.org/2000/svg">
<path d="M5.33333 8.19085V25.2895L12.0867 22.3962L20.0867 26.3962L26.6667 23.5735V6.47618L28.404 5.73218C28.5054 5.68869 28.6161 5.67107 28.726 5.6809C28.836 5.69074 28.9418 5.72771 29.0339 5.78851C29.126 5.84931 29.2016 5.93203 29.2539 6.02924C29.3061 6.12646 29.3334 6.23514 29.3333 6.34551V25.3335L20 29.3335L12 25.3335L3.596 28.9348C3.49455 28.9783 3.38389 28.996 3.27395 28.9861C3.16402 28.9763 3.05824 28.9393 2.96612 28.8785C2.87399 28.8177 2.79841 28.735 2.74614 28.6378C2.69388 28.5406 2.66657 28.4319 2.66667 28.3215V9.33351L5.33333 8.19085ZM21.6573 14.9908L16 20.6468L10.3427 14.9908C9.22398 13.872 8.46219 12.4465 8.15362 10.8947C7.84505 9.34289 8.00355 7.73442 8.60909 6.27269C9.21463 4.81096 10.24 3.56161 11.5556 2.68262C12.8711 1.80363 14.4178 1.33447 16 1.33447C17.5822 1.33447 19.1289 1.80363 20.4444 2.68262C21.76 3.56161 22.7854 4.81096 23.3909 6.27269C23.9964 7.73442 24.155 9.34289 23.8464 10.8947C23.5378 12.4465 22.776 13.872 21.6573 14.9908ZM16 16.8762L19.7707 13.1042C20.5167 12.3584 21.0248 11.4081 21.2307 10.3734C21.4367 9.33884 21.3311 8.2664 20.9275 7.29177C20.5239 6.31714 19.8403 5.48409 18.9632 4.89798C18.0861 4.31188 17.0549 3.99904 16 3.99904C14.9451 3.99904 13.9139 4.31188 13.0368 4.89798C12.1597 5.48409 11.4761 6.31714 11.0725 7.29177C10.6689 8.2664 10.5633 9.33884 10.7693 10.3734C10.9752 11.4081 11.4833 12.3584 12.2293 13.1042L16 16.8762Z" fill="#32B92F"/>
</svg>
