<svg width="18" height="18" viewBox="0 0 18 18" fill="none" xmlns="http://www.w3.org/2000/svg">
<path d="M11.25 3H3.75V15H14.25V6H11.25V3ZM2.25 2.244C2.25 1.833 2.58525 1.5 2.99925 1.5H12L15.75 5.25V15.7448C15.7507 15.8432 15.732 15.9409 15.6949 16.0322C15.6579 16.1234 15.6032 16.2065 15.534 16.2766C15.4649 16.3468 15.3826 16.4026 15.2919 16.4409C15.2011 16.4792 15.1037 16.4993 15.0052 16.5H2.99475C2.79778 16.4986 2.60926 16.4198 2.46991 16.2806C2.33056 16.1414 2.25157 15.953 2.25 15.756V2.244ZM9 8.625C8.50272 8.625 8.02581 8.42746 7.67417 8.07583C7.32254 7.72419 7.125 7.24728 7.125 6.75C7.125 6.25272 7.32254 5.77581 7.67417 5.42417C8.02581 5.07254 8.50272 4.875 9 4.875C9.49728 4.875 9.97419 5.07254 10.3258 5.42417C10.6775 5.77581 10.875 6.25272 10.875 6.75C10.875 7.24728 10.6775 7.72419 10.3258 8.07583C9.97419 8.42746 9.49728 8.625 9 8.625ZM5.64525 12.75C5.73617 11.9238 6.12876 11.1602 6.74781 10.6055C7.36686 10.0509 8.16881 9.74416 9 9.74416C9.83119 9.74416 10.6331 10.0509 11.2522 10.6055C11.8712 11.1602 12.2638 11.9238 12.3547 12.75H5.64525Z" fill="white"/>
</svg>
