<svg width="18" height="18" viewBox="0 0 18 18" fill="none" xmlns="http://www.w3.org/2000/svg">
<path d="M3 4.6072V14.2252L6.79875 12.5977L11.2987 14.8477L15 13.2599V3.6427L15.9772 3.2242C16.0343 3.19974 16.0966 3.18983 16.1584 3.19536C16.2202 3.20089 16.2797 3.22168 16.3316 3.25588C16.3834 3.29008 16.4259 3.33661 16.4553 3.3913C16.4847 3.44598 16.5001 3.50711 16.5 3.5692V14.2499L11.25 16.4999L6.75 14.2499L2.02275 16.2757C1.96569 16.3002 1.90344 16.3101 1.8416 16.3045C1.77976 16.299 1.72026 16.2782 1.66844 16.244C1.61662 16.2098 1.5741 16.1633 1.54471 16.1086C1.51531 16.0539 1.49994 15.9928 1.5 15.9307V5.24995L3 4.6072ZM12.1823 8.4322L9 11.6137L5.81775 8.4322C5.18849 7.80283 4.75998 7.00101 4.58641 6.12811C4.41284 5.25522 4.502 4.35046 4.84262 3.52824C5.18323 2.70601 5.76001 2.00325 6.50001 1.50882C7.24002 1.01439 8.11002 0.750488 9 0.750488C9.88998 0.750488 10.76 1.01439 11.5 1.50882C12.24 2.00325 12.8168 2.70601 13.1574 3.52824C13.498 4.35046 13.5872 5.25522 13.4136 6.12811C13.24 7.00101 12.8115 7.80283 12.1823 8.4322ZM9 9.4927L11.121 7.37095C11.5406 6.95143 11.8265 6.41688 11.9423 5.83491C12.0581 5.25295 11.9988 4.6497 11.7717 4.10147C11.5447 3.55324 11.1602 3.08465 10.6668 2.75496C10.1734 2.42528 9.59338 2.24931 9 2.24931C8.40662 2.24931 7.82656 2.42528 7.3332 2.75496C6.83983 3.08465 6.45531 3.55324 6.22827 4.10147C6.00124 4.6497 5.94188 5.25295 6.05771 5.83491C6.17354 6.41688 6.45935 6.95143 6.879 7.37095L9 9.4927Z" fill="white"/>
</svg>
